<svg width="132" height="61" viewBox="0 0 132 61" fill="none" xmlns="http://www.w3.org/2000/svg">
<g filter="url(#filter0_di_276_161)">
<g clip-path="url(#clip0_276_161)">
<rect x="7" y="6" width="114" height="43" rx="6" fill="#636363"/>
<g clip-path="url(#clip1_276_161)">
<g style="mix-blend-mode:soft-light" opacity="0.4">
<path d="M-3.9043 43.528L54.2201 3.01709H79.1306L12.5743 56.6383L-3.9043 43.528Z" fill="white"/>
<path d="M19.4965 59.3801L87.9373 3.01709H99.2603C77.2854 21.8048 33.0337 59.3801 31.8259 59.3801H19.4965Z" fill="white"/>
<path d="M67.6792 62.148L125.804 4.73183L135.997 7.54626C119.222 25.7468 85.2198 62.148 83.4082 62.148H67.6792Z" fill="white"/>
</g>
<path d="M15.6041 43.3209C15.6041 44.912 14.3143 46.2018 12.7232 46.2018C11.1321 46.2018 9.84229 44.912 9.84229 43.3209C9.84229 41.7298 11.1321 40.4399 12.7232 40.4399C14.3143 40.4399 15.6041 41.7298 15.6041 43.3209Z" fill="#D9D9D9"/>
<path fill-rule="evenodd" clip-rule="evenodd" d="M12.723 40.64C11.2424 40.64 10.0421 41.8403 10.0421 43.3209C10.0421 44.8015 11.2424 46.0018 12.723 46.0018C14.2036 46.0018 15.4039 44.8015 15.4039 43.3209C15.4039 43.1957 15.3953 43.0724 15.3787 42.9517L15.7694 42.858C15.7921 43.009 15.8039 43.1636 15.8039 43.3209C15.8039 45.0225 14.4246 46.4018 12.723 46.4018C11.0215 46.4018 9.64209 45.0225 9.64209 43.3209C9.64209 41.6194 11.0215 40.24 12.723 40.24C13.0307 40.24 13.3278 40.2851 13.6082 40.369L13.471 40.7457C13.2336 40.6769 12.9826 40.64 12.723 40.64ZM14.9899 41.889C15.0891 42.0458 15.1726 42.2136 15.2379 42.3901L15.6053 42.2302C15.5226 42.0118 15.4158 41.8052 15.2881 41.6137L14.9899 41.889Z" fill="#929292"/>
<path d="M15.6053 42.2302L15.2379 42.3901C15.3042 42.5691 15.3519 42.7571 15.3787 42.9517L15.7694 42.858C15.7366 42.6404 15.6811 42.4304 15.6053 42.2302Z" fill="white"/>
<path d="M13.6082 40.369L13.471 40.7457C14.1061 40.9299 14.6441 41.3426 14.9899 41.889L15.2881 41.6137C14.8946 41.0237 14.3029 40.5771 13.6082 40.369Z" fill="white"/>
<path fill-rule="evenodd" clip-rule="evenodd" d="M11.5076 42.1253C11.3513 42.2815 11.3513 42.5347 11.5076 42.6909L12.1374 43.3208L11.5076 43.9507C11.3514 44.1069 11.3514 44.3602 11.5076 44.5164L11.5274 44.5362C11.6836 44.6924 11.9369 44.6924 12.0931 44.5362L12.723 43.9064L13.3529 44.5362C13.5091 44.6925 13.7623 44.6925 13.9185 44.5362L13.9384 44.5164C14.0946 44.3602 14.0946 44.1069 13.9384 43.9507L13.3085 43.3208L13.9384 42.6909C14.0946 42.5347 14.0946 42.2814 13.9384 42.1252L13.9186 42.1054C13.7624 41.9492 13.5091 41.9492 13.3529 42.1054L12.723 42.7353L12.0931 42.1054C11.9369 41.9492 11.6836 41.9492 11.5274 42.1054L11.5076 42.1253Z" fill="#6D6D6D"/>
<path d="M117.25 43.3209C117.25 44.912 115.96 46.2018 114.369 46.2018C112.778 46.2018 111.488 44.912 111.488 43.3209C111.488 41.7298 112.778 40.4399 114.369 40.4399C115.96 40.4399 117.25 41.7298 117.25 43.3209Z" fill="#D9D9D9"/>
<path fill-rule="evenodd" clip-rule="evenodd" d="M114.369 40.64C112.888 40.64 111.688 41.8403 111.688 43.3209C111.688 44.8015 112.888 46.0018 114.369 46.0018C115.85 46.0018 117.05 44.8015 117.05 43.3209C117.05 43.1957 117.041 43.0724 117.025 42.9517L117.415 42.858C117.438 43.009 117.45 43.1636 117.45 43.3209C117.45 45.0225 116.071 46.4018 114.369 46.4018C112.667 46.4018 111.288 45.0225 111.288 43.3209C111.288 41.6194 112.667 40.24 114.369 40.24C114.677 40.24 114.974 40.2851 115.254 40.369L115.117 40.7457C114.88 40.6769 114.629 40.64 114.369 40.64ZM116.636 41.889C116.735 42.0458 116.819 42.2136 116.884 42.3901L117.251 42.2302C117.169 42.0118 117.062 41.8052 116.934 41.6137L116.636 41.889Z" fill="#929292"/>
<path d="M117.251 42.2302L116.884 42.3901C116.95 42.5691 116.998 42.7571 117.025 42.9517L117.415 42.858C117.383 42.6404 117.327 42.4304 117.251 42.2302Z" fill="white"/>
<path d="M115.254 40.369L115.117 40.7457C115.752 40.9299 116.29 41.3426 116.636 41.889L116.934 41.6137C116.541 41.0237 115.949 40.5771 115.254 40.369Z" fill="white"/>
<path fill-rule="evenodd" clip-rule="evenodd" d="M113.154 42.1253C112.997 42.2815 112.997 42.5347 113.154 42.6909L113.783 43.3208L113.154 43.9507C112.997 44.1069 112.997 44.3602 113.154 44.5164L113.173 44.5362C113.33 44.6924 113.583 44.6924 113.739 44.5362L114.369 43.9064L114.999 44.5362C115.155 44.6925 115.408 44.6925 115.565 44.5362L115.584 44.5164C115.741 44.3602 115.741 44.1069 115.584 43.9507L114.954 43.3208L115.584 42.6909C115.741 42.5347 115.741 42.2814 115.584 42.1252L115.565 42.1054C115.408 41.9492 115.155 41.9492 114.999 42.1054L114.369 42.7353L113.739 42.1054C113.583 41.9492 113.33 41.9492 113.173 42.1054L113.154 42.1253Z" fill="#6D6D6D"/>
</g>
<path d="M15.6041 12.221C15.6041 13.8121 14.3143 15.1019 12.7232 15.1019C11.1321 15.1019 9.84229 13.8121 9.84229 12.221C9.84229 10.6299 11.1321 9.34009 12.7232 9.34009C14.3143 9.34009 15.6041 10.6299 15.6041 12.221Z" fill="#D9D9D9"/>
<path fill-rule="evenodd" clip-rule="evenodd" d="M12.723 9.54014C11.2424 9.54014 10.0421 10.7404 10.0421 12.2211C10.0421 13.7017 11.2424 14.902 12.723 14.902C14.2036 14.902 15.4039 13.7017 15.4039 12.2211C15.4039 12.0958 15.3953 11.9726 15.3787 11.8519L15.7694 11.7581C15.7921 11.9091 15.8039 12.0637 15.8039 12.2211C15.8039 13.9226 14.4246 15.302 12.723 15.302C11.0215 15.302 9.64209 13.9226 9.64209 12.2211C9.64209 10.5195 11.0215 9.14014 12.723 9.14014C13.0307 9.14014 13.3278 9.18524 13.6082 9.26919L13.471 9.64587C13.2336 9.57703 12.9826 9.54014 12.723 9.54014ZM14.9899 10.7891C15.0891 10.9459 15.1726 11.1137 15.2379 11.2903L15.6053 11.1304C15.5226 10.9119 15.4158 10.7053 15.2881 10.5138L14.9899 10.7891Z" fill="#929292"/>
<path d="M15.6053 11.1304L15.2379 11.2903C15.3042 11.4692 15.3519 11.6572 15.3787 11.8519L15.7694 11.7581C15.7366 11.5406 15.6811 11.3305 15.6053 11.1304Z" fill="white"/>
<path d="M13.6082 9.26919L13.471 9.64587C14.1061 9.83003 14.6441 10.2428 14.9899 10.7891L15.2881 10.5138C14.8946 9.9238 14.3029 9.47722 13.6082 9.26919Z" fill="white"/>
<path fill-rule="evenodd" clip-rule="evenodd" d="M11.5076 11.0254C11.3513 11.1816 11.3513 11.4349 11.5076 11.5911L12.1374 12.221L11.5076 12.8508C11.3514 13.007 11.3514 13.2603 11.5076 13.4165L11.5274 13.4364C11.6836 13.5926 11.9369 13.5926 12.0931 13.4364L12.723 12.8065L13.3529 13.4364C13.5091 13.5926 13.7623 13.5926 13.9185 13.4364L13.9384 13.4166C14.0946 13.2604 14.0946 13.0071 13.9384 12.8509L13.3085 12.221L13.9384 11.5911C14.0946 11.4348 14.0946 11.1816 13.9384 11.0254L13.9186 11.0055C13.7624 10.8493 13.5091 10.8493 13.3529 11.0055L12.723 11.6355L12.0931 11.0056C11.9369 10.8494 11.6836 10.8494 11.5274 11.0056L11.5076 11.0254Z" fill="#6D6D6D"/>
<path d="M117.25 12.221C117.25 13.8121 115.96 15.1019 114.369 15.1019C112.778 15.1019 111.488 13.8121 111.488 12.221C111.488 10.6299 112.778 9.34009 114.369 9.34009C115.96 9.34009 117.25 10.6299 117.25 12.221Z" fill="#D9D9D9"/>
<path fill-rule="evenodd" clip-rule="evenodd" d="M114.369 9.54014C112.888 9.54014 111.688 10.7404 111.688 12.2211C111.688 13.7017 112.888 14.902 114.369 14.902C115.85 14.902 117.05 13.7017 117.05 12.2211C117.05 12.0958 117.041 11.9726 117.025 11.8519L117.415 11.7581C117.438 11.9091 117.45 12.0637 117.45 12.2211C117.45 13.9226 116.071 15.302 114.369 15.302C112.667 15.302 111.288 13.9226 111.288 12.2211C111.288 10.5195 112.667 9.14014 114.369 9.14014C114.677 9.14014 114.974 9.18524 115.254 9.26919L115.117 9.64587C114.88 9.57703 114.629 9.54014 114.369 9.54014ZM116.636 10.7891C116.735 10.9459 116.819 11.1137 116.884 11.2903L117.251 11.1304C117.169 10.9119 117.062 10.7053 116.934 10.5138L116.636 10.7891Z" fill="#929292"/>
<path d="M117.251 11.1304L116.884 11.2903C116.95 11.4692 116.998 11.6572 117.025 11.8519L117.415 11.7581C117.383 11.5406 117.327 11.3305 117.251 11.1304Z" fill="white"/>
<path d="M115.254 9.26919L115.117 9.64587C115.752 9.83003 116.29 10.2428 116.636 10.7891L116.934 10.5138C116.541 9.9238 115.949 9.47722 115.254 9.26919Z" fill="white"/>
<path fill-rule="evenodd" clip-rule="evenodd" d="M113.154 11.0254C112.997 11.1816 112.997 11.4349 113.154 11.5911L113.783 12.221L113.154 12.8508C112.997 13.007 112.997 13.2603 113.154 13.4165L113.173 13.4364C113.33 13.5926 113.583 13.5926 113.739 13.4364L114.369 12.8065L114.999 13.4364C115.155 13.5926 115.408 13.5926 115.565 13.4364L115.584 13.4166C115.741 13.2604 115.741 13.0071 115.584 12.8509L114.954 12.221L115.584 11.5911C115.741 11.4348 115.741 11.1816 115.584 11.0254L115.565 11.0055C115.408 10.8493 115.155 10.8493 114.999 11.0055L114.369 11.6355L113.739 11.0056C113.583 10.8494 113.33 10.8494 113.173 11.0056L113.154 11.0254Z" fill="#6D6D6D"/>
</g>
<rect x="5.5" y="4.5" width="117" height="46" rx="7.5" stroke="white" stroke-width="3"/>
</g>
<defs>
<filter id="filter0_di_276_161" x="0.5" y="0.5" width="131" height="60" filterUnits="userSpaceOnUse" color-interpolation-filters="sRGB">
<feFlood flood-opacity="0" result="BackgroundImageFix"/>
<feColorMatrix in="SourceAlpha" type="matrix" values="0 0 0 0 0 0 0 0 0 0 0 0 0 0 0 0 0 0 127 0" result="hardAlpha"/>
<feOffset dx="2" dy="3"/>
<feGaussianBlur stdDeviation="2.75"/>
<feComposite in2="hardAlpha" operator="out"/>
<feColorMatrix type="matrix" values="0 0 0 0 0 0 0 0 0 0 0 0 0 0 0 0 0 0 0.15 0"/>
<feBlend mode="normal" in2="BackgroundImageFix" result="effect1_dropShadow_276_161"/>
<feBlend mode="normal" in="SourceGraphic" in2="effect1_dropShadow_276_161" result="shape"/>
<feColorMatrix in="SourceAlpha" type="matrix" values="0 0 0 0 0 0 0 0 0 0 0 0 0 0 0 0 0 0 127 0" result="hardAlpha"/>
<feOffset dx="3" dy="3"/>
<feGaussianBlur stdDeviation="2.4"/>
<feComposite in2="hardAlpha" operator="arithmetic" k2="-1" k3="1"/>
<feColorMatrix type="matrix" values="0 0 0 0 0 0 0 0 0 0 0 0 0 0 0 0 0 0 0.25 0"/>
<feBlend mode="normal" in2="shape" result="effect2_innerShadow_276_161"/>
</filter>
<clipPath id="clip0_276_161">
<rect x="7" y="6" width="114" height="43" rx="6" fill="white"/>
</clipPath>
<clipPath id="clip1_276_161">
<rect width="114" height="43" fill="white" transform="translate(7 6)"/>
</clipPath>
</defs>
</svg>
