<svg width="129" height="161" viewBox="0 0 129 161" fill="none" xmlns="http://www.w3.org/2000/svg">
<path d="M120 96.3339C107.218 179.974 20.3618 180.279 9 96.113L12.8063 94.7147C23.5699 174.843 103.931 174.79 115.9 94.9933L120 96.3339Z" fill="#3B3B3B" stroke="black" stroke-width="2.55956"/>
<path d="M50.7839 154.683C50.7839 152.062 52.9088 149.937 55.53 149.937H63.6903H71.8506C74.4718 149.937 76.5967 152.062 76.5967 154.683C76.5967 157.304 74.4718 159.429 71.8506 159.429H63.6903H55.53C52.9088 159.429 50.7839 157.304 50.7839 154.683Z" fill="#3B3B3B"/>
<path d="M63.6903 149.937H55.53C52.9088 149.937 50.7839 152.062 50.7839 154.683V154.683C50.7839 157.304 52.9088 159.429 55.53 159.429H63.6903M63.6903 149.937H71.8506C74.4718 149.937 76.5967 152.062 76.5967 154.683V154.683C76.5967 157.304 74.4718 159.429 71.8506 159.429H63.6903M63.6903 149.937V159.429" stroke="black" stroke-width="2.55956"/>
<path d="M89.6139 14.7146C85.1395 6.80844 76.5121 2.59381 65.7192 2.23904V2.2146H64.2192H62.7192V2.23904C51.9263 2.59381 43.2989 6.80844 38.8245 14.7146H36.7192H36.3058L35.9508 14.9264C25.5883 21.1072 18.6525 27.2198 14.1942 35.6252C9.88327 43.7529 7.9767 53.8632 7.27903 67.9015C6.53548 68.0708 5.82965 68.3629 5.23352 68.8379C4.21258 69.6515 3.71923 70.8343 3.71921 72.2146V77.9666C2.8423 78.6651 2.1625 79.4012 1.79685 80.2941C1.32563 81.4449 1.49165 82.5643 1.77046 83.6033L2.06864 84.7146H3.21921H62.7192H64.2192H65.7192H125.219H126.37L126.668 83.6033C126.947 82.5643 127.113 81.4449 126.642 80.2941C126.276 79.4012 125.596 78.6651 124.719 77.9666V72.2146C124.719 70.8343 124.226 69.6515 123.205 68.8379C122.609 68.3629 121.903 68.0708 121.159 67.9015C120.462 53.8632 118.555 43.7529 114.244 35.6252C109.786 27.2198 102.85 21.1072 92.4876 14.9264L92.1326 14.7146H91.7192H89.6139Z" fill="#FC7B18" stroke="black" stroke-width="3"/>
<path d="M43.5 43.7146L39.5 16.2146H36.5L43.5 43.7146Z" fill="black" fill-opacity="0.2"/>
<path d="M85 43.7146L89 16.2146H92L85 43.7146Z" fill="black" fill-opacity="0.2"/>
<g filter="url(#filter0_i_21_78)">
<path d="M63.5 13.716C59.2169 13.7547 57.1703 14.6098 54 16.7151L57 36.2156C59.8639 33.829 60.0106 32.7652 63.5 32.7154C67.1896 32.6674 68 33.7156 71 36.2156L73.5 16.7156C70.3297 14.6103 68.2831 13.7552 64 13.7165V13.7151C63.8673 13.7144 63.7368 13.7144 63.6082 13.7152C63.5723 13.7153 63.5362 13.7158 63.5 13.716Z" fill="url(#paint0_linear_21_78)"/>
</g>
<path d="M8.5 78.7145V69.2145C12.5 69.2145 13 70.7147 13 72.2146V78.7145H8.5Z" fill="black" fill-opacity="0.21"/>
<path d="M119.5 78.7145V69.2145C115.5 69.2145 115 70.7147 115 72.2146V78.7145H119.5Z" fill="black" fill-opacity="0.21"/>
<rect x="13" y="77.7146" width="47" height="1" fill="url(#paint1_linear_21_78)"/>
<rect width="47" height="1" transform="matrix(-1 0 0 1 115 77.7146)" fill="url(#paint2_linear_21_78)"/>
<path d="M5 84.7146C5 98.2146 15 99.2146 15 84.7146" stroke="black" stroke-width="3"/>
<path d="M113 84.7146C113 98.2146 123 99.2146 123 84.7146" stroke="black" stroke-width="3"/>
<defs>
<filter id="filter0_i_21_78" x="54" y="13.7146" width="19.5" height="26.501" filterUnits="userSpaceOnUse" color-interpolation-filters="sRGB">
<feFlood flood-opacity="0" result="BackgroundImageFix"/>
<feBlend mode="normal" in="SourceGraphic" in2="BackgroundImageFix" result="shape"/>
<feColorMatrix in="SourceAlpha" type="matrix" values="0 0 0 0 0 0 0 0 0 0 0 0 0 0 0 0 0 0 127 0" result="hardAlpha"/>
<feOffset dy="4"/>
<feGaussianBlur stdDeviation="2"/>
<feComposite in2="hardAlpha" operator="arithmetic" k2="-1" k3="1"/>
<feColorMatrix type="matrix" values="0 0 0 0 0 0 0 0 0 0 0 0 0 0 0 0 0 0 0.25 0"/>
<feBlend mode="normal" in2="shape" result="effect1_innerShadow_21_78"/>
</filter>
<linearGradient id="paint0_linear_21_78" x1="63.75" y1="-151.785" x2="63.75" y2="36.2156" gradientUnits="userSpaceOnUse">
<stop/>
<stop offset="0.945601" stop-color="#FC7B18"/>
</linearGradient>
<linearGradient id="paint1_linear_21_78" x1="13" y1="78.2146" x2="60" y2="78.2146" gradientUnits="userSpaceOnUse">
<stop stop-opacity="0.2"/>
<stop offset="1" stop-color="#FC7B18"/>
</linearGradient>
<linearGradient id="paint2_linear_21_78" x1="0" y1="0.5" x2="47" y2="0.5" gradientUnits="userSpaceOnUse">
<stop stop-opacity="0.2"/>
<stop offset="1" stop-color="#FC7B18"/>
</linearGradient>
</defs>
</svg>
