<svg width="129" height="161" viewBox="0 0 129 161" fill="none" xmlns="http://www.w3.org/2000/svg">
<path d="M120.438 96.3339C107.656 179.974 20.8002 180.279 9.43842 96.113L13.2447 94.7147C24.0083 174.843 104.369 174.79 116.338 94.9933L120.438 96.3339Z" fill="#3B3B3B" stroke="black" stroke-width="2.55956"/>
<path d="M51.2224 154.683C51.2224 152.062 53.3472 149.937 55.9684 149.937H64.1287H72.2891C74.9102 149.937 77.0351 152.062 77.0351 154.683C77.0351 157.304 74.9102 159.429 72.2891 159.429H64.1287H55.9684C53.3472 159.429 51.2224 157.304 51.2224 154.683Z" fill="#3B3B3B"/>
<path d="M64.1287 149.937H55.9684C53.3472 149.937 51.2224 152.062 51.2224 154.683V154.683C51.2224 157.304 53.3472 159.429 55.9684 159.429H64.1287M64.1287 149.937H72.2891C74.9102 149.937 77.0351 152.062 77.0351 154.683V154.683C77.0351 157.304 74.9102 159.429 72.2891 159.429H64.1287M64.1287 149.937V159.429" stroke="black" stroke-width="2.55956"/>
<path d="M90.0523 14.7146C85.578 6.80844 76.9505 2.59381 66.1576 2.23904V2.2146H64.6576H63.1576V2.23904C52.3647 2.59381 43.7373 6.80844 39.2629 14.7146H37.1576H36.7443L36.3892 14.9264C26.0267 21.1072 19.0909 27.2198 14.6327 35.6252C10.3217 43.7529 8.41512 53.8632 7.71745 67.9015C6.97389 68.0708 6.26806 68.3629 5.67193 68.8379C4.651 69.6515 4.15764 70.8343 4.15762 72.2146V77.9666C3.28071 78.6651 2.60091 79.4012 2.23527 80.2941C1.76405 81.4449 1.93007 82.5643 2.20887 83.6033L2.50705 84.7146H3.65762H63.1576H64.6576H66.1576H125.658H126.808L127.106 83.6033C127.385 82.5643 127.551 81.4449 127.08 80.2941C126.714 79.4012 126.035 78.6651 125.158 77.9666V72.2146C125.158 70.8343 124.664 69.6515 123.643 68.8379C123.047 68.3629 122.341 68.0708 121.598 67.9015C120.9 53.8632 118.994 43.7529 114.683 35.6252C110.224 27.2198 103.289 21.1072 92.926 14.9264L92.571 14.7146H92.1576H90.0523Z" fill="#FCC718" stroke="black" stroke-width="3"/>
<path d="M43.9384 43.7146L39.9384 16.2146H36.9384L43.9384 43.7146Z" fill="black" fill-opacity="0.2"/>
<path d="M85.4384 43.7146L89.4384 16.2146H92.4384L85.4384 43.7146Z" fill="black" fill-opacity="0.2"/>
<g filter="url(#filter0_i_21_91)">
<path d="M63.9384 13.716C59.6553 13.7547 57.6087 14.6098 54.4384 16.7151L57.4384 36.2156C60.3023 33.829 60.449 32.7652 63.9384 32.7154C67.628 32.6674 68.4384 33.7156 71.4384 36.2156L73.9384 16.7156C70.7681 14.6103 68.7216 13.7552 64.4384 13.7165V13.7151C64.3057 13.7144 64.1752 13.7144 64.0466 13.7152C64.0107 13.7153 63.9746 13.7158 63.9384 13.716Z" fill="url(#paint0_linear_21_91)"/>
</g>
<path d="M8.93842 78.7145V69.2145C12.9384 69.2145 13.4384 70.7147 13.4384 72.2146V78.7145H8.93842Z" fill="black" fill-opacity="0.21"/>
<path d="M119.938 78.7145V69.2145C115.938 69.2145 115.438 70.7147 115.438 72.2146V78.7145H119.938Z" fill="black" fill-opacity="0.21"/>
<rect x="13.4384" y="77.7146" width="47" height="1" fill="url(#paint1_linear_21_91)"/>
<rect width="47" height="1" transform="matrix(-1 0 0 1 115.438 77.7146)" fill="url(#paint2_linear_21_91)"/>
<path d="M5.43842 84.7146C5.43842 98.2146 15.4384 99.2146 15.4384 84.7146" stroke="black" stroke-width="3"/>
<path d="M113.438 84.7146C113.438 98.2146 123.438 99.2146 123.438 84.7146" stroke="black" stroke-width="3"/>
<defs>
<filter id="filter0_i_21_91" x="54.4384" y="13.7146" width="19.5" height="26.501" filterUnits="userSpaceOnUse" color-interpolation-filters="sRGB">
<feFlood flood-opacity="0" result="BackgroundImageFix"/>
<feBlend mode="normal" in="SourceGraphic" in2="BackgroundImageFix" result="shape"/>
<feColorMatrix in="SourceAlpha" type="matrix" values="0 0 0 0 0 0 0 0 0 0 0 0 0 0 0 0 0 0 127 0" result="hardAlpha"/>
<feOffset dy="4"/>
<feGaussianBlur stdDeviation="2"/>
<feComposite in2="hardAlpha" operator="arithmetic" k2="-1" k3="1"/>
<feColorMatrix type="matrix" values="0 0 0 0 0 0 0 0 0 0 0 0 0 0 0 0 0 0 0.25 0"/>
<feBlend mode="normal" in2="shape" result="effect1_innerShadow_21_91"/>
</filter>
<linearGradient id="paint0_linear_21_91" x1="64.1884" y1="-151.785" x2="64.1884" y2="36.2156" gradientUnits="userSpaceOnUse">
<stop/>
<stop offset="0.945601" stop-color="#FCC718"/>
</linearGradient>
<linearGradient id="paint1_linear_21_91" x1="13.4384" y1="78.2146" x2="60.4384" y2="78.2146" gradientUnits="userSpaceOnUse">
<stop stop-opacity="0.2"/>
<stop offset="1" stop-color="#FCC718"/>
</linearGradient>
<linearGradient id="paint2_linear_21_91" x1="0" y1="0.5" x2="47" y2="0.5" gradientUnits="userSpaceOnUse">
<stop stop-opacity="0.2"/>
<stop offset="1" stop-color="#FCC718"/>
</linearGradient>
</defs>
</svg>
