<svg width="129" height="160" viewBox="0 0 129 160" fill="none" xmlns="http://www.w3.org/2000/svg">
<path d="M120 95.6193C107.218 179.259 20.3618 179.565 9 95.3984L12.8063 94.0001C23.5699 174.129 103.931 174.076 115.9 94.2787L120 95.6193Z" fill="#3B3B3B" stroke="black" stroke-width="2.55956"/>
<path d="M50.7839 153.969C50.7839 151.347 52.9088 149.223 55.53 149.223H63.6903H71.8506C74.4718 149.223 76.5967 151.347 76.5967 153.969C76.5967 156.59 74.4718 158.715 71.8506 158.715H63.6903H55.53C52.9088 158.715 50.7839 156.59 50.7839 153.969Z" fill="#3B3B3B"/>
<path d="M63.6903 149.223H55.53C52.9088 149.223 50.7839 151.347 50.7839 153.969V153.969C50.7839 156.59 52.9088 158.715 55.53 158.715H63.6903M63.6903 149.223H71.8506C74.4718 149.223 76.5967 151.347 76.5967 153.969V153.969C76.5967 156.59 74.4718 158.715 71.8506 158.715H63.6903M63.6903 149.223V158.715" stroke="black" stroke-width="2.55956"/>
<path d="M89.6139 14C85.1395 6.09384 76.5121 1.87921 65.7192 1.52444V1.5H64.2192H62.7192V1.52444C51.9263 1.87921 43.2989 6.09384 38.8245 14H36.7192H36.3058L35.9508 14.2118C25.5883 20.3926 18.6525 26.5052 14.1942 34.9106C9.88327 43.0383 7.9767 53.1486 7.27903 67.1869C6.53548 67.3562 5.82965 67.6483 5.23352 68.1233C4.21258 68.9369 3.71923 70.1197 3.71921 71.5V77.252C2.8423 77.9505 2.1625 78.6866 1.79685 79.5795C1.32563 80.7303 1.49165 81.8497 1.77046 82.8887L2.06864 84H3.21921H62.7192H64.2192H65.7192H125.219H126.37L126.668 82.8887C126.947 81.8497 127.113 80.7303 126.642 79.5795C126.276 78.6866 125.596 77.9505 124.719 77.252V71.5C124.719 70.1197 124.226 68.9369 123.205 68.1233C122.609 67.6483 121.903 67.3562 121.159 67.1869C120.462 53.1486 118.555 43.0383 114.244 34.9106C109.786 26.5052 102.85 20.3926 92.4876 14.2118L92.1326 14H91.7192H89.6139Z" fill="#22C132" stroke="black" stroke-width="3"/>
<path d="M43.5 43L39.5 15.5H36.5L43.5 43Z" fill="black" fill-opacity="0.2"/>
<path d="M85 43L89 15.5H92L85 43Z" fill="black" fill-opacity="0.2"/>
<g filter="url(#filter0_i_20_38)">
<path d="M63.5 13.0014C59.2169 13.0401 57.1703 13.8952 54 16.0005L57 35.501C59.8639 33.1144 60.0106 32.0506 63.5 32.0008C67.1896 31.9528 68 33.001 71 35.501L73.5 16.001C70.3297 13.8957 68.2831 13.0406 64 13.0019V13.0005C63.8673 12.9998 63.7368 12.9998 63.6082 13.0006C63.5723 13.0007 63.5362 13.0012 63.5 13.0014Z" fill="url(#paint0_linear_20_38)"/>
</g>
<path d="M8.5 77.9999V68.4999C12.5 68.4999 13 70.0001 13 71.5V77.9999H8.5Z" fill="black" fill-opacity="0.21"/>
<path d="M119.5 77.9999V68.4999C115.5 68.4999 115 70.0001 115 71.5V77.9999H119.5Z" fill="black" fill-opacity="0.21"/>
<rect x="13" y="77" width="47" height="1" fill="url(#paint1_linear_20_38)"/>
<rect width="47" height="1" transform="matrix(-1 0 0 1 115 77)" fill="url(#paint2_linear_20_38)"/>
<path d="M5 84C5 97.5 15 98.5 15 84" stroke="black" stroke-width="3"/>
<path d="M113 84C113 97.5 123 98.5 123 84" stroke="black" stroke-width="3"/>
<defs>
<filter id="filter0_i_20_38" x="54" y="13" width="19.5" height="26.501" filterUnits="userSpaceOnUse" color-interpolation-filters="sRGB">
<feFlood flood-opacity="0" result="BackgroundImageFix"/>
<feBlend mode="normal" in="SourceGraphic" in2="BackgroundImageFix" result="shape"/>
<feColorMatrix in="SourceAlpha" type="matrix" values="0 0 0 0 0 0 0 0 0 0 0 0 0 0 0 0 0 0 127 0" result="hardAlpha"/>
<feOffset dy="4"/>
<feGaussianBlur stdDeviation="2"/>
<feComposite in2="hardAlpha" operator="arithmetic" k2="-1" k3="1"/>
<feColorMatrix type="matrix" values="0 0 0 0 0 0 0 0 0 0 0 0 0 0 0 0 0 0 0.25 0"/>
<feBlend mode="normal" in2="shape" result="effect1_innerShadow_20_38"/>
</filter>
<linearGradient id="paint0_linear_20_38" x1="63.75" y1="-152.5" x2="63.75" y2="35.501" gradientUnits="userSpaceOnUse">
<stop/>
<stop offset="0.945601" stop-color="#22C132"/>
</linearGradient>
<linearGradient id="paint1_linear_20_38" x1="13" y1="77.5" x2="60" y2="77.5" gradientUnits="userSpaceOnUse">
<stop stop-opacity="0.2"/>
<stop offset="1" stop-color="#22C132"/>
</linearGradient>
<linearGradient id="paint2_linear_20_38" x1="0" y1="0.5" x2="47" y2="0.5" gradientUnits="userSpaceOnUse">
<stop stop-opacity="0.2"/>
<stop offset="1" stop-color="#22C132"/>
</linearGradient>
</defs>
</svg>
