<svg width="250" height="520" viewBox="0 0 250 520" fill="none" xmlns="http://www.w3.org/2000/svg">
<path d="M112 108.617C113.2 105.017 113.167 92.45 113 86.6167L137.5 85.1167C137.1 94.7167 139.5 104.617 142 108.617C127.989 117.02 122.954 115.238 112 108.617Z" fill="#ECBCB2"/>
<path d="M112.5 107.117C122.1 113.517 133.167 95.1167 137.5 85.1167L113 87.1167C113.281 94.7603 113.341 99.0808 112.5 107.117Z" fill="black" fill-opacity="0.1"/>
<path d="M125.722 91.1172C113.868 88.7799 107.046 85.8438 99.2218 73.1173L92.2218 35.6172C89.9309 22.1262 105.745 5.98374 123.222 5.61658C140.074 5.26254 158.649 20.1537 154.722 35.6172L148.222 71.6172C143.97 79.9108 134.722 90.6172 125.722 91.1172Z" fill="#F6CCBE"/>
<path d="M152.5 71.0324C151.3 71.8324 149 70.6991 148 70.0324L151 52.5324C166.5 41.5324 165 60.5324 162 61.5324C159 62.5324 154 70.0324 152.5 71.0324Z" fill="#F6CCBE"/>
<path d="M158.5 51.6166C153.3 51.2166 150.667 59.7832 150 64.1166C151.917 64.0078 152.147 65.0446 152 67.6166C154 67.6166 154.3 64.1166 157.5 62.1166C161.5 59.6166 165 52.1166 158.5 51.6166Z" fill="#F5BAA6"/>
<path d="M152 67.6166C152 65.1167 151.5 64.1167 150 64.1166C150.5 63.45 150.9 60.7167 152.5 61.1167C154.1 61.5167 155 67.1167 152 67.6166Z" fill="#F29D80"/>
<path d="M158.5 51.6167C154.325 53.6299 152.392 56.4512 152 61.6168L150 64.1168C150.491 61.3856 150.908 59.8498 152 57.1167C154.898 52.1008 156.22 51.7085 158.5 51.6167Z" fill="#F29D80"/>
<path d="M159.5 60.1165C159.239 56.6929 158.773 55.0041 155 54.1165C157.931 50.9158 160 51.6167 161.5 53.1167C163 54.6168 161.655 57.6412 159.5 60.1165Z" fill="black" fill-opacity="0.16"/>
<path d="M94.4346 71.0324C95.6346 71.8324 97.9346 70.6991 98.9346 70.0324L95.9346 52.5324C80.4346 41.5324 81.9346 60.5324 84.9346 61.5324C87.9346 62.5324 92.9346 70.0324 94.4346 71.0324Z" fill="#F6CCBE"/>
<path d="M88.4346 51.6166C93.6346 51.2166 96.2679 59.7832 96.9346 64.1166C95.0178 64.0078 94.788 65.0446 94.9346 67.6166C92.9346 67.6166 92.6346 64.1166 89.4346 62.1166C85.4346 59.6166 81.9346 52.1166 88.4346 51.6166Z" fill="#F5BAA6"/>
<path d="M94.9346 67.6166C94.9346 65.1167 95.4346 64.1167 96.9346 64.1166C96.4346 63.45 96.0346 60.7167 94.4346 61.1167C92.8346 61.5167 91.9346 67.1167 94.9346 67.6166Z" fill="#F29D80"/>
<path d="M88.4346 51.6167C92.6091 53.6299 94.543 56.4512 94.9346 61.6168L96.9346 64.1168C96.4433 61.3856 96.0266 59.8498 94.9346 57.1167C92.0361 52.1008 90.7149 51.7085 88.4346 51.6167Z" fill="#F29D80"/>
<path d="M87.4346 60.1165C87.696 56.6929 88.1614 55.0041 91.9346 54.1165C89.0037 50.9158 86.9346 51.6167 85.4346 53.1167C83.9346 54.6168 85.2792 57.6412 87.4346 60.1165Z" fill="black" fill-opacity="0.16"/>
<path d="M136.208 105.428C128.502 112.474 121.897 112.253 113.53 105.428V129.427C122.76 129.977 127.594 128.82 135 121.5L136.208 105.428Z" fill="white"/>
<path fill-rule="evenodd" clip-rule="evenodd" d="M127.817 127.27H122.141V139.184H127.817V127.27ZM122.141 144.469V244.617H127.817V144.469H122.141Z" fill="#172950"/>
<path d="M127.817 139.184H122.141V144.469H127.817V139.184Z" fill="#777777"/>
<path d="M112.5 121.5C110.1 123.9 103.833 123.5 101 123L114.5 114L125 129L112.5 123.5V121.5Z" fill="black" fill-opacity="0.2"/>
<path d="M137.5 121.5C139.9 123.9 146.667 123 149.5 122.5L135.5 114L126 129.5L137.5 123.5V121.5Z" fill="black" fill-opacity="0.2"/>
<path fill-rule="evenodd" clip-rule="evenodd" d="M105.315 99.023C105.012 111.233 103.717 114.653 100.739 122.513L100.652 122.742C101.406 122.516 102.134 122.305 102.838 122.102C107.817 120.664 111.571 119.579 114.235 115.849V121.728L124.979 128.621L114.235 106.524L112.881 93.7165L111.64 92.1704L105.315 99.023Z" fill="#C71919"/>
<path fill-rule="evenodd" clip-rule="evenodd" d="M144.602 99.023C144.905 111.233 146.2 114.653 149.178 122.513L149.265 122.742C148.511 122.516 147.783 122.305 147.079 122.102C142.1 120.664 138.346 119.579 135.682 115.849V121.728L121.897 134.094L135.682 106.524L136.981 94.188L138.622 92.5447L144.602 99.023Z" fill="#C71919"/>
<mask id="mask0_253_494" style="mask-type:alpha" maskUnits="userSpaceOnUse" x="77" y="244" width="120" height="202">
<path d="M78.5257 244C79.1476 281.158 79.7343 357.244 77.1062 364.32L82.9185 368.111C81.4864 382.262 77.6565 411.137 77.1062 414.357C76.1655 419.86 81.787 427.152 81.7171 430.743C81.5996 436.79 94.1808 445.187 105.424 445.187C115.027 445.187 125.475 442.559 122.846 436.089C128.153 433.562 124.363 427.497 121.33 412.84C120.91 397.02 119.301 365.616 115.999 348.88L118.178 301.527C121.223 295.298 127.313 281.68 127.313 277.03C133.956 294.053 147.741 333.663 149.734 355.918C152.225 383.737 138.108 413.632 143.921 419.86C149.734 426.088 156.377 420.492 155.131 433.977C154.135 444.764 160.806 445.945 164.266 445.187H186.272C189.732 440.897 196.569 431.319 196.237 427.333C195.904 423.347 192.223 413.493 190.424 409.064C188.763 395.086 184.611 364.887 181.289 355.918L174.231 244H78.5257Z" fill="#201D13"/>
</mask>
<g mask="url(#mask0_253_494)">
<path d="M78.5257 244C79.1476 281.158 79.7343 357.244 77.1062 364.32L82.9185 368.111C81.4864 382.262 77.6565 411.137 77.1062 414.357C76.1655 419.86 81.787 427.152 81.7171 430.743C81.5996 436.79 94.1808 445.187 105.424 445.187C115.027 445.187 125.475 442.559 122.846 436.089C128.153 433.562 124.363 427.497 121.33 412.84C120.91 397.02 119.301 365.616 115.999 348.88L118.178 301.527C121.223 295.298 127.313 281.68 127.313 277.03C133.956 294.053 147.741 333.663 149.734 355.918C152.225 383.737 138.108 413.632 143.921 419.86C149.734 426.088 156.377 420.492 155.131 433.977C154.135 444.764 160.806 445.945 164.266 445.187H186.272C189.732 440.897 196.569 431.319 196.237 427.333C195.904 423.347 192.223 413.493 190.424 409.064C188.763 395.086 184.611 364.887 181.289 355.918L174.231 244H78.5257Z" fill="#201D13"/>
<path d="M174.5 248L78.5 253.5V243.5H174.5V248Z" fill="black" fill-opacity="0.3"/>
<path d="M84 358.5L79 273C79.5147 311.221 79.9186 332.872 77 364.5L83 368.5L82 378.5C88.5 363.5 98.5 381.667 98.5 387.5C98.8333 384 98.5 375.5 95.5 369C92.7972 363.144 87.5 359.333 84 358.5Z" fill="black" fill-opacity="0.3"/>
<path d="M85 415.5C82.6 413.5 82.6667 383.333 83 368.5L77 417C79.8 427 95.1667 424.5 102.5 422C97.6667 420.667 87.4 417.5 85 415.5Z" fill="black" fill-opacity="0.3"/>
<path d="M127.5 276.5C120.301 276.868 115 275.5 106.5 272C110.5 277 115.499 279.846 120.5 281C121.972 289.108 120.5 301.5 111.5 301.5C117.162 320.5 115.377 330.65 116 349C116.573 330.711 116.975 320.405 118.5 301.5C123.114 291.613 125.035 286.147 127.5 276.5Z" fill="black" fill-opacity="0.3"/>
<path d="M170 398.5C170.4 368.9 151.167 333.167 141.5 319C150.172 349.622 152.556 365.722 146.5 390C155.375 359.502 160.501 358.989 170 398.5Z" fill="black" fill-opacity="0.3"/>
<path d="M161.5 413.5C152.7 409.1 148.167 395.333 147 389L143 409C141.604 417.772 143.393 420.417 149 423C154.311 424.549 155.264 425.959 155 429C154.044 440 155.738 445.491 165 445C167.5 436.333 170.3 417.9 161.5 413.5Z" fill="black" fill-opacity="0.3"/>
<path d="M165 445L167.5 431C171.587 442.227 175.947 444.724 186 445H165Z" fill="black" fill-opacity="0.3"/>
<path d="M180 425.5C180.4 418.7 187.167 411.667 190.5 409C193.829 419.55 194.83 422.372 196.5 427C189.306 411.621 185.803 413.446 180 425.5Z" fill="black" fill-opacity="0.3"/>
<path d="M141 297.5L127.5 276.5L142 320.5C150.457 299.212 147.452 287.116 140 265.5C143.5 278 146 289.5 141 297.5Z" fill="black" fill-opacity="0.3"/>
<path d="M152.394 291.998C153.891 306.482 161.524 338.817 180.079 352.281C176.5 335.5 159.5 342 152.394 291.998Z" fill="black" fill-opacity="0.3"/>
<path d="M115.5 337C116.5 352.5 117 355 101.98 369.206C107.5 354.5 116 362.5 115.5 337Z" fill="black" fill-opacity="0.3"/>
</g>
<path d="M52.6334 511.024C51.844 509.709 51.8659 505.432 51.9755 503.459L123.355 488.328C123.575 490.411 123.947 494.906 123.684 496.222C123.421 497.538 120.504 497.867 119.079 497.867C111.185 497.867 103.948 504.007 101.316 507.077L100.001 502.801L99.6716 508.064L94.0797 512.011C79.2774 520.564 53.6202 512.669 52.6334 511.024Z" fill="#FAB338"/>
<path d="M51.2659 502.801C46.7963 490.669 53.195 482.765 86.4623 465.96V440.961C86.4623 439.316 86.8431 438 88.4878 438H121.053C123.303 438 123.303 439.316 123.303 440.961V465.96V488.986C123.303 493.262 117.054 491.811 110.475 494.249C103.047 497 99.2883 499.432 93.0411 504.775C86.4624 510.401 53.6895 509.38 51.2659 502.801Z" fill="#252525"/>
<path d="M86.1851 445.895H123.355V450.5H86.1851V445.895Z" fill="#FAB338"/>
<rect x="83.5537" y="438" width="41.4463" height="7.89453" rx="1.97363" fill="#291F1F"/>
<path d="M86.8433 465.186C89.4748 463.212 97.6982 462.883 101.317 465.186" stroke="#ADADAD" stroke-width="1.97363" stroke-linecap="round"/>
<path d="M86.8433 460.29C89.4748 458.317 97.6982 457.988 101.317 460.29" stroke="#ADADAD" stroke-width="1.97363" stroke-linecap="round"/>
<path d="M86.8433 455.395C89.4748 453.422 97.6982 453.093 101.317 455.395" stroke="#ADADAD" stroke-width="1.97363" stroke-linecap="round"/>
<path d="M113.816 457.509C113.816 455.693 115.611 454.423 117.323 455.027L123.244 457.117C124.296 457.488 125 458.483 125 459.598V477.861C125 479.002 124.264 480.013 123.178 480.365L117.257 482.28C115.558 482.83 113.816 481.563 113.816 479.777V457.509Z" fill="#ADADAD"/>
<path d="M97.0402 501.485C98.6191 477.802 79.0582 474.293 69.0804 475.499C51.8605 485.51 47.0415 492.933 51.6467 503.459C55.9229 508.722 89.1457 512.669 97.0402 501.485Z" fill="#474747"/>
<path d="M225.367 511.024C226.156 509.709 226.134 505.432 226.024 503.459L154.645 488.328C154.425 490.411 154.053 494.906 154.316 496.222C154.579 497.538 157.496 497.867 158.921 497.867C166.815 497.867 174.052 504.007 176.684 507.077L177.999 502.801L178.328 508.064L183.92 512.011C198.723 520.564 224.38 512.669 225.367 511.024Z" fill="#FAB338"/>
<path d="M226.734 502.801C231.204 490.669 224.805 482.765 191.538 465.96V440.961C191.538 439.316 191.157 438 189.512 438H156.947C154.697 438 154.697 439.316 154.697 440.961V465.96V488.986C154.697 493.262 160.946 491.811 167.525 494.249C174.953 497 178.712 499.432 184.959 504.775C191.538 510.401 224.31 509.38 226.734 502.801Z" fill="#252525"/>
<path d="M191.815 445.895H154.645V450.5H191.815V445.895Z" fill="#FAB338"/>
<rect width="41.4463" height="7.89453" rx="1.97363" transform="matrix(-1 0 0 1 194.446 438)" fill="#291F1F"/>
<path d="M191.157 465.186C188.525 463.212 180.302 462.883 176.683 465.186" stroke="#ADADAD" stroke-width="1.97363" stroke-linecap="round"/>
<path d="M191.157 460.29C188.525 458.317 180.302 457.988 176.683 460.29" stroke="#ADADAD" stroke-width="1.97363" stroke-linecap="round"/>
<path d="M191.157 455.395C188.525 453.422 180.302 453.093 176.683 455.395" stroke="#ADADAD" stroke-width="1.97363" stroke-linecap="round"/>
<path d="M164.184 457.509C164.184 455.693 162.389 454.423 160.677 455.027L154.756 457.117C153.704 457.488 153 458.483 153 459.598V477.861C153 479.002 153.736 480.013 154.822 480.365L160.743 482.28C162.442 482.83 164.184 481.563 164.184 479.777V457.509Z" fill="#ADADAD"/>
<path d="M180.96 501.485C179.381 477.802 198.942 474.293 208.92 475.499C226.14 485.51 230.958 492.933 226.353 503.459C222.077 508.722 188.854 512.669 180.96 501.485Z" fill="#474747"/>
<path fill-rule="evenodd" clip-rule="evenodd" d="M79 178.26C78.8333 183.26 78.0048 194.915 76.4048 196.915L75.5284 203.551C74.5708 208.183 73.8172 212.189 73.1393 215.794C71.2317 225.937 69.9229 232.895 66.3507 241.652C66.4084 243.85 66.9633 245.545 68.2779 247.291C74.3568 256.269 77.6599 261.314 80.5062 270.627C80.5062 272.814 76.3704 272.376 74.0177 269.168L70.2743 263.82C68.777 261.876 66.0318 264.793 66.0318 267.953C65.5945 280.521 64.7702 284.222 62.538 286.427C60.8899 286.247 60.3317 284.968 60.292 279.621C60.3312 276.361 60.0408 274.72 59.0442 272.085C58.0539 285.248 57.0969 288.78 54.0531 289.83C51.5115 289.605 51.9648 285.004 52.6402 278.15C52.6943 277.601 52.7498 277.037 52.8053 276.46C52.6885 277.014 52.576 277.552 52.4669 278.074C51.1896 284.187 50.3775 288.072 48.5628 287.399C46.8448 286.813 46.2086 285.943 47.8142 279.864L48.8125 273.544C48.5995 274.207 48.404 274.83 48.2235 275.405C47.4631 277.825 46.9698 279.396 46.5664 279.621C44.8195 280.593 43.3222 279.134 44.3204 274.516C46.6583 267.257 47.8493 263.2 49.3116 256.042L49.8107 248.263L51.0691 236.582C51.4246 222.159 51.9024 213.225 54.5 198C54.5 192.833 54.9 180.2 56.5 171L79 178.26Z" fill="#ECBCB2"/>
<path d="M81 187.5L56 173.5L82 180.5L81 187.5Z" fill="black" fill-opacity="0.2"/>
<path fill-rule="evenodd" clip-rule="evenodd" d="M171.311 179.344C171.478 184.344 172.211 194.844 173.811 196.844L175.311 202.844C176.594 209.048 177.411 214.212 178.141 218.818C179.488 227.327 180.533 233.928 183.649 241.648C183.592 243.848 183.038 245.544 181.722 247.291C175.643 256.269 172.34 261.314 169.494 270.627C169.494 272.814 173.63 272.376 175.982 269.168L179.726 263.82C181.223 261.876 183.968 264.793 183.968 267.953C184.405 280.521 185.23 284.222 187.462 286.427C189.11 286.247 189.668 284.968 189.708 279.621C189.669 276.361 189.959 274.72 190.956 272.085C191.946 285.248 192.903 288.78 195.947 289.83C198.488 289.605 198.035 285.004 197.36 278.15C197.306 277.601 197.25 277.037 197.195 276.46C197.312 277.014 197.424 277.552 197.533 278.074C198.81 284.187 199.622 288.072 201.437 287.399C203.155 286.813 203.791 285.943 202.186 279.864L201.188 273.544C201.4 274.207 201.596 274.83 201.777 275.405C202.537 277.825 203.03 279.396 203.434 279.621C205.18 280.593 206.678 279.134 205.68 274.516C203.342 267.257 202.151 263.2 200.688 256.042L200.189 248.263L198.931 236.583C198.575 222.159 198.098 213.225 195.5 198C195.5 192.833 195.1 180.2 193.5 171L171.311 179.344Z" fill="#ECBCB2"/>
<path d="M169 187.5L194 173.5L168 180.5L169 187.5Z" fill="black" fill-opacity="0.2"/>
<path d="M110.349 106.267V95.1167L79.9555 108.453V120.266L111.529 108.453L110.349 106.267Z" fill="#172950"/>
<path d="M51.5859 229.344C59.1346 228.949 63.4189 229.205 71.4027 232.802L72.2788 227.518C65.0279 224.766 60.7774 223.621 51.9267 224.278L51.5859 229.344Z" fill="#172950"/>
<path d="M81.9375 144.597H122.715L122.715 139.167H81.9374L81.9375 144.597Z" fill="#777777"/>
<path d="M79.1507 194.83C78.9064 200.735 78.7227 205.175 77.5789 210.265C76.4199 215.422 75.4515 219.792 74.697 223.504C76.2135 222.886 80.754 224.372 82.8347 225.192C87.0393 212.63 88.5368 193.788 88.76 185.937C84.1382 185.818 80.7357 185.081 79.6122 184.727C79.43 187.78 79.3151 190.69 79.2202 193.094C79.196 193.708 79.1731 194.288 79.1507 194.83Z" fill="#172950"/>
<path d="M79.6122 182.056C71.2102 175.811 65.6857 174.783 55.2623 174.677L54.7661 182.056C63.9154 181.433 69.0871 182.841 78.4108 189.504L79.6122 182.056Z" fill="#777777"/>
<path fill-rule="evenodd" clip-rule="evenodd" d="M59.9051 150.889C58.5523 158.9 57.1698 167.087 55.2623 174.677C65.6857 174.783 71.2102 175.811 79.6122 182.056L79.9555 179.928C79.8187 181.533 79.7064 183.149 79.6122 184.727C80.7357 185.081 84.1382 185.818 88.76 185.937C88.5368 193.788 87.0393 212.63 82.8347 225.192C80.754 224.372 76.2135 222.886 74.697 223.504C71.6477 238.506 72.0932 242.753 77.5789 244.728H122.715L122.715 144.597H81.9375L81.9374 139.167H122.715L122.715 126.495L111.529 108.453L79.9555 120.266V108.453L70.6147 112.551C67.2379 117.684 65.001 124.876 63.2062 133.037L73.6347 135.247L72.4302 140.306L71.2257 145.365L61.2951 142.804C60.8222 145.458 60.3654 148.164 59.9051 150.889ZM78.4108 189.504C69.0871 182.841 63.9154 181.433 54.7661 182.056L51.9267 224.278C60.7774 223.621 65.0279 224.766 72.2788 227.518L78.4108 189.504Z" fill="#142344"/>
<path d="M61.2951 142.804L71.2257 145.365L72.4302 140.306L62.227 137.783C61.9064 139.431 61.5975 141.107 61.2951 142.804Z" fill="white"/>
<path d="M73.6347 135.247L63.2062 133.037C62.8655 134.586 62.5406 136.171 62.227 137.783L72.4302 140.306L73.6347 135.247Z" fill="#D81010"/>
<path d="M139.366 106.267V95.1167L169.759 108.453V120.266L138.186 108.453L139.366 106.267Z" fill="#172950"/>
<path d="M198.129 229.344C190.58 228.949 186.296 229.205 178.312 232.802L177.436 227.518C184.687 224.766 188.937 223.621 197.788 224.278L198.129 229.344Z" fill="#172950"/>
<path d="M167.777 144.517H127V139.167H167.777V144.517Z" fill="#777777"/>
<path d="M170.564 194.83C170.808 200.735 170.992 205.175 172.136 210.265C173.295 215.422 174.263 219.792 175.018 223.504C173.501 222.886 168.961 224.372 166.88 225.192C162.676 212.63 161.178 193.788 160.955 185.937C165.577 185.818 168.979 185.081 170.103 184.727C170.285 187.78 170.4 190.69 170.495 193.094C170.519 193.708 170.542 194.288 170.564 194.83Z" fill="#172950"/>
<path fill-rule="evenodd" clip-rule="evenodd" d="M189.81 150.889C191.162 158.9 192.545 167.087 194.452 174.677C184.029 174.783 178.505 175.811 170.103 182.056L169.759 179.928C169.896 181.533 170.008 183.149 170.103 184.727C168.979 185.081 165.577 185.818 160.955 185.937C161.178 193.788 162.676 212.63 166.88 225.192C168.961 224.372 173.501 222.886 175.018 223.504C178.067 238.506 177.622 242.753 172.136 244.728H127V144.517H167.777V139.167H127V129.174L138.186 108.453L169.759 120.266V108.453L179.1 112.551C184.798 121.213 187.251 135.736 189.81 150.889ZM171.304 189.504C180.628 182.841 185.799 181.433 194.949 182.056L197.788 224.278C188.937 223.621 184.687 224.766 177.436 227.518L171.304 189.504Z" fill="#142344"/>
<path d="M170.103 182.056C178.505 175.811 184.029 174.783 194.452 174.677L194.949 182.056C185.799 181.433 180.628 182.841 171.304 189.504L170.103 182.056Z" fill="#777777"/>
<path fill-rule="evenodd" clip-rule="evenodd" d="M105.315 99.023C105.012 111.233 103.717 114.653 100.739 122.513L100.652 122.742C101.406 122.516 102.134 122.305 102.838 122.102C107.817 120.664 111.571 119.579 114.235 115.849V121.728L124.979 128.621L114.235 106.524L112.881 93.7165L111.64 92.1704L105.315 99.023Z" fill="#172E61"/>
<path fill-rule="evenodd" clip-rule="evenodd" d="M144.602 99.023C144.905 111.233 146.2 114.653 149.178 122.513L149.265 122.742C148.511 122.516 147.783 122.305 147.079 122.102C142.1 120.664 138.346 119.579 135.682 115.849V121.728L121.897 134.094L135.682 106.524L136.981 94.188L138.622 92.5447L144.602 99.023Z" fill="#172E61"/>
<path fill-rule="evenodd" clip-rule="evenodd" d="M52.2364 230.805C52.8574 228.892 69.3712 231.159 69.1948 233.982C65.9319 232.009 55.4033 229.871 52.2889 231.226C52.2695 231.077 52.2519 230.936 52.2364 230.805Z" fill="#252525"/>
<path d="M69.1948 233.982C69.1284 235.044 67.9676 238.635 68.3058 242.403C68.5951 245.627 70.2095 246.773 71.614 249.839C71.667 253.903 68.2768 251.064 66.0173 250.568C63.9568 250.568 63.5399 253.146 63.404 256.833C63.1011 265.053 45.9826 267.898 50.5082 245.002C52.282 241.083 51.4328 234.411 52.2889 231.226C55.4033 229.871 65.9319 232.009 69.1948 233.982Z" fill="#FAB338"/>
<path d="M77.1636 260.821C79.3282 265.15 82.0991 272.036 81.5515 273.187C81.004 274.338 78.1457 275.093 76.0467 272.469C75.0026 271.164 73.0951 267.929 71.698 265.438C70.9634 264.128 68.8516 263.89 68.3972 265.321C68.1203 266.193 67.8246 267.459 67.4885 269.392C66.0246 277.809 66.2422 281.197 66.2422 285.003C66.2422 289.438 62.8359 290.439 61.3226 285.594C59.8093 280.749 60.1407 270.331 60.1407 270.331C59.9977 275.422 58.7644 285.594 58.3052 288.939C57.7514 292.975 52.4858 292.81 52.5804 288.939C51.2476 290.435 48.6344 290.352 47.8269 287.432C47.5977 286.604 47.5127 283.968 47.8269 280.929C47.0821 283.018 45.0135 282.933 44.6298 279.702C44.2462 276.471 45.0298 268.622 46.0968 263.955C47.5129 257.761 49.4457 247.35 50.5082 245.002C45.9826 267.898 63.1011 265.053 63.404 256.833C63.5399 253.146 63.9568 250.568 66.0173 250.568C68.2768 251.064 71.667 253.903 71.614 249.839C72.3608 251.47 76.4118 259.317 77.1636 260.821Z" fill="#252525"/>
<path d="M69.4998 253.384C64.2998 249.784 64.6665 237.884 65.4998 232.384L68.9998 233.384L67.9998 239.884C67.9998 242.884 68.4998 244.384 69.9998 246.884L75.9998 258.384L69.4998 253.384Z" fill="black" fill-opacity="0.25"/>
<path d="M47.3905 281.868C45.9715 283.188 47.1401 272.796 49.3935 269.388C48.6136 270.938 47.9507 277.671 47.5922 281.397C47.5754 281.571 47.5186 281.749 47.3905 281.868Z" fill="#101010"/>
<path d="M52.1049 289.403C50.8658 289.477 52.2874 277.925 54.1412 269.867C53.4427 275.143 52.5572 285.582 52.7105 287.075C52.8347 288.285 52.6371 288.884 52.4735 289.14C52.3916 289.268 52.2567 289.394 52.1049 289.403Z" fill="#101010"/>
<path d="M59.0285 282.549C57.8625 281.483 58.8671 275.483 59.7346 271.607C59.8866 270.928 60.1669 270.935 60.1355 271.63C60.0201 274.183 59.408 279.526 59.0285 282.549Z" fill="#101010"/>
<path d="M69.1948 233.982C69.3712 231.159 52.8574 228.892 52.2364 230.805C52.2519 230.936 52.2695 231.077 52.2889 231.226M69.1948 233.982C69.1284 235.044 67.9676 238.635 68.3058 242.403C68.5951 245.627 70.2095 246.773 71.614 249.839M69.1948 233.982C65.9319 232.009 55.4033 229.871 52.2889 231.226M52.5804 288.939C52.4858 292.81 57.7514 292.975 58.3052 288.939C58.7644 285.594 59.9977 275.422 60.1407 270.331C60.1407 270.331 59.8093 280.749 61.3226 285.594C62.8359 290.439 66.2422 289.438 66.2422 285.003C66.2422 281.197 66.0246 277.809 67.4885 269.392C67.8246 267.459 68.1203 266.193 68.3972 265.321C68.8516 263.89 70.9634 264.128 71.698 265.438C73.0951 267.929 75.0026 271.164 76.0467 272.469C78.1457 275.093 81.004 274.338 81.5515 273.187C82.0991 272.036 79.3282 265.15 77.1636 260.821C76.4118 259.317 72.3608 251.47 71.614 249.839M52.5804 288.939C52.734 282.646 53.5931 276.056 54.1727 269.785M52.5804 288.939C51.2476 290.435 48.6344 290.352 47.8269 287.432C47.5977 286.604 47.5127 283.968 47.8269 280.929M47.8269 280.929C47.0821 283.018 45.0135 282.933 44.6298 279.702C44.2462 276.471 45.0298 268.622 46.0968 263.955C47.5129 257.761 49.4457 247.35 50.5082 245.002M47.8269 280.929C48.1809 277.505 48.2757 272.41 49.4177 269.392M50.5082 245.002C52.282 241.083 51.4328 234.411 52.2889 231.226M50.5082 245.002C45.9826 267.898 63.1011 265.053 63.404 256.833C63.5399 253.146 63.9568 250.568 66.0173 250.568C68.2768 251.064 71.667 253.903 71.614 249.839" stroke="black" stroke-width="0.494195" stroke-linecap="round" stroke-linejoin="round"/>
<path d="M57.521 251.568C56.1301 251.39 54.9338 251.151 54.0716 250.944C53.461 250.798 52.8343 251.211 52.7674 251.836L52.63 253.119C52.5898 253.493 52.764 253.863 53.1099 254.012C54.2772 254.513 56.0612 254.786 57.3105 254.872C57.8139 254.907 58.2321 254.521 58.2792 254.019L58.4069 252.658C58.4577 252.116 58.0608 251.637 57.521 251.568Z" fill="#252525" stroke="black" stroke-width="0.494195"/>
<path fill-rule="evenodd" clip-rule="evenodd" d="M197.764 230.805C197.143 228.892 180.629 231.159 180.805 233.982C184.068 232.008 194.597 229.87 197.711 231.226C197.73 231.077 197.748 230.936 197.764 230.805Z" fill="#252525"/>
<path d="M180.805 233.982C180.872 235.044 182.032 238.635 181.694 242.403C181.405 245.626 179.79 246.772 178.386 249.839C178.333 253.903 181.723 251.063 183.983 250.567C186.043 250.568 186.46 253.145 186.596 256.833C186.899 265.052 204.017 267.897 199.492 245.002C197.718 241.083 198.567 234.411 197.711 231.226C194.597 229.87 184.068 232.008 180.805 233.982Z" fill="#FAB338"/>
<path d="M172.836 260.821C170.672 265.15 167.901 272.036 168.448 273.187C168.996 274.338 171.854 275.092 173.953 272.469C174.997 271.164 176.905 267.928 178.302 265.437C179.037 264.128 181.148 263.889 181.603 265.321C181.88 266.193 182.175 267.459 182.511 269.391C183.975 277.809 183.758 281.197 183.758 285.003C183.758 289.438 187.164 290.438 188.677 285.593C190.191 280.748 189.859 270.331 189.859 270.331C190.002 275.422 191.236 285.593 191.695 288.939C192.249 292.975 197.514 292.81 197.42 288.939C198.752 290.434 201.366 290.352 202.173 287.432C202.402 286.603 202.487 283.968 202.173 280.929C202.918 283.017 204.987 282.932 205.37 279.701C205.754 276.47 204.97 268.622 203.903 263.955C202.487 257.76 200.554 247.35 199.492 245.002C204.017 267.897 186.899 265.052 186.596 256.833C186.46 253.145 186.043 250.568 183.983 250.567C181.723 251.063 178.333 253.903 178.386 249.839C177.639 251.47 173.588 259.317 172.836 260.821Z" fill="#252525"/>
<path d="M180.5 253.384C185.7 249.784 185.334 237.884 184.5 232.384L181 233.384L182 239.884C182 242.884 181.5 244.384 180 246.884L174 258.384L180.5 253.384Z" fill="black" fill-opacity="0.25"/>
<path d="M202.609 281.868C204.028 283.188 202.86 272.796 200.607 269.388C201.386 270.938 202.049 277.671 202.408 281.397C202.425 281.571 202.481 281.749 202.609 281.868Z" fill="#101010"/>
<path d="M197.895 289.403C199.134 289.477 197.713 277.925 195.859 269.867C196.557 275.143 197.443 285.582 197.29 287.075C197.165 288.285 197.363 288.884 197.527 289.14C197.608 289.268 197.743 289.394 197.895 289.403Z" fill="#101010"/>
<path d="M190.971 282.549C192.137 281.483 191.133 275.483 190.265 271.607C190.113 270.928 189.833 270.935 189.865 271.63C189.98 274.183 190.592 279.526 190.971 282.549Z" fill="#101010"/>
<path d="M180.805 233.982C180.629 231.159 197.143 228.892 197.764 230.805C197.748 230.936 197.73 231.077 197.711 231.226M180.805 233.982C180.872 235.044 182.032 238.635 181.694 242.403C181.405 245.626 179.79 246.772 178.386 249.839M180.805 233.982C184.068 232.009 194.597 229.87 197.711 231.226M197.42 288.939C197.514 292.81 192.249 292.975 191.695 288.939C191.236 285.593 190.002 275.422 189.859 270.331C189.859 270.331 190.191 280.748 188.677 285.593C187.164 290.438 183.758 289.438 183.758 285.003C183.758 281.197 183.975 277.809 182.511 269.391C182.175 267.459 181.88 266.193 181.603 265.321C181.148 263.889 179.037 264.128 178.302 265.437C176.905 267.928 174.997 271.164 173.953 272.469C171.854 275.092 168.996 274.338 168.448 273.187C167.901 272.036 170.672 265.15 172.836 260.821C173.588 259.317 177.639 251.47 178.386 249.839M197.42 288.939C197.266 282.646 196.407 276.056 195.827 269.785M197.42 288.939C198.752 290.434 201.366 290.352 202.173 287.432C202.402 286.603 202.487 283.968 202.173 280.929M202.173 280.929C202.918 283.017 204.987 282.932 205.37 279.701C205.754 276.47 204.97 268.622 203.903 263.955C202.487 257.76 200.554 247.35 199.492 245.002M202.173 280.929C201.819 277.504 201.724 272.41 200.582 269.391M199.492 245.002C197.718 241.083 198.567 234.411 197.711 231.226M199.492 245.002C204.017 267.897 186.899 265.052 186.596 256.833C186.46 253.145 186.043 250.568 183.983 250.567C181.723 251.063 178.333 253.903 178.386 249.839" stroke="black" stroke-width="0.494195" stroke-linecap="round" stroke-linejoin="round"/>
<path d="M192.479 251.567C193.87 251.39 195.066 251.15 195.928 250.944C196.539 250.798 197.166 251.211 197.233 251.835L197.37 253.119C197.41 253.493 197.236 253.863 196.89 254.012C195.723 254.513 193.939 254.785 192.689 254.872C192.186 254.906 191.768 254.521 191.721 254.019L191.593 252.658C191.542 252.116 191.939 251.636 192.479 251.567Z" fill="#252525" stroke="black" stroke-width="0.494195"/>
<rect x="87.8101" y="147.557" width="28.7855" height="32.9435" rx="1" fill="#172950"/>
<rect x="87.1504" y="147.557" width="30" height="19.3005" rx="1" fill="#172E61"/>
<rect x="134.872" y="147.557" width="28.7855" height="32.9435" rx="1" fill="#172950"/>
<rect x="134.166" y="147.557" width="30" height="19.3005" rx="1" fill="#172E61"/>
<circle cx="102.15" cy="162.369" r="2.65875" fill="#142344"/>
<circle cx="149.5" cy="162.369" r="2.65875" fill="#142344"/>
<path opacity="0.2" d="M79.8789 179.895L82.2278 144.662C85.3353 146.061 83.959 169.067 83.959 176.34L83.959 176.467C83.9586 182.294 83.958 191.621 91.037 197.377C82.2278 194.428 79.8797 182.214 79.8789 179.895Z" fill="black"/>
<path opacity="0.2" d="M75.2472 174.968C76.9992 170.149 80.8819 149.826 81.0644 140.883L82.4256 165.285L71.3827 232.753L66.3041 231.399C69.1049 219.974 72.1676 197.524 72.1676 194.019C72.1676 189.639 73.0572 180.99 75.2472 174.968Z" fill="black"/>
<path d="M175.25 135.75C174.25 161.75 179.256 220.335 186.308 230.215L178.808 232.215L169.712 181.192L170.75 151.25L175.25 135.75Z" fill="black" fill-opacity="0.2"/>
<path d="M148.25 197.367C173.25 179.367 168.917 163.033 170.75 150.867V178.867C164.342 187.886 158.565 191.294 148.25 197.367Z" fill="black" fill-opacity="0.2"/>
<path d="M97.8187 36.4505C93.1368 43.3931 96.7207 56.8177 96.7207 56.8177C96.7207 56.8177 94.546 48.9574 93.1982 43.671C92.1969 39.7437 90.4931 37.7654 90.1178 33.7429C89.6536 28.7667 89.9687 25.6275 92.2355 21.1071C95.3149 14.9663 105.905 9.37391 105.905 9.37391C105.905 9.37391 117.923 4.50263 125.927 5.04165C132.047 5.45378 140.944 9.37391 140.944 9.37391L135.168 5.04165C135.168 5.04165 143.132 4.71547 146.527 7.5688C149.614 10.1641 150.57 16.7748 150.57 16.7748C150.57 16.7748 152.93 16.2154 154.228 16.7748C156.092 17.5785 156.73 22.7076 156.73 22.7076C156.73 22.7076 157.189 30.474 156.73 36.4505C155.984 46.1862 150.57 60.5 150.57 60.5C150.57 60.5 152.873 49.3525 150.57 42.4074C148.912 37.4098 144.024 30.4937 144.024 30.4937C144.024 30.4937 144.393 32.5221 144.024 33.7429C143.499 35.48 142.401 36.1735 140.944 37.3531C136.947 40.5868 127.66 39.6997 127.66 39.6997C127.66 39.6997 117.614 39.1245 112.065 36.4505C108.388 34.6781 103.594 30.4937 103.594 30.4937C103.594 30.4937 99.6107 33.7933 97.8187 36.4505Z" fill="#1C1C1C"/>
</svg>
