<svg width="250" height="520" viewBox="0 0 250 520" fill="none" xmlns="http://www.w3.org/2000/svg">
<path d="M112 112.617C113.2 109.017 113.167 96.45 113 90.6167L137.5 89.1167C137.1 98.7167 139.5 108.617 142 112.617C127.989 121.02 122.954 119.238 112 112.617Z" fill="#ECBCB2"/>
<path d="M112.5 111.117C122.1 117.517 133.167 99.1167 137.5 89.1167L113 91.1167C113.281 98.7603 113.341 103.081 112.5 111.117Z" fill="black" fill-opacity="0.1"/>
<path d="M125.722 95.1172C113.868 92.7799 107.046 89.8438 99.2218 77.1173L92.2218 39.6172C89.9309 26.1262 105.745 9.98374 123.222 9.61658C140.074 9.26254 158.649 24.1537 154.722 39.6172L148.222 75.6172C143.97 83.9108 134.722 94.6172 125.722 95.1172Z" fill="#F6CCBE"/>
<path d="M152.5 75.0324C151.3 75.8324 149 74.6991 148 74.0324L151 56.5324C166.5 45.5324 165 64.5324 162 65.5324C159 66.5324 154 74.0324 152.5 75.0324Z" fill="#F6CCBE"/>
<path d="M158.5 55.6166C153.3 55.2166 150.667 63.7832 150 68.1166C151.917 68.0078 152.147 69.0446 152 71.6166C154 71.6166 154.3 68.1166 157.5 66.1166C161.5 63.6166 165 56.1166 158.5 55.6166Z" fill="#F5BAA6"/>
<path d="M152 71.6166C152 69.1167 151.5 68.1167 150 68.1166C150.5 67.45 150.9 64.7167 152.5 65.1167C154.1 65.5167 155 71.1167 152 71.6166Z" fill="#F29D80"/>
<path d="M158.5 55.6167C154.325 57.6299 152.392 60.4512 152 65.6168L150 68.1168C150.491 65.3856 150.908 63.8498 152 61.1167C154.898 56.1008 156.22 55.7085 158.5 55.6167Z" fill="#F29D80"/>
<path d="M159.5 64.1165C159.239 60.6929 158.773 59.0041 155 58.1165C157.931 54.9158 160 55.6167 161.5 57.1167C163 58.6168 161.655 61.6412 159.5 64.1165Z" fill="black" fill-opacity="0.16"/>
<path d="M94.4346 75.0324C95.6346 75.8324 97.9346 74.6991 98.9346 74.0324L95.9346 56.5324C80.4346 45.5324 81.9346 64.5324 84.9346 65.5324C87.9346 66.5324 92.9346 74.0324 94.4346 75.0324Z" fill="#F6CCBE"/>
<path d="M88.4346 55.6166C93.6346 55.2166 96.2679 63.7832 96.9346 68.1166C95.0178 68.0078 94.788 69.0446 94.9346 71.6166C92.9346 71.6166 92.6346 68.1166 89.4346 66.1166C85.4346 63.6166 81.9346 56.1166 88.4346 55.6166Z" fill="#F5BAA6"/>
<path d="M94.9346 71.6166C94.9346 69.1167 95.4346 68.1167 96.9346 68.1166C96.4346 67.45 96.0346 64.7167 94.4346 65.1167C92.8346 65.5167 91.9346 71.1167 94.9346 71.6166Z" fill="#F29D80"/>
<path d="M88.4346 55.6167C92.6091 57.6299 94.543 60.4512 94.9346 65.6168L96.9346 68.1168C96.4433 65.3856 96.0266 63.8498 94.9346 61.1167C92.0361 56.1008 90.7149 55.7085 88.4346 55.6167Z" fill="#F29D80"/>
<path d="M87.4346 64.1165C87.696 60.6929 88.1614 59.0041 91.9346 58.1165C89.0037 54.9158 86.9346 55.6167 85.4346 57.1167C83.9346 58.6168 85.2792 61.6412 87.4346 64.1165Z" fill="black" fill-opacity="0.16"/>
<path d="M136.208 109.428C128.502 116.474 121.897 116.253 113.53 109.428V133.427C122.76 133.977 127.594 132.82 135 125.5L136.208 109.428Z" fill="white"/>
<path d="M112.5 125.5C110.1 127.9 103.833 127.5 101 127L114.5 118L125 133L112.5 127.5V125.5Z" fill="black" fill-opacity="0.2"/>
<path d="M137.5 125.5C139.9 127.9 146.667 127 149.5 126.5L135.5 118L126 133.5L137.5 127.5V125.5Z" fill="black" fill-opacity="0.2"/>
<mask id="mask0_253_495" style="mask-type:alpha" maskUnits="userSpaceOnUse" x="77" y="248" width="120" height="202">
<path d="M78.5257 248C79.1476 285.158 79.7343 361.244 77.1062 368.32L82.9185 372.111C81.4864 386.262 77.6565 415.137 77.1062 418.357C76.1655 423.86 81.787 431.152 81.7171 434.743C81.5996 440.79 94.1808 449.187 105.424 449.187C115.027 449.187 125.475 446.559 122.846 440.089C128.153 437.562 124.363 431.497 121.33 416.84C120.91 401.02 119.301 369.616 115.999 352.88L118.178 305.527C121.223 299.298 127.313 285.68 127.313 281.03C133.956 298.053 147.741 337.663 149.734 359.918C152.225 387.737 138.108 417.632 143.921 423.86C149.734 430.088 156.377 424.492 155.131 437.977C154.135 448.764 160.806 449.945 164.266 449.187H186.272C189.732 444.897 196.569 435.319 196.237 431.333C195.904 427.347 192.223 417.493 190.424 413.064C188.763 399.086 184.611 368.887 181.289 359.918L174.231 248H78.5257Z" fill="#201D13"/>
</mask>
<g mask="url(#mask0_253_495)">
<path d="M78.5257 248C79.1476 285.158 79.7343 361.244 77.1062 368.32L82.9185 372.111C81.4864 386.262 77.6565 415.137 77.1062 418.357C76.1655 423.86 81.787 431.152 81.7171 434.743C81.5996 440.79 94.1808 449.187 105.424 449.187C115.027 449.187 125.475 446.559 122.846 440.089C128.153 437.562 124.363 431.497 121.33 416.84C120.91 401.02 119.301 369.616 115.999 352.88L118.178 305.527C121.223 299.298 127.313 285.68 127.313 281.03C133.956 298.053 147.741 337.663 149.734 359.918C152.225 387.737 138.108 417.632 143.921 423.86C149.734 430.088 156.377 424.492 155.131 437.977C154.135 448.764 160.806 449.945 164.266 449.187H186.272C189.732 444.897 196.569 435.319 196.237 431.333C195.904 427.347 192.223 417.493 190.424 413.064C188.763 399.086 184.611 368.887 181.289 359.918L174.231 248H78.5257Z" fill="#201D13"/>
<path d="M174.5 252L78.5 257.5V247.5H174.5V252Z" fill="black" fill-opacity="0.3"/>
<path d="M84 362.5L79 277C79.5147 315.221 79.9186 336.872 77 368.5L83 372.5L82 382.5C88.5 367.5 98.5 385.667 98.5 391.5C98.8333 388 98.5 379.5 95.5 373C92.7972 367.144 87.5 363.333 84 362.5Z" fill="black" fill-opacity="0.3"/>
<path d="M85 419.5C82.6 417.5 82.6667 387.333 83 372.5L77 421C79.8 431 95.1667 428.5 102.5 426C97.6667 424.667 87.4 421.5 85 419.5Z" fill="black" fill-opacity="0.3"/>
<path d="M127.5 280.5C120.301 280.868 115 279.5 106.5 276C110.5 281 115.499 283.846 120.5 285C121.972 293.108 120.5 305.5 111.5 305.5C117.162 324.5 115.377 334.65 116 353C116.573 334.711 116.975 324.405 118.5 305.5C123.114 295.613 125.035 290.147 127.5 280.5Z" fill="black" fill-opacity="0.3"/>
<path d="M170 402.5C170.4 372.9 151.167 337.167 141.5 323C150.172 353.622 152.556 369.722 146.5 394C155.375 363.502 160.501 362.989 170 402.5Z" fill="black" fill-opacity="0.3"/>
<path d="M161.5 417.5C152.7 413.1 148.167 399.333 147 393L143 413C141.604 421.772 143.393 424.417 149 427C154.311 428.549 155.264 429.959 155 433C154.044 444 155.738 449.491 165 449C167.5 440.333 170.3 421.9 161.5 417.5Z" fill="black" fill-opacity="0.3"/>
<path d="M165 449L167.5 435C171.587 446.227 175.947 448.724 186 449H165Z" fill="black" fill-opacity="0.3"/>
<path d="M180 429.5C180.4 422.7 187.167 415.667 190.5 413C193.829 423.55 194.83 426.372 196.5 431C189.306 415.621 185.803 417.446 180 429.5Z" fill="black" fill-opacity="0.3"/>
<path d="M141 301.5L127.5 280.5L142 324.5C150.457 303.212 147.452 291.116 140 269.5C143.5 282 146 293.5 141 301.5Z" fill="black" fill-opacity="0.3"/>
<path d="M152.394 295.998C153.891 310.482 161.524 342.817 180.079 356.281C176.5 339.5 159.5 346 152.394 295.998Z" fill="black" fill-opacity="0.3"/>
<path d="M115.5 341C116.5 356.5 117 359 101.98 373.206C107.5 358.5 116 366.5 115.5 341Z" fill="black" fill-opacity="0.3"/>
</g>
<path d="M52.6334 515.024C51.844 513.709 51.8659 509.432 51.9755 507.459L123.355 492.328C123.575 494.411 123.947 498.906 123.684 500.222C123.421 501.538 120.504 501.867 119.079 501.867C111.185 501.867 103.948 508.007 101.316 511.077L100.001 506.801L99.6716 512.064L94.0797 516.011C79.2774 524.564 53.6202 516.669 52.6334 515.024Z" fill="#FAB338"/>
<path d="M51.2659 506.801C46.7963 494.669 53.195 486.765 86.4623 469.96V444.961C86.4623 443.316 86.8431 442 88.4878 442H121.053C123.303 442 123.303 443.316 123.303 444.961V469.96V492.986C123.303 497.262 117.054 495.811 110.475 498.249C103.047 501 99.2883 503.432 93.0411 508.775C86.4624 514.401 53.6895 513.38 51.2659 506.801Z" fill="#252525"/>
<path d="M86.1851 449.895H123.355V454.5H86.1851V449.895Z" fill="#FAB338"/>
<rect x="83.5537" y="442" width="41.4463" height="7.89453" rx="1.97363" fill="#291F1F"/>
<path d="M86.8433 469.186C89.4748 467.212 97.6982 466.883 101.317 469.186" stroke="#ADADAD" stroke-width="1.97363" stroke-linecap="round"/>
<path d="M86.8433 464.29C89.4748 462.317 97.6982 461.988 101.317 464.29" stroke="#ADADAD" stroke-width="1.97363" stroke-linecap="round"/>
<path d="M86.8433 459.395C89.4748 457.422 97.6982 457.093 101.317 459.395" stroke="#ADADAD" stroke-width="1.97363" stroke-linecap="round"/>
<path d="M113.816 461.509C113.816 459.693 115.611 458.423 117.323 459.027L123.244 461.117C124.296 461.488 125 462.483 125 463.598V481.861C125 483.002 124.264 484.013 123.178 484.365L117.257 486.28C115.558 486.83 113.816 485.563 113.816 483.777V461.509Z" fill="#ADADAD"/>
<path d="M97.0402 505.485C98.6191 481.802 79.0582 478.293 69.0804 479.499C51.8605 489.51 47.0415 496.933 51.6467 507.459C55.9229 512.722 89.1457 516.669 97.0402 505.485Z" fill="#474747"/>
<path d="M225.367 515.024C226.156 513.709 226.134 509.432 226.024 507.459L154.645 492.328C154.425 494.411 154.053 498.906 154.316 500.222C154.579 501.538 157.496 501.867 158.921 501.867C166.815 501.867 174.052 508.007 176.684 511.077L177.999 506.801L178.328 512.064L183.92 516.011C198.723 524.564 224.38 516.669 225.367 515.024Z" fill="#FAB338"/>
<path d="M226.734 506.801C231.204 494.669 224.805 486.765 191.538 469.96V444.961C191.538 443.316 191.157 442 189.512 442H156.947C154.697 442 154.697 443.316 154.697 444.961V469.96V492.986C154.697 497.262 160.946 495.811 167.525 498.249C174.953 501 178.712 503.432 184.959 508.775C191.538 514.401 224.31 513.38 226.734 506.801Z" fill="#252525"/>
<path d="M191.815 449.895H154.645V454.5H191.815V449.895Z" fill="#FAB338"/>
<rect width="41.4463" height="7.89453" rx="1.97363" transform="matrix(-1 0 0 1 194.446 442)" fill="#291F1F"/>
<path d="M191.157 469.186C188.525 467.212 180.302 466.883 176.683 469.186" stroke="#ADADAD" stroke-width="1.97363" stroke-linecap="round"/>
<path d="M191.157 464.29C188.525 462.317 180.302 461.988 176.683 464.29" stroke="#ADADAD" stroke-width="1.97363" stroke-linecap="round"/>
<path d="M191.157 459.395C188.525 457.422 180.302 457.093 176.683 459.395" stroke="#ADADAD" stroke-width="1.97363" stroke-linecap="round"/>
<path d="M164.184 461.509C164.184 459.693 162.389 458.423 160.677 459.027L154.756 461.117C153.704 461.488 153 462.483 153 463.598V481.861C153 483.002 153.736 484.013 154.822 484.365L160.743 486.28C162.442 486.83 164.184 485.563 164.184 483.777V461.509Z" fill="#ADADAD"/>
<path d="M180.96 505.485C179.381 481.802 198.942 478.293 208.92 479.499C226.14 489.51 230.958 496.933 226.353 507.459C222.077 512.722 188.854 516.669 180.96 505.485Z" fill="#474747"/>
<path fill-rule="evenodd" clip-rule="evenodd" d="M79 182.26C78.8333 187.26 78.0048 198.915 76.4048 200.915L75.5284 207.551C74.5708 212.183 73.8172 216.189 73.1393 219.794C71.2317 229.937 69.9229 236.895 66.3507 245.652C66.4084 247.85 66.9633 249.545 68.2779 251.291C74.3568 260.269 77.6599 265.314 80.5062 274.627C80.5062 276.814 76.3704 276.376 74.0177 273.168L70.2743 267.82C68.777 265.876 66.0318 268.793 66.0318 271.953C65.5945 284.521 64.7702 288.222 62.538 290.427C60.8899 290.247 60.3317 288.968 60.292 283.621C60.3312 280.361 60.0408 278.72 59.0442 276.085C58.0539 289.248 57.0969 292.78 54.0531 293.83C51.5115 293.605 51.9648 289.004 52.6402 282.15C52.6943 281.601 52.7498 281.037 52.8053 280.46C52.6885 281.014 52.576 281.552 52.4669 282.074C51.1896 288.187 50.3775 292.072 48.5628 291.399C46.8448 290.813 46.2086 289.943 47.8142 283.864L48.8125 277.544C48.5995 278.207 48.404 278.83 48.2235 279.405C47.4631 281.825 46.9698 283.396 46.5664 283.621C44.8195 284.593 43.3222 283.134 44.3204 278.516C46.6583 271.257 47.8493 267.2 49.3116 260.042L49.8107 252.263L51.0691 240.582C51.4246 226.159 51.9024 217.225 54.5 202C54.5 196.833 54.9 184.2 56.5 175L79 182.26Z" fill="#ECBCB2"/>
<path fill-rule="evenodd" clip-rule="evenodd" d="M171.311 183.344C171.478 188.344 172.211 198.844 173.811 200.844L175.311 206.844C176.594 213.048 177.411 218.212 178.141 222.818C179.488 231.327 180.533 237.928 183.649 245.648C183.592 247.848 183.038 249.544 181.722 251.291C175.643 260.269 172.34 265.314 169.494 274.627C169.494 276.814 173.63 276.376 175.982 273.168L179.726 267.82C181.223 265.876 183.968 268.793 183.968 271.953C184.405 284.521 185.23 288.222 187.462 290.427C189.11 290.247 189.668 288.968 189.708 283.621C189.669 280.361 189.959 278.72 190.956 276.085C191.946 289.248 192.903 292.78 195.947 293.83C198.488 293.605 198.035 289.004 197.36 282.15C197.306 281.601 197.25 281.037 197.195 280.46C197.312 281.014 197.424 281.552 197.533 282.074C198.81 288.187 199.622 292.072 201.437 291.399C203.155 290.813 203.791 289.943 202.186 283.864L201.188 277.544C201.4 278.207 201.596 278.83 201.777 279.405C202.537 281.825 203.03 283.396 203.434 283.621C205.18 284.593 206.678 283.134 205.68 278.516C203.342 271.257 202.151 267.2 200.688 260.042L200.189 252.263L198.931 240.583C198.575 226.159 198.098 217.225 195.5 202C195.5 196.833 195.1 184.2 193.5 175L171.311 183.344Z" fill="#ECBCB2"/>
<path fill-rule="evenodd" clip-rule="evenodd" d="M52.2364 234.805C52.8574 232.892 69.3712 235.159 69.1948 237.982C65.9319 236.008 55.4033 233.87 52.2889 235.226C52.2695 235.077 52.2519 234.936 52.2364 234.805Z" fill="#252525"/>
<path d="M69.1948 237.982C69.1284 239.044 67.9676 242.635 68.3058 246.403C68.5951 249.626 70.2095 250.772 71.614 253.839C71.667 257.903 68.2768 255.063 66.0173 254.567C63.9568 254.568 63.5399 257.145 63.404 260.833C63.1011 269.052 45.9826 271.897 50.5082 249.002C52.282 245.083 51.4328 238.411 52.2889 235.226C55.4033 233.87 65.9319 236.008 69.1948 237.982Z" fill="#FAB338"/>
<path d="M77.1636 264.821C79.3282 269.15 82.0991 276.036 81.5515 277.187C81.004 278.338 78.1457 279.092 76.0467 276.469C75.0026 275.164 73.0951 271.928 71.698 269.437C70.9634 268.128 68.8516 267.889 68.3972 269.321C68.1203 270.193 67.8246 271.459 67.4885 273.391C66.0246 281.809 66.2422 285.197 66.2422 289.003C66.2422 293.438 62.8359 294.438 61.3226 289.593C59.8093 284.748 60.1407 274.331 60.1407 274.331C59.9977 279.422 58.7644 289.593 58.3052 292.939C57.7514 296.975 52.4858 296.81 52.5804 292.939C51.2476 294.434 48.6344 294.352 47.8269 291.432C47.5977 290.603 47.5127 287.968 47.8269 284.929C47.0821 287.017 45.0135 286.932 44.6298 283.701C44.2462 280.47 45.0298 272.622 46.0968 267.955C47.5129 261.76 49.4457 251.35 50.5082 249.002C45.9826 271.897 63.1011 269.052 63.404 260.833C63.5399 257.145 63.9568 254.568 66.0173 254.567C68.2768 255.063 71.667 257.903 71.614 253.839C72.3608 255.47 76.4118 263.317 77.1636 264.821Z" fill="#252525"/>
<path d="M69.4998 257.384C64.2998 253.784 64.6665 241.884 65.4998 236.384L68.9998 237.384L67.9998 243.884C67.9998 246.884 68.4998 248.384 69.9998 250.884L75.9998 262.384L69.4998 257.384Z" fill="black" fill-opacity="0.25"/>
<path d="M47.3905 285.868C45.9715 287.188 47.1401 276.796 49.3935 273.388C48.6136 274.938 47.9507 281.671 47.5922 285.397C47.5754 285.571 47.5186 285.749 47.3905 285.868Z" fill="#101010"/>
<path d="M52.1049 293.403C50.8658 293.477 52.2874 281.925 54.1412 273.867C53.4427 279.143 52.5572 289.582 52.7105 291.075C52.8347 292.285 52.6371 292.884 52.4735 293.14C52.3916 293.268 52.2567 293.394 52.1049 293.403Z" fill="#101010"/>
<path d="M59.0285 286.549C57.8625 285.483 58.8671 279.483 59.7346 275.607C59.8866 274.928 60.1669 274.935 60.1355 275.63C60.0201 278.183 59.408 283.526 59.0285 286.549Z" fill="#101010"/>
<path d="M69.1948 237.982C69.3712 235.159 52.8574 232.892 52.2364 234.805C52.2519 234.936 52.2695 235.077 52.2889 235.226M69.1948 237.982C69.1284 239.044 67.9676 242.635 68.3058 246.403C68.5951 249.626 70.2095 250.772 71.614 253.839M69.1948 237.982C65.9319 236.009 55.4033 233.87 52.2889 235.226M52.5804 292.939C52.4858 296.81 57.7514 296.975 58.3052 292.939C58.7644 289.593 59.9977 279.422 60.1407 274.331C60.1407 274.331 59.8093 284.748 61.3226 289.593C62.8359 294.438 66.2422 293.438 66.2422 289.003C66.2422 285.197 66.0246 281.809 67.4885 273.391C67.8246 271.459 68.1203 270.193 68.3972 269.321C68.8516 267.889 70.9634 268.128 71.698 269.437C73.0951 271.928 75.0026 275.164 76.0467 276.469C78.1457 279.092 81.004 278.338 81.5515 277.187C82.0991 276.036 79.3282 269.15 77.1636 264.821C76.4118 263.317 72.3608 255.47 71.614 253.839M52.5804 292.939C52.734 286.646 53.5931 280.056 54.1727 273.785M52.5804 292.939C51.2476 294.434 48.6344 294.352 47.8269 291.432C47.5977 290.603 47.5127 287.968 47.8269 284.929M47.8269 284.929C47.0821 287.017 45.0135 286.932 44.6298 283.701C44.2462 280.47 45.0298 272.622 46.0968 267.955C47.5129 261.76 49.4457 251.35 50.5082 249.002M47.8269 284.929C48.1809 281.504 48.2757 276.41 49.4177 273.391M50.5082 249.002C52.282 245.083 51.4328 238.411 52.2889 235.226M50.5082 249.002C45.9826 271.897 63.1011 269.052 63.404 260.833C63.5399 257.145 63.9568 254.568 66.0173 254.567C68.2768 255.063 71.667 257.903 71.614 253.839" stroke="black" stroke-width="0.494195" stroke-linecap="round" stroke-linejoin="round"/>
<path d="M57.521 255.567C56.1301 255.39 54.9338 255.15 54.0716 254.944C53.461 254.798 52.8343 255.211 52.7674 255.835L52.63 257.119C52.5898 257.493 52.764 257.863 53.1099 258.012C54.2772 258.513 56.0612 258.785 57.3105 258.872C57.8139 258.906 58.2321 258.521 58.2792 258.019L58.4069 256.658C58.4577 256.116 58.0608 255.636 57.521 255.567Z" fill="#252525" stroke="black" stroke-width="0.494195"/>
<path fill-rule="evenodd" clip-rule="evenodd" d="M197.764 234.805C197.143 232.892 180.629 235.159 180.805 237.982C184.068 236.008 194.597 233.87 197.711 235.226C197.73 235.077 197.748 234.936 197.764 234.805Z" fill="#252525"/>
<path d="M180.805 237.982C180.872 239.044 182.032 242.635 181.694 246.403C181.405 249.626 179.79 250.772 178.386 253.839C178.333 257.903 181.723 255.063 183.983 254.567C186.043 254.568 186.46 257.145 186.596 260.833C186.899 269.052 204.017 271.897 199.492 249.002C197.718 245.083 198.567 238.411 197.711 235.226C194.597 233.87 184.068 236.008 180.805 237.982Z" fill="#FAB338"/>
<path d="M172.836 264.821C170.672 269.15 167.901 276.036 168.448 277.187C168.996 278.338 171.854 279.092 173.953 276.469C174.997 275.164 176.905 271.928 178.302 269.437C179.037 268.128 181.148 267.889 181.603 269.321C181.88 270.193 182.175 271.459 182.511 273.391C183.975 281.809 183.758 285.197 183.758 289.003C183.758 293.438 187.164 294.438 188.677 289.593C190.191 284.748 189.859 274.331 189.859 274.331C190.002 279.422 191.236 289.593 191.695 292.939C192.249 296.975 197.514 296.81 197.42 292.939C198.752 294.434 201.366 294.352 202.173 291.432C202.402 290.603 202.487 287.968 202.173 284.929C202.918 287.017 204.987 286.932 205.37 283.701C205.754 280.47 204.97 272.622 203.903 267.955C202.487 261.76 200.554 251.35 199.492 249.002C204.017 271.897 186.899 269.052 186.596 260.833C186.46 257.145 186.043 254.568 183.983 254.567C181.723 255.063 178.333 257.903 178.386 253.839C177.639 255.47 173.588 263.317 172.836 264.821Z" fill="#252525"/>
<path d="M180.5 257.384C185.7 253.784 185.334 241.884 184.5 236.384L181 237.384L182 243.884C182 246.884 181.5 248.384 180 250.884L174 262.384L180.5 257.384Z" fill="black" fill-opacity="0.25"/>
<path d="M202.609 285.868C204.028 287.188 202.86 276.796 200.607 273.388C201.386 274.938 202.049 281.671 202.408 285.397C202.425 285.571 202.481 285.749 202.609 285.868Z" fill="#101010"/>
<path d="M197.895 293.403C199.134 293.477 197.713 281.925 195.859 273.867C196.557 279.143 197.443 289.582 197.29 291.075C197.165 292.285 197.363 292.884 197.527 293.14C197.608 293.268 197.743 293.394 197.895 293.403Z" fill="#101010"/>
<path d="M190.971 286.549C192.137 285.483 191.133 279.483 190.265 275.607C190.113 274.928 189.833 274.935 189.865 275.63C189.98 278.183 190.592 283.526 190.971 286.549Z" fill="#101010"/>
<path d="M180.805 237.982C180.629 235.159 197.143 232.892 197.764 234.805C197.748 234.936 197.73 235.077 197.711 235.226M180.805 237.982C180.872 239.044 182.032 242.635 181.694 246.403C181.405 249.626 179.79 250.772 178.386 253.839M180.805 237.982C184.068 236.009 194.597 233.87 197.711 235.226M197.42 292.939C197.514 296.81 192.249 296.975 191.695 292.939C191.236 289.593 190.002 279.422 189.859 274.331C189.859 274.331 190.191 284.748 188.677 289.593C187.164 294.438 183.758 293.438 183.758 289.003C183.758 285.197 183.975 281.809 182.511 273.391C182.175 271.459 181.88 270.193 181.603 269.321C181.148 267.889 179.037 268.128 178.302 269.437C176.905 271.928 174.997 275.164 173.953 276.469C171.854 279.092 168.996 278.338 168.448 277.187C167.901 276.036 170.672 269.15 172.836 264.821C173.588 263.317 177.639 255.47 178.386 253.839M197.42 292.939C197.266 286.646 196.407 280.056 195.827 273.785M197.42 292.939C198.752 294.434 201.366 294.352 202.173 291.432C202.402 290.603 202.487 287.968 202.173 284.929M202.173 284.929C202.918 287.017 204.987 286.932 205.37 283.701C205.754 280.47 204.97 272.622 203.903 267.955C202.487 261.76 200.554 251.35 199.492 249.002M202.173 284.929C201.819 281.504 201.724 276.41 200.582 273.391M199.492 249.002C197.718 245.083 198.567 238.411 197.711 235.226M199.492 249.002C204.017 271.897 186.899 269.052 186.596 260.833C186.46 257.145 186.043 254.568 183.983 254.567C181.723 255.063 178.333 257.903 178.386 253.839" stroke="black" stroke-width="0.494195" stroke-linecap="round" stroke-linejoin="round"/>
<path d="M192.479 255.567C193.87 255.39 195.066 255.15 195.928 254.944C196.539 254.798 197.166 255.211 197.233 255.835L197.37 257.119C197.41 257.493 197.236 257.863 196.89 258.012C195.723 258.513 193.939 258.785 192.689 258.872C192.186 258.906 191.768 258.521 191.721 258.019L191.593 256.658C191.542 256.116 191.939 255.636 192.479 255.567Z" fill="#252525" stroke="black" stroke-width="0.494195"/>
<path d="M95.8162 41.0507C94.8077 44.8467 95.8162 57 95.8162 57C95.8162 57 88.6657 44.6449 88.0001 39.2085C87.2976 33.4698 89.094 28.0048 91.0455 22.562C92.2429 19.2226 93.1326 17.1524 95.8162 14.8296C99.5726 11.5782 108.045 11.3057 108.045 11.3057C108.045 11.3057 116.416 4.35295 122.937 3.2136C129.985 1.98226 140.965 6.47652 140.965 6.47652L137.177 7.52066C137.177 7.52066 147.882 10.1883 152.723 14.8296C158.611 20.4749 161 34.0003 161 34.0003L157.589 29.813C157.589 29.813 158.707 40.5716 157.589 47.3144C156.39 54.5429 151.319 65 151.319 65C151.319 65 151.791 53.4251 148.369 47.3144C145.709 42.5637 138.596 37.3662 138.596 37.3662L140.071 41.0507C140.071 41.0507 127.111 38.3349 120.156 33.866C114.202 30.0398 107.064 21.3386 107.064 21.3386C107.064 21.3386 104.925 27.6641 103.008 31.471C101.425 34.6122 98.3977 39.2085 98.3977 39.2085V33.866C98.3977 33.866 96.5816 38.1694 95.8162 41.0507Z" fill="#693F17"/>
<path d="M115.387 102.781C117.545 108.351 120.233 112.76 125.457 119.301C132.688 110.856 135.138 105.657 137.947 94.6279L141.238 96.2732L142.031 98.9818L178.787 115.635L185.319 134.426C185.18 135.196 186.62 141.287 186.441 142.272C187.415 145.056 187.71 146.626 188.297 149.364L190.422 156.569L194.336 176.805L196.141 191.482C196.141 191.482 197.234 206.006 198.577 217.056L201.273 223.176L200.122 227.331L203.228 229.286L201.273 237.107V245.264L182.147 246.912L180.498 239.307L177.565 234.419L178.787 229.286L176.343 227.331V223.176L171.765 202.04L170.609 198.88L169.393 190.102L166.16 161.424L170.389 212.923L168.923 216.647L172.921 223.176L171.765 229.286C173.169 233.065 175.843 241.269 175.306 243.858C174.768 246.447 171.804 247.624 170.389 247.889H127.315H123.632H80.2276C78.8125 247.624 75.6431 244.596 75.1056 242.007C74.5681 239.418 77.4467 233.065 78.8509 229.286L77.6947 223.176L81.6932 216.647L80.2276 212.923L84.4562 161.424L80.6522 194.761L79.7646 198.813C79.7643 198.816 79.7638 198.819 79.7629 198.821L74.2729 223.176V227.331L71.8288 229.286L73.0509 234.419L70.118 239.307V247.094L49.343 245.264V237.107L47.3877 229.286L50.494 227.331L49.343 223.176L52.0389 217.056C53.3819 206.006 54.4757 191.482 54.4757 191.482L56.2802 176.805L60.1942 156.569L62.3195 149.364C62.906 146.626 63.8777 145.224 64.8515 142.44C64.673 141.454 65.4359 135.196 65.2977 134.426L71.8288 115.635L108.585 98.9818L109.539 96.2732L112.72 94.6279L115.387 102.781Z" fill="white"/>
<path d="M159.447 217.412L170.451 213.062L168.916 216.581L159.447 217.412Z" fill="#E9E9E9"/>
<path d="M104.401 120.974C104.519 120.235 104.622 119.18 104.835 118.754L117.614 110.319L121.644 114.506L121.465 115.576L117.614 113.702L104.401 120.974Z" fill="#C6C6C6"/>
<path d="M147.348 121.606C147.229 120.867 147.127 119.812 146.914 119.386L134.135 110.951L130.105 115.138L130.283 116.208L134.135 114.334L147.348 121.606Z" fill="#C6C6C6"/>
<rect x="139.679" y="144.003" width="20.1149" height="24.6521" rx="2" fill="white" stroke="#C6C6C6" stroke-width="0.4"/>
<g style="mix-blend-mode:plus-darker">
<path d="M58.5644 227.549H74.4286L71.6269 229.227L72.1372 230.928C66.3981 229.802 55.6488 227.549 58.5644 227.549Z" fill="#E9E9E9"/>
</g>
<g style="mix-blend-mode:plus-darker">
<path d="M103.043 218.232C96.3086 217.407 86.1662 214.223 80.2676 212.734L81.6913 216.673L80.8209 218.232C82.2091 217.826 111.462 219.263 103.043 218.232Z" fill="#E9E9E9"/>
</g>
<g style="mix-blend-mode:plus-darker">
<path d="M88.7967 226.411L77.8101 223.395L78.959 229.212L88.7967 226.411Z" fill="#E9E9E9"/>
</g>
<g style="mix-blend-mode:plus-darker">
<path d="M73.1448 149.485C83.3946 154.411 78.2999 148.541 64.456 139.356C64.5041 141.668 65.6507 142.929 64.456 144.867C64.1598 145.072 64.945 145.545 73.1448 149.485Z" fill="#E9E9E9"/>
</g>
<g style="mix-blend-mode:plus-darker">
<path d="M180.203 152.174C170.609 155.153 174.775 151.287 187.733 145.731C186.944 147.37 187.733 148.766 188.304 149.209C188.675 150.102 187.878 149.791 180.203 152.174Z" fill="#E9E9E9"/>
</g>
<g style="mix-blend-mode:plus-darker">
<path d="M70.0508 154.786C70.498 154.538 65.5657 149.658 63.2055 147.173C63.5964 148.854 63.3596 149.6 62.9702 150.377C65.1441 151.95 69.6036 155.035 70.0508 154.786Z" fill="#E9E9E9"/>
</g>
<g style="mix-blend-mode:plus-darker">
<path d="M183.034 161.003C182.587 160.754 186.79 155.953 189.15 153.469C189.15 154.882 189.725 155.817 190.114 156.593C187.94 158.166 183.481 161.251 183.034 161.003Z" fill="#E9E9E9"/>
</g>
<g style="mix-blend-mode:plus-darker">
<path d="M150.811 228.638C158.112 226.905 172.8 223.438 173.141 223.438L171.607 229.405L150.811 228.638Z" fill="#E9E9E9"/>
</g>
<path d="M182.677 230.607C187.462 229.012 199.726 224.412 201.337 223.244L200.249 227.534L182.677 230.607Z" fill="#E9E9E9"/>
<path d="M185.81 226.386C184.167 226.676 178.923 227.272 176.506 227.534L178.863 229.527L185.81 226.386Z" fill="#E9E9E9"/>
<path d="M198.78 237.528C193.222 237.673 179.104 235.005 177.594 234.663L180.675 239.375L198.78 237.528Z" fill="#E9E9E9"/>
<path d="M112.72 94.6279C115.694 104.935 117.972 109.928 125.457 119.301M112.72 94.6279L109.539 96.2732L108.585 98.9818M112.72 94.6279L117.834 110.261M125.457 119.301L117.834 110.261M125.457 119.301C132.688 110.856 135.138 105.657 137.947 94.6279M125.457 119.301L134.194 110.819M125.457 119.301V204.483L127.315 207.879L125.457 212.923L127.315 221.18V229.286L128.73 239.307L127.315 247.889M117.834 110.261L104.091 119.301L108.585 98.9818M108.585 98.9818L71.8288 115.635L65.2977 134.426C63.7526 139.239 64.3269 139.494 64.8515 142.44C65.2977 144.945 63.792 144.162 63.2054 146.9C63.2054 148.19 63.7722 148.933 62.6973 150.535L60.1942 156.569L56.2802 176.805L54.4757 191.482C54.4757 191.482 53.3819 206.006 52.0389 217.056L49.343 223.176L50.494 227.331L47.3877 229.286L49.343 237.107M49.343 237.107L70.118 239.307M49.343 237.107V245.264L70.118 247.094V239.307M70.118 239.307L73.0509 234.419L71.8288 229.286L74.2729 227.331V223.176L79.6938 199.234L80.7321 194.681L84.4562 161.424M86.0047 149.364L84.4562 161.424M84.4562 161.424L80.2276 212.923L81.6932 216.647L77.6947 223.176L78.8509 229.286C77.4467 233.065 74.5681 239.418 75.1056 242.007C75.6431 244.596 78.8125 247.624 80.2276 247.889H123.632H127.315M137.947 94.6279L141.238 96.2732L142.031 98.9818M137.947 94.6279L134.194 110.819M134.194 110.819L146.525 119.301L142.031 98.9818M142.031 98.9818L178.787 115.635L185.319 134.426C185.18 135.196 188.297 143.601 187.803 145.495C186.311 146.815 186.712 149.053 188.297 149.364C190.573 150.049 187.803 154.172 190.422 156.569L194.336 176.805L196.141 191.482C196.141 191.482 197.234 206.006 198.577 217.056L201.273 223.176L200.122 227.331L203.228 229.286L201.273 237.107M201.273 237.107L180.498 239.307M201.273 237.107V245.264L182.147 246.912L180.498 239.307M180.498 239.307L177.565 234.419L178.787 229.286L176.343 227.331V223.176L171.765 202.04L170.609 198.88L169.393 190.102L166.16 161.424M164.611 149.364L166.16 161.424M166.16 161.424L170.389 212.923L168.923 216.647L172.921 223.176L171.765 229.286C173.169 233.065 175.843 241.269 175.306 243.858C174.768 246.447 171.804 247.624 170.389 247.889H127.315" stroke="#C6C6C6" stroke-width="0.4" stroke-linecap="round" stroke-linejoin="round"/>
<path d="M121.783 116.452C120.881 115.203 121.671 113.445 123.204 113.291L125.351 113.076C125.473 113.063 125.597 113.062 125.719 113.073L128.88 113.34C130.43 113.471 131.244 115.243 130.333 116.504L128.134 119.548L127.698 120.152C126.9 121.257 125.254 121.257 124.456 120.152L123.916 119.405L121.783 116.452Z" fill="#212121"/>
<path d="M128.134 119.548L127.698 120.152C126.9 121.257 125.254 121.257 124.456 120.152L123.916 119.405L113.09 196.799C113.006 197.398 113.198 198.002 113.611 198.443L124.667 210.249C125.438 211.073 126.738 211.095 127.538 210.298L139.416 198.462C139.869 198.012 140.078 197.373 139.982 196.742L128.134 119.548Z" fill="#212121"/>
<path d="M128.134 119.548L130.333 116.504C131.244 115.243 130.43 113.471 128.88 113.34L125.719 113.073C125.597 113.062 125.473 113.063 125.351 113.076L123.204 113.291C121.671 113.445 120.881 115.203 121.783 116.452L123.916 119.405M128.134 119.548L127.698 120.152C126.9 121.257 125.254 121.257 124.456 120.152L123.916 119.405M128.134 119.548L139.982 196.742C140.078 197.373 139.869 198.012 139.416 198.462L127.538 210.298C126.738 211.095 125.438 211.073 124.667 210.249L113.611 198.443C113.198 198.002 113.006 197.398 113.09 196.799L123.916 119.405" stroke="black"/>
<path d="M84.0026 201.289L86.0731 149.94L80.4008 206.704L84.0026 201.289Z" fill="#E9E9E9"/>
<path d="M166.985 201.289L164.914 149.94L170.586 206.704L166.985 201.289Z" fill="#E9E9E9"/>
</svg>
