<svg width="250" height="520" viewBox="0 0 250 520" fill="none" xmlns="http://www.w3.org/2000/svg">
<path d="M101 112.617C102.2 109.017 102.167 96.45 102 90.6167L126.5 89.1167C126.1 98.7167 128.5 108.617 131 112.617C116.989 121.02 111.954 119.238 101 112.617Z" fill="#E8A690"/>
<path d="M101.5 111.117C111.1 117.517 122.167 99.1167 126.5 89.1167L102 91.1167C102.281 98.7603 102.341 103.081 101.5 111.117Z" fill="black" fill-opacity="0.1"/>
<path d="M114.722 95.1172C102.868 92.7799 96.046 89.8438 88.2218 77.1173L81.2218 39.6172C78.9309 26.1262 94.7446 9.98374 112.222 9.61658C129.074 9.26254 147.649 24.1537 143.722 39.6172L137.222 75.6172C132.97 83.9108 123.722 94.6172 114.722 95.1172Z" fill="#E8A690"/>
<path d="M141.5 75.0324C140.3 75.8324 138 74.6991 137 74.0324L140 56.5324C155.5 45.5324 154 64.5324 151 65.5324C148 66.5324 143 74.0324 141.5 75.0324Z" fill="#E8A690"/>
<path d="M147.5 55.6166C142.3 55.2166 139.667 63.7832 139 68.1166C140.917 68.0078 141.147 69.0446 141 71.6166C143 71.6166 143.3 68.1166 146.5 66.1166C150.5 63.6166 154 56.1166 147.5 55.6166Z" fill="#F5BAA6"/>
<path d="M141 71.6166C141 69.1167 140.5 68.1167 139 68.1166C139.5 67.45 139.9 64.7167 141.5 65.1167C143.1 65.5167 144 71.1167 141 71.6166Z" fill="#C17054"/>
<path d="M147.5 55.6167C143.325 57.6299 141.392 60.4512 141 65.6168L139 68.1168C139.491 65.3856 139.908 63.8498 141 61.1167C143.898 56.1008 145.22 55.7085 147.5 55.6167Z" fill="#C17054"/>
<path d="M148.5 64.1165C148.239 60.6929 147.773 59.0041 144 58.1165C146.931 54.9158 149 55.6167 150.5 57.1167C152 58.6168 150.655 61.6412 148.5 64.1165Z" fill="black" fill-opacity="0.16"/>
<path d="M83.4346 75.0324C84.6346 75.8324 86.9346 74.6991 87.9346 74.0324L84.9346 56.5324C69.4346 45.5324 70.9346 64.5324 73.9346 65.5324C76.9346 66.5324 81.9346 74.0324 83.4346 75.0324Z" fill="#E8A690"/>
<path d="M77.4346 55.6166C82.6346 55.2166 85.2679 63.7832 85.9346 68.1166C84.0178 68.0078 83.788 69.0446 83.9346 71.6166C81.9346 71.6166 81.6346 68.1166 78.4346 66.1166C74.4346 63.6166 70.9346 56.1166 77.4346 55.6166Z" fill="#F5BAA6"/>
<path d="M83.9346 71.6166C83.9346 69.1167 84.4346 68.1167 85.9346 68.1166C85.4346 67.45 85.0346 64.7167 83.4346 65.1167C81.8346 65.5167 80.9346 71.1167 83.9346 71.6166Z" fill="#C17054"/>
<path d="M77.4346 55.6167C81.6091 57.6299 83.543 60.4512 83.9346 65.6168L85.9346 68.1168C85.4433 65.3856 85.0266 63.8498 83.9346 61.1167C81.0361 56.1008 79.7149 55.7085 77.4346 55.6167Z" fill="#C17054"/>
<path d="M76.4346 64.1165C76.696 60.6929 77.1614 59.0041 80.9346 58.1165C78.0037 54.9158 75.9346 55.6167 74.4346 57.1167C72.9346 58.6168 74.2792 61.6412 76.4346 64.1165Z" fill="black" fill-opacity="0.16"/>
<path d="M83.5615 47.1779L86.0615 59.6779L76.0615 46.178C74.4615 44.178 74.5615 30.1779 76.0615 27.6779C74.1604 28.3392 73.1809 29.4924 71.5615 32.6779C71.5615 31.5113 72.1231 28.5614 73.5615 24.6779C77.3433 14.468 98.6231 3.0614 112.623 4.06137C132.623 4.06136 144.895 19.8446 147.562 27.6779C156.062 35.1779 149.562 44.1779 147.562 49.1779C145.962 53.1779 141.728 58.0113 140.062 59.6779L142.562 44.1779C138.162 43.3779 133.79 32.5113 133.623 27.6779C114.685 18.5614 100.123 24.6779 87.1231 35.5614C87.1231 42.5 86.0615 46.178 83.5615 47.1779Z" fill="#1C1C1C"/>
<path d="M125.208 109.428C117.502 116.474 110.897 116.253 102.53 109.428V133.427C111.76 133.977 116.594 132.82 124 125.5L125.208 109.428Z" fill="#343434"/>
<mask id="mask0_253_490" style="mask-type:alpha" maskUnits="userSpaceOnUse" x="66" y="248" width="115" height="202">
<path d="M67.5256 248C68.1475 285.158 68.7323 363.5 67.626 374.434C66.1939 388.585 66.0997 422.767 66.5614 426C67.3854 431.77 69.5614 432 70.717 434.743C73.0648 440.317 83.1807 449.187 94.4241 449.187C104.027 449.187 114.475 446.559 111.846 440.089C117.153 437.562 113.363 431.497 110.33 416.84C109.91 401.02 104.999 374.434 104.999 352.88L109.061 307.5C109.061 302 116.313 285.68 116.313 281.03C122.956 298.053 136.741 337.663 138.734 359.918C141.225 387.737 145.272 430.957 144.131 437.977C143.135 448.764 149.806 449.945 153.266 449.187H175.272C180.061 449 180.394 445.986 180.061 442C179.729 438.014 181.223 417.493 179.424 413.064C177.763 399.086 173.611 368.887 170.289 359.918L163.231 248H67.5256Z" fill="#201D13"/>
</mask>
<g mask="url(#mask0_253_490)">
<rect x="57.5615" y="246" width="137" height="204" fill="#232323"/>
<path d="M132.562 273C128.562 279.4 122.562 279.5 115.562 279.5L135.562 345C135.792 315.1 126.062 304 132.562 273Z" fill="black" fill-opacity="0.5"/>
<path d="M163.5 252L67.5 257.5V247.5H163.5V252Z" fill="black" fill-opacity="0.3"/>
<path d="M69.0615 343.5L66.5 250C67.0147 288.221 68.1436 302.033 65.2251 333.661L63.5615 344.5C64.0615 351.5 76.302 357.202 85.5947 358.955C77.5615 355 69.0615 352 69.0615 343.5Z" fill="black" fill-opacity="0.3"/>
<path d="M155.994 354.533C147.229 352.7 138.25 351.907 136.137 343.674L131.058 346.011C133.283 352.666 146.557 355.146 155.994 354.533Z" fill="black" fill-opacity="0.3"/>
<path d="M88.5616 358.955C96.5947 355 105.095 352 105.095 343.5L108.562 311.5L110.595 344.5C110.095 351.5 97.8542 357.202 88.5616 358.955Z" fill="black" fill-opacity="0.3"/>
<path d="M158.867 353.796C165.665 347.967 173.152 342.948 171.039 334.715L166.44 302.858L176.614 334.316C177.871 341.221 167.432 349.787 158.867 353.796Z" fill="black" fill-opacity="0.3"/>
<path d="M69.623 424C67.9917 421.336 66.2897 384.833 66.623 370L64.5615 425C67.3615 435 77.7897 439.5 85.123 437C80.2897 435.667 72.6845 429 69.623 424Z" fill="black" fill-opacity="0.3"/>
<path d="M150.5 417.5C141.7 413.1 137.167 399.333 136 393L132 413C130.604 421.772 132.393 424.417 138 427C143.311 428.549 144.264 429.959 144 433C143.044 444 144.738 449.491 154 449C156.5 440.333 159.3 421.9 150.5 417.5Z" fill="black" fill-opacity="0.3"/>
<path d="M154 449L156.5 435C160.587 446.227 164.947 448.724 175 449H154Z" fill="black" fill-opacity="0.3"/>
<path d="M169 429.5C169.4 422.7 176.167 415.667 179.5 413C182.829 423.55 183.83 426.372 185.5 431C178.306 415.621 174.803 417.446 169 429.5Z" fill="black" fill-opacity="0.3"/>
</g>
<path d="M41.6334 515.024C40.844 513.709 40.8659 509.432 40.9755 507.459L112.355 492.328C112.575 494.411 112.947 498.906 112.684 500.222C112.421 501.538 109.504 501.867 108.079 501.867C100.185 501.867 92.9479 508.007 90.3163 511.077L89.0006 506.801L88.6716 512.064L83.0797 516.011C68.2774 524.564 42.6202 516.669 41.6334 515.024Z" fill="#FAB338"/>
<path d="M40.2659 506.801C35.7963 494.669 42.195 486.765 75.4623 469.96V444.961C75.4623 443.316 75.8431 442 77.4878 442H110.053C112.303 442 112.303 443.316 112.303 444.961V469.96V492.986C112.303 497.262 106.054 495.811 99.4749 498.249C92.0473 501 88.2883 503.432 82.0411 508.775C75.4624 514.401 42.6895 513.38 40.2659 506.801Z" fill="#252525"/>
<path d="M75.1851 449.895H112.355V454.5H75.1851V449.895Z" fill="#FAB338"/>
<rect x="72.5537" y="442" width="41.4463" height="7.89453" rx="1.97363" fill="#291F1F"/>
<path d="M75.8433 469.186C78.4748 467.212 86.6982 466.883 90.3166 469.186" stroke="#ADADAD" stroke-width="1.97363" stroke-linecap="round"/>
<path d="M75.8433 464.29C78.4748 462.317 86.6982 461.988 90.3166 464.29" stroke="#ADADAD" stroke-width="1.97363" stroke-linecap="round"/>
<path d="M75.8433 459.395C78.4748 457.422 86.6982 457.093 90.3166 459.395" stroke="#ADADAD" stroke-width="1.97363" stroke-linecap="round"/>
<path d="M102.816 461.509C102.816 459.693 104.611 458.423 106.323 459.027L112.244 461.117C113.296 461.488 114 462.483 114 463.598V481.861C114 483.002 113.264 484.013 112.178 484.365L106.257 486.28C104.558 486.83 102.816 485.563 102.816 483.777V461.509Z" fill="#ADADAD"/>
<path d="M86.0402 505.485C87.6191 481.802 68.0582 478.293 58.0804 479.499C40.8605 489.51 36.0415 496.933 40.6467 507.459C44.9229 512.722 78.1457 516.669 86.0402 505.485Z" fill="#474747"/>
<path fill-rule="evenodd" clip-rule="evenodd" d="M158.002 184.5C158.169 189.5 158.902 200 160.502 202L162.002 208C165.655 225.67 168.221 233.807 173.151 245.66C173.092 247.854 172.537 249.547 171.224 251.291C165.145 260.269 161.842 265.314 158.996 274.627C158.996 276.814 163.132 276.376 165.484 273.168L169.228 267.82C170.725 265.876 173.47 268.793 173.47 271.953C173.907 284.521 174.732 288.222 176.964 290.427C178.612 290.247 179.17 288.968 179.21 283.621C179.171 280.361 179.461 278.72 180.458 276.085C181.448 289.248 182.405 292.78 185.449 293.83C187.99 293.605 187.537 289.004 186.862 282.15C186.808 281.601 186.752 281.037 186.697 280.46C186.813 281.014 186.926 281.552 187.035 282.074C188.312 288.187 189.124 292.072 190.939 291.399C192.657 290.813 193.293 289.943 191.688 283.864L190.689 277.544C190.902 278.207 191.098 278.83 191.278 279.405C192.039 281.825 192.532 283.396 192.936 283.621C194.682 284.593 196.18 283.134 195.182 278.516C192.844 271.257 191.653 267.2 190.19 260.042L189.691 252.263L188.433 240.583C188.077 226.159 187.6 217.225 185.002 202C185.002 196.833 184.602 184.2 183.002 175L158.002 184.5Z" fill="#E8A690"/>
<path d="M214.367 515.024C215.156 513.709 215.134 509.432 215.024 507.459L143.645 492.328C143.425 494.411 143.053 498.906 143.316 500.222C143.579 501.538 146.496 501.867 147.921 501.867C155.815 501.867 163.052 508.007 165.684 511.077L166.999 506.801L167.328 512.064L172.92 516.011C187.723 524.564 213.38 516.669 214.367 515.024Z" fill="#FAB338"/>
<path d="M215.734 506.801C220.204 494.669 213.805 486.765 180.538 469.96V444.961C180.538 443.316 180.157 442 178.512 442H145.947C143.697 442 143.697 443.316 143.697 444.961V469.96V492.986C143.697 497.262 149.946 495.811 156.525 498.249C163.953 501 167.712 503.432 173.959 508.775C180.538 514.401 213.31 513.38 215.734 506.801Z" fill="#252525"/>
<path d="M180.815 449.895H143.645V454.5H180.815V449.895Z" fill="#FAB338"/>
<rect width="41.4463" height="7.89453" rx="1.97363" transform="matrix(-1 0 0 1 183.446 442)" fill="#291F1F"/>
<path d="M180.157 469.186C177.525 467.212 169.302 466.883 165.683 469.186" stroke="#ADADAD" stroke-width="1.97363" stroke-linecap="round"/>
<path d="M180.157 464.29C177.525 462.317 169.302 461.988 165.683 464.29" stroke="#ADADAD" stroke-width="1.97363" stroke-linecap="round"/>
<path d="M180.157 459.395C177.525 457.422 169.302 457.093 165.683 459.395" stroke="#ADADAD" stroke-width="1.97363" stroke-linecap="round"/>
<path d="M153.184 461.509C153.184 459.693 151.389 458.423 149.677 459.027L143.756 461.117C142.704 461.488 142 462.483 142 463.598V481.861C142 483.002 142.736 484.013 143.822 484.365L149.743 486.28C151.442 486.83 153.184 485.563 153.184 483.777V461.509Z" fill="#ADADAD"/>
<path d="M169.96 505.485C168.381 481.802 187.942 478.293 197.92 479.499C215.14 489.51 219.958 496.933 215.353 507.459C211.077 512.722 177.854 516.669 169.96 505.485Z" fill="#474747"/>
<path fill-rule="evenodd" clip-rule="evenodd" d="M70.5 184.5C70.3333 189.5 69.6 200 68 202L66.5 208C62.847 225.67 60.2814 233.807 55.3509 245.66C55.4097 247.854 55.9648 249.547 57.2779 251.291C63.3568 260.269 66.6599 265.314 69.5062 274.627C69.5062 276.814 65.3704 276.376 63.0177 273.168L59.2743 267.82C57.777 265.876 55.0318 268.793 55.0318 271.953C54.5945 284.521 53.7702 288.222 51.538 290.427C49.8899 290.247 49.3317 288.968 49.292 283.621C49.3312 280.361 49.0408 278.72 48.0442 276.085C47.0539 289.248 46.0969 292.78 43.0531 293.83C40.5115 293.605 40.9648 289.004 41.6402 282.15C41.6943 281.601 41.7498 281.037 41.8053 280.46C41.6885 281.014 41.576 281.552 41.4669 282.074C40.1896 288.187 39.3775 292.072 37.5628 291.399C35.8448 290.813 35.2086 289.943 36.8142 283.864L37.8125 277.544C37.5995 278.207 37.404 278.83 37.2235 279.405C36.4631 281.825 35.9698 283.396 35.5664 283.621C33.8195 284.593 32.3222 283.134 33.3204 278.516C35.6583 271.257 36.8493 267.2 38.3116 260.042L38.8107 252.263L40.0691 240.583C40.4246 226.159 40.9024 217.225 43.5 202C43.5 196.833 43.9 184.2 45.5 175L70.5 184.5Z" fill="#E8A690"/>
<g style="mix-blend-mode:plus-darker">
<path d="M53.4004 232.383C51.5755 231.47 39.8961 228.55 39.531 228.49L36.4287 230.619C39.8352 231.511 47.2322 233.295 49.5681 233.295C52.488 233.295 55.2254 233.295 53.4004 232.383Z" fill="#E9E9E9"/>
</g>
<path d="M104.444 103.781C106.602 109.351 109.29 113.76 114.513 120.301C121.745 111.856 124.194 106.657 127.004 95.6279L130.294 97.2732L131.088 99.9818L167.844 116.635L174.375 135.426C174.237 136.196 175.677 142.287 175.498 143.272C176.472 146.056 176.767 147.626 177.353 150.364L179.479 157.569L183.393 177.805L185.197 192.482C185.197 192.482 186.291 207.006 187.634 218.056L190.33 224.176L189.179 228.331L192.285 230.286L190.33 238.107V246.264L171.204 247.912L169.555 240.307L166.622 235.419L167.844 230.286L165.4 228.331V224.176L160.822 203.04L159.666 199.88L158.45 191.102L155.217 162.424L159.445 213.923L157.98 217.647L161.978 224.176L160.822 230.286C162.226 234.065 164.9 242.269 164.362 244.858C163.825 247.447 160.86 248.624 159.445 248.889H116.371H112.689H69.2842C67.8691 248.624 64.6997 245.596 64.1622 243.007C63.6247 240.418 66.5034 234.065 67.9075 230.286L66.7513 224.176L70.7499 217.647L69.2842 213.923L73.5128 162.424L69.7089 195.761L68.8213 199.813C68.821 199.816 68.8204 199.819 68.8195 199.821L63.3296 224.176V228.331L60.8854 230.286L62.1075 235.419L59.1746 240.307V248.094L38.3996 246.264V238.107L36.4443 230.286L39.5507 228.331L38.3996 224.176L41.0955 218.056C42.4385 207.006 43.5323 192.482 43.5323 192.482L45.3368 177.805L49.2509 157.569L51.3761 150.364C51.9627 147.626 52.9343 146.224 53.9081 143.44C53.7296 142.454 54.4925 136.196 54.3543 135.426L60.8854 116.635L97.6415 99.9818L98.5953 97.2732L101.776 95.6279L104.444 103.781Z" fill="white"/>
<path d="M148.503 218.412L159.508 214.062L157.972 217.581L148.503 218.412Z" fill="#E9E9E9"/>
<path d="M93.4575 121.974C93.5758 121.235 93.6787 120.18 93.8915 119.754L106.67 111.319L110.701 115.506L110.522 116.576L106.67 114.702L103.266 116.576L111.618 145.264L108.847 148.548L100.066 118.337L93.4575 121.974Z" fill="#C6C6C6"/>
<path d="M136.404 122.606C136.286 121.867 136.183 120.812 135.97 120.386L123.192 111.951L119.161 116.138L119.34 117.208L123.192 115.334L125.699 116.714L117.569 147.522L120.442 149.061L128.598 118.309L136.404 122.606Z" fill="#C6C6C6"/>
<rect x="128.735" y="145.003" width="20.1149" height="24.6521" rx="2" fill="white" stroke="#C6C6C6" stroke-width="0.4"/>
<g style="mix-blend-mode:plus-darker">
<path d="M47.6211 228.549H63.4852L60.6836 230.227L61.1938 231.928C55.4547 230.802 44.7055 228.549 47.6211 228.549Z" fill="#E9E9E9"/>
</g>
<g style="mix-blend-mode:plus-darker">
<path d="M92.1001 219.232C85.3653 218.407 75.2229 215.223 69.3242 213.734L70.7479 217.673L69.8775 219.232C71.2658 218.826 100.519 220.263 92.1001 219.232Z" fill="#E9E9E9"/>
</g>
<g style="mix-blend-mode:plus-darker">
<path d="M77.8533 227.411L66.8667 224.395L68.0156 230.212L77.8533 227.411Z" fill="#E9E9E9"/>
</g>
<g style="mix-blend-mode:plus-darker">
<path d="M62.2015 150.485C72.4513 155.411 67.3565 149.541 53.5126 140.356C53.5607 142.668 54.7074 143.929 53.5126 145.867C53.2165 146.072 54.0017 146.545 62.2015 150.485Z" fill="#E9E9E9"/>
</g>
<g style="mix-blend-mode:plus-darker">
<path d="M169.26 153.174C159.665 156.153 163.832 152.287 176.79 146.731C176.001 148.37 176.79 149.766 177.361 150.209C177.731 151.102 176.935 150.791 169.26 153.174Z" fill="#E9E9E9"/>
</g>
<g style="mix-blend-mode:plus-darker">
<path d="M59.1074 155.786C59.5546 155.538 54.6224 150.658 52.2622 148.173C52.653 149.854 52.4162 150.6 52.0269 151.377C54.2007 152.95 58.6603 156.035 59.1074 155.786Z" fill="#E9E9E9"/>
</g>
<g style="mix-blend-mode:plus-darker">
<path d="M172.09 162.003C171.643 161.754 175.846 156.953 178.207 154.469C178.207 155.882 178.782 156.817 179.171 157.593C176.997 159.166 172.537 162.251 172.09 162.003Z" fill="#E9E9E9"/>
</g>
<g style="mix-blend-mode:plus-darker">
<path d="M139.867 229.638C147.169 227.905 161.857 224.438 162.198 224.438L160.664 230.405L139.867 229.638Z" fill="#E9E9E9"/>
</g>
<path d="M171.734 231.607C176.519 230.012 188.783 225.412 190.394 224.244L189.306 228.534L171.734 231.607Z" fill="#E9E9E9"/>
<path d="M174.867 227.386C173.224 227.676 167.98 228.272 165.563 228.534L167.919 230.527L174.867 227.386Z" fill="#E9E9E9"/>
<path d="M187.837 238.528C182.279 238.673 168.161 236.005 166.65 235.663L169.732 240.375L187.837 238.528Z" fill="#E9E9E9"/>
<path d="M101.776 95.6279C104.75 105.935 107.029 110.928 114.513 120.301M101.776 95.6279L98.5953 97.2732L97.6415 99.9818M101.776 95.6279L106.891 111.261M114.513 120.301L106.891 111.261M114.513 120.301C121.745 111.856 124.194 106.657 127.004 95.6279M114.513 120.301L123.251 111.819M114.513 120.301V205.483L116.371 208.879L114.513 213.923L116.371 222.18V230.286L117.786 240.307L116.371 248.889M106.891 111.261L93.1477 120.301L97.6415 99.9818M97.6415 99.9818L60.8854 116.635L54.3543 135.426C52.8092 140.239 53.3836 140.494 53.9081 143.44C54.3543 145.945 52.8486 145.162 52.262 147.9C52.262 149.19 52.8288 149.933 51.7539 151.535L49.2509 157.569L45.3368 177.805L43.5323 192.482C43.5323 192.482 42.4385 207.006 41.0955 218.056L38.3996 224.176L39.5507 228.331L36.4443 230.286L38.3996 238.107M38.3996 238.107L59.1746 240.307M38.3996 238.107V246.264L59.1746 248.094V240.307M59.1746 240.307L62.1075 235.419L60.8854 230.286L63.3296 228.331V224.176L68.7504 200.234L69.7887 195.681L73.5128 162.424M75.0613 150.364L73.5128 162.424M73.5128 162.424L69.2842 213.923L70.7499 217.647L66.7513 224.176L67.9075 230.286C66.5034 234.065 63.6247 240.418 64.1622 243.007C64.6997 245.596 67.8691 248.624 69.2842 248.889H112.689H116.371M127.004 95.6279L130.294 97.2732L131.088 99.9818M127.004 95.6279L123.251 111.819M123.251 111.819L135.582 120.301L131.088 99.9818M131.088 99.9818L167.844 116.635L174.375 135.426C174.237 136.196 177.353 144.601 176.859 146.495C175.367 147.815 175.769 150.053 177.353 150.364C179.63 151.049 176.859 155.172 179.479 157.569L183.393 177.805L185.197 192.482C185.197 192.482 186.291 207.006 187.634 218.056L190.33 224.176L189.179 228.331L192.285 230.286L190.33 238.107M190.33 238.107L169.555 240.307M190.33 238.107V246.264L171.204 247.912L169.555 240.307M169.555 240.307L166.622 235.419L167.844 230.286L165.4 228.331V224.176L160.822 203.04L159.666 199.88L158.45 191.102L155.217 162.424M153.668 150.364L155.217 162.424M155.217 162.424L159.445 213.923L157.98 217.647L161.978 224.176L160.822 230.286C162.226 234.065 164.9 242.269 164.362 244.858C163.825 247.447 160.86 248.624 159.445 248.889H116.371" stroke="#C6C6C6" stroke-width="0.4" stroke-linecap="round" stroke-linejoin="round"/>
<mask id="mask1_253_490" style="mask-type:alpha" maskUnits="userSpaceOnUse" x="101" y="113" width="29" height="100">
<path d="M110.489 117.14C109.587 115.891 110.377 114.133 111.91 113.979L114.057 113.764C114.179 113.751 114.303 113.75 114.426 113.761L117.586 114.028C119.136 114.159 119.95 115.931 119.039 117.192L116.84 120.236L116.404 120.84C115.606 121.945 113.96 121.945 113.162 120.84L112.622 120.093L110.489 117.14Z" fill="#C71919"/>
<path d="M116.84 120.236L116.404 120.84C115.606 121.945 113.96 121.945 113.162 120.84L112.622 120.093L101.796 197.487C101.712 198.086 101.904 198.69 102.317 199.131L113.373 210.937C114.144 211.761 115.444 211.783 116.244 210.986L128.123 199.15C128.575 198.7 128.785 198.061 128.688 197.43L116.84 120.236Z" fill="#C71919"/>
<path d="M116.84 120.236L119.039 117.192C119.95 115.931 119.136 114.159 117.586 114.028L114.426 113.761C114.303 113.75 114.179 113.751 114.057 113.764L111.91 113.979C110.377 114.133 109.587 115.891 110.489 117.14L112.622 120.093M116.84 120.236L116.404 120.84C115.606 121.945 113.96 121.945 113.162 120.84L112.622 120.093M116.84 120.236L128.688 197.43C128.785 198.061 128.575 198.7 128.123 199.15L116.244 210.986C115.444 211.783 114.144 211.761 113.373 210.937L102.317 199.131C101.904 198.69 101.712 198.086 101.796 197.487L112.622 120.093" stroke="black"/>
</mask>
<g mask="url(#mask1_253_490)">
<rect x="78.5615" y="108" width="81" height="109" fill="#C71919"/>
<path d="M116.562 121.5L113.062 121L111.562 127.5L117.062 124L116.562 121.5Z" fill="black" fill-opacity="0.2"/>
<path d="M116.84 120.236L119.039 117.192C119.95 115.931 119.136 114.159 117.586 114.028L114.426 113.761C114.303 113.75 114.179 113.751 114.057 113.764L111.91 113.979C110.377 114.133 109.587 115.891 110.489 117.14L112.622 120.093M116.84 120.236L116.404 120.84C115.606 121.945 113.96 121.945 113.162 120.84L112.622 120.093M116.84 120.236L128.688 197.43C128.785 198.061 128.575 198.7 128.123 199.15L116.244 210.986C115.444 211.783 114.144 211.761 113.373 210.937L102.317 199.131C101.904 198.69 101.712 198.086 101.796 197.487L112.622 120.093" stroke="black"/>
</g>
<path d="M73.0592 202.289L75.1298 150.94L69.4575 207.704L73.0592 202.289Z" fill="#E9E9E9"/>
<path d="M156.041 202.289L153.971 150.94L159.643 207.704L156.041 202.289Z" fill="#E9E9E9"/>
<path d="M134.062 27.5C130.562 6 105.062 5.99996 86.5615 35.5C83.2556 40.1259 80.9779 40.5474 76.5615 39.5" stroke="black" stroke-linecap="round"/>
<path d="M128.062 25.5C127.235 20.7254 117.022 8.37285 96.5615 22.0739" stroke="black"/>
<path d="M118.562 23.5C117.895 19.6667 107.062 14.1928 93.5615 25.6928" stroke="black"/>
<path d="M88.5615 256.5L85.0615 350.5V314L88.5615 256.5Z" fill="#191919"/>
<path d="M145.756 257.189L154.867 350.812L152.686 314.377L145.756 257.189Z" fill="#191919"/>
<path d="M85.0615 359.5C86.2487 391.906 87.3965 410.131 92.5615 443L83.5615 390L85.0615 359.5Z" fill="#191919"/>
<path d="M157.93 355.28C162.808 387.338 165.08 405.458 166.136 438.713L165.093 384.965L157.93 355.28Z" fill="#191919"/>
<mask id="mask2_253_490" style="mask-type:alpha" maskUnits="userSpaceOnUse" x="79" y="47" width="69" height="17">
<path d="M79.5615 50.1581L80.5764 53.6952H85.1436C85.5131 57.3867 87.0615 62 88.6959 62.7906C94.417 64.0858 98.4633 64.1897 106.457 63.8012C107.542 63.7485 108.467 61.9411 109.588 59.7497C110.641 57.692 111.562 53.6952 113.562 53.6952C115.562 53.6952 116.482 57.692 117.535 59.7497C118.656 61.9411 119.581 63.7485 120.666 63.8012C128.66 64.1897 132.706 64.0858 138.427 62.7906C141.062 62.1942 141.61 57.3867 141.979 53.6952H146.547L147.562 50.1581L141.979 49.6528C131.323 46.1157 123.711 46.1157 113.562 49.6528C103.412 46.1157 95.8003 46.1157 85.1436 49.6528L79.5615 50.1581Z" fill="white"/>
</mask>
<g mask="url(#mask2_253_490)">
<rect x="77.5615" y="47" width="76" height="18" fill="white" fill-opacity="0.7"/>
<path d="M86.0615 53H80.0615L84.0615 64.5H108.562V63L108.292 63.0194C101.085 63.5367 97.31 63.8077 89.5615 62.5C88.0615 62 86.0615 58 86.0615 53Z" fill="white"/>
<path d="M141.062 53H147.062L143.062 64.5H118.562V63L118.831 63.0194C126.038 63.5367 129.813 63.8077 137.562 62.5C139.062 62 141.062 58 141.062 53Z" fill="white"/>
<rect x="100.535" y="45" width="8.41939" height="20.6319" transform="rotate(22.7357 100.535 45)" fill="white"/>
<rect x="132.535" y="45" width="8.41939" height="20.6319" transform="rotate(22.7357 132.535 45)" fill="white"/>
<rect x="95.5352" y="45" width="3.34196" height="20.6319" transform="rotate(22.7357 95.5352 45)" fill="white"/>
<rect x="127.535" y="45" width="3.34196" height="20.6319" transform="rotate(22.7357 127.535 45)" fill="white"/>
</g>
<path d="M85.0615 51.5V49.5L79.5615 50L80.0615 52L85.0615 51.5Z" fill="black"/>
<path d="M142.062 51.5V49.5L147.562 50L147.062 52L142.062 51.5Z" fill="black"/>
<path d="M143.562 49.5L140.562 49C141.562 50 142.031 51.0396 142.062 52.5H143.562V49.5Z" fill="#3D3D3D"/>
<path d="M119.485 61.1834L116.587 54.5576C116.57 54.5196 116.562 54.4786 116.562 54.4371C116.562 54.1115 117.007 54.0183 117.138 54.3166L120.036 60.9424C120.053 60.9804 120.062 61.0214 120.062 61.0629C120.062 61.3885 119.616 61.4817 119.485 61.1834Z" fill="white"/>
<path d="M107.138 61.1834L110.036 54.5576C110.053 54.5196 110.062 54.4786 110.062 54.4371C110.062 54.1115 109.616 54.0183 109.485 54.3166L106.587 60.9424C106.57 60.9804 106.562 61.0214 106.562 61.0629C106.562 61.3885 107.007 61.4817 107.138 61.1834Z" fill="white"/>
<path d="M94.5615 47C91.5074 47.4314 89.7553 47.8556 86.5615 49C85.5766 50.0173 85.3015 50.5595 85.0615 51.5C88.5615 49 90.8299 48.4851 94.5615 48V47Z" fill="black"/>
<path d="M83.5615 49.5L86.5615 49C85.5615 50 85.0925 51.0396 85.0615 52.5H83.5615V49.5Z" fill="#3D3D3D"/>
</svg>
