<svg width="197" height="80" viewBox="0 0 197 80" fill="none" xmlns="http://www.w3.org/2000/svg">
<g filter="url(#filter0_d_74_102)">
<g clip-path="url(#clip0_74_102)">
<rect x="20.4384" y="16" width="156" height="40" rx="10" fill="#0161C3"/>
<rect x="132.696" y="4.11731" width="28.001" height="59.8666" transform="rotate(18.7647 132.696 4.11731)" fill="white" fill-opacity="0.3"/>
<rect x="110.696" y="4" width="15.8392" height="59.8666" transform="rotate(18.7647 110.696 4)" fill="white" fill-opacity="0.3"/>
<path d="M89.6225 44H85.0025L84.3645 36.938L80.3385 44L76.3125 36.938L75.6745 44H71.0545L72.6825 28.6H76.8625L80.3385 35.288L83.8145 28.6H87.9945L89.6225 44ZM101.027 44H97.2211L97.0891 43.362C96.4071 43.978 95.4831 44.352 94.4271 44.352C92.3151 44.352 90.5771 42.812 90.5771 40.766C90.5771 38.786 92.2491 37.246 94.6251 37.246C95.3951 37.246 96.1431 37.378 96.8691 37.664C96.8471 36.718 96.2091 36.3 94.6251 36.3C93.7891 36.3 92.9751 36.432 92.1611 36.674L92.5791 33.77C93.5691 33.528 94.6251 33.418 95.7031 33.418C99.1131 33.418 100.939 34.716 100.939 37.532V42.284L101.027 44ZM96.9571 40.568C96.9571 39.974 96.4731 39.534 95.8571 39.534C95.2411 39.534 94.7571 39.974 94.7571 40.568C94.7571 41.162 95.2411 41.602 95.8571 41.602C96.4731 41.602 96.9571 41.162 96.9571 40.568ZM109.377 28.6L113.843 28.16V44H109.883V42.966C109.157 43.868 108.189 44.308 106.979 44.308C104.273 44.308 102.073 41.888 102.073 38.83C102.007 35.816 104.361 33.308 106.979 33.352C107.925 33.352 108.739 33.638 109.377 34.188V28.6ZM109.751 38.83C109.751 37.796 108.981 37.026 107.969 37.026C106.957 37.026 106.187 37.796 106.187 38.83C106.187 39.864 106.957 40.634 107.969 40.634C108.981 40.634 109.751 39.864 109.751 38.83ZM124.749 39.798L125.871 42.834C124.617 43.714 122.813 44.352 121.075 44.352C117.753 44.352 115.157 41.954 115.157 38.852C115.157 35.75 117.577 33.308 120.833 33.308C123.737 33.308 126.069 35.266 126.289 38.566L119.601 40.722C119.997 41.052 120.503 41.206 121.119 41.206C122.197 41.206 123.407 40.744 124.749 39.798ZM118.853 38.346L122.373 37.202C122.021 36.74 121.493 36.454 120.877 36.454C119.799 36.454 119.029 37.202 118.853 38.346Z" fill="white"/>
</g>
<rect x="17.4384" y="13" width="162" height="46" rx="13" stroke="white" stroke-width="6"/>
</g>
<defs>
<filter id="filter0_d_74_102" x="0.438416" y="0" width="196" height="80" filterUnits="userSpaceOnUse" color-interpolation-filters="sRGB">
<feFlood flood-opacity="0" result="BackgroundImageFix"/>
<feColorMatrix in="SourceAlpha" type="matrix" values="0 0 0 0 0 0 0 0 0 0 0 0 0 0 0 0 0 0 127 0" result="hardAlpha"/>
<feOffset dy="4"/>
<feGaussianBlur stdDeviation="7"/>
<feComposite in2="hardAlpha" operator="out"/>
<feColorMatrix type="matrix" values="0 0 0 0 0 0 0 0 0 0 0 0 0 0 0 0 0 0 0.15 0"/>
<feBlend mode="normal" in2="BackgroundImageFix" result="effect1_dropShadow_74_102"/>
<feBlend mode="normal" in="SourceGraphic" in2="effect1_dropShadow_74_102" result="shape"/>
</filter>
<clipPath id="clip0_74_102">
<rect x="20.4384" y="16" width="156" height="40" rx="10" fill="white"/>
</clipPath>
</defs>
</svg>
