<svg width="197" height="80" viewBox="0 0 197 80" fill="none" xmlns="http://www.w3.org/2000/svg">
<g filter="url(#filter0_d_95_2)">
<g clip-path="url(#clip0_95_2)">
<rect x="20.4385" y="16" width="156" height="40" rx="10" fill="#FAB338"/>
<rect x="132.697" y="4.11731" width="28.001" height="59.8666" transform="rotate(18.7647 132.697 4.11731)" fill="white" fill-opacity="0.3"/>
<rect x="110.697" y="4" width="15.8392" height="59.8666" transform="rotate(18.7647 110.697 4)" fill="white" fill-opacity="0.3"/>
<path d="M74.056 44V28.6H79.49C83.956 28.534 87.542 31.966 87.476 36.3C87.542 40.634 83.956 44.066 79.49 44H74.056ZM78.632 39.732H79.292C81.448 39.732 82.812 38.39 82.812 36.3C82.812 34.21 81.448 32.868 79.292 32.868H78.632V39.732ZM97.8552 39.798L98.9772 42.834C97.7232 43.714 95.9192 44.352 94.1812 44.352C90.8592 44.352 88.2632 41.954 88.2632 38.852C88.2632 35.75 90.6832 33.308 93.9392 33.308C96.8432 33.308 99.1752 35.266 99.3952 38.566L92.7072 40.722C93.1032 41.052 93.6092 41.206 94.2252 41.206C95.3032 41.206 96.5132 40.744 97.8552 39.798ZM91.9592 38.346L95.4792 37.202C95.1272 36.74 94.5992 36.454 93.9832 36.454C92.9052 36.454 92.1352 37.202 91.9592 38.346ZM112.099 33.66H116.587L113.639 44H109.547L108.029 39.424L106.511 44H102.419L99.4713 33.66H103.959L104.971 38.346L106.555 33.66H109.503L111.087 38.346L112.099 33.66ZM117.667 44V33.88L122.133 33.44V44H117.667ZM117.337 30.404C117.337 29.084 118.481 27.962 119.911 27.962C121.341 27.962 122.485 29.084 122.485 30.404C122.485 31.746 121.341 32.846 119.911 32.846C118.481 32.846 117.337 31.746 117.337 30.404Z" fill="white"/>
</g>
<rect x="17.4385" y="13" width="162" height="46" rx="13" stroke="white" stroke-width="6"/>
</g>
<defs>
<filter id="filter0_d_95_2" x="0.438477" y="0" width="196" height="80" filterUnits="userSpaceOnUse" color-interpolation-filters="sRGB">
<feFlood flood-opacity="0" result="BackgroundImageFix"/>
<feColorMatrix in="SourceAlpha" type="matrix" values="0 0 0 0 0 0 0 0 0 0 0 0 0 0 0 0 0 0 127 0" result="hardAlpha"/>
<feOffset dy="4"/>
<feGaussianBlur stdDeviation="7"/>
<feComposite in2="hardAlpha" operator="out"/>
<feColorMatrix type="matrix" values="0 0 0 0 0 0 0 0 0 0 0 0 0 0 0 0 0 0 0.15 0"/>
<feBlend mode="normal" in2="BackgroundImageFix" result="effect1_dropShadow_95_2"/>
<feBlend mode="normal" in="SourceGraphic" in2="effect1_dropShadow_95_2" result="shape"/>
</filter>
<clipPath id="clip0_95_2">
<rect x="20.4385" y="16" width="156" height="40" rx="10" fill="white"/>
</clipPath>
</defs>
</svg>
