<svg width="196" height="80" viewBox="0 0 196 80" fill="none" xmlns="http://www.w3.org/2000/svg">
<g filter="url(#filter0_d_163_8)">
<g clip-path="url(#clip0_163_8)">
<rect x="20" y="16" width="156" height="40" rx="10" fill="#6B27FF"/>
<rect x="132.258" y="4.11731" width="28.001" height="59.8666" transform="rotate(18.7647 132.258 4.11731)" fill="white" fill-opacity="0.3"/>
<rect x="110.258" y="4" width="15.8392" height="59.8666" transform="rotate(18.7647 110.258 4)" fill="white" fill-opacity="0.3"/>
<path d="M69.28 28.6V44H65.386V28.6H69.28ZM82.1667 37.708V44H78.3827V38.192C78.3827 37.29 77.8327 36.718 76.9747 36.718C76.1167 36.718 75.5227 37.356 75.5227 38.258V44H71.7387V34.012L75.4347 33.638V34.76C76.1607 33.968 77.2167 33.528 78.4487 33.528C80.8907 33.528 82.1667 35.178 82.1667 37.708ZM91.2391 28.534L95.0011 28.116V44H91.6131V42.878C90.8871 43.78 89.8091 44.286 88.5551 44.286C85.8491 44.286 83.6271 41.888 83.6271 38.918C83.6271 35.904 85.8931 33.528 88.5551 33.528C89.6111 33.528 90.5131 33.88 91.2391 34.562V28.534ZM91.5471 38.918C91.5471 37.642 90.5571 36.674 89.3471 36.674C88.0931 36.674 87.1471 37.642 87.1471 38.918C87.1471 40.15 88.0931 41.14 89.3471 41.14C90.5571 41.14 91.5471 40.15 91.5471 38.918ZM106.371 44H103.115L103.005 43.362C102.323 43.978 101.421 44.33 100.387 44.33C98.2971 44.33 96.6031 42.768 96.6031 40.744C96.6031 38.764 98.2531 37.224 100.541 37.224C101.289 37.224 102.037 37.422 102.807 37.818V37.642C102.807 36.586 102.191 36.102 100.585 36.102C99.7931 36.102 98.9791 36.234 98.1651 36.498L98.5391 33.946C99.4631 33.704 100.431 33.594 101.421 33.594C104.655 33.594 106.283 34.892 106.283 37.466V42.24L106.371 44ZM102.895 40.612C102.895 39.886 102.301 39.336 101.509 39.336C100.739 39.336 100.145 39.886 100.145 40.612C100.145 41.338 100.739 41.888 101.509 41.888C102.301 41.888 102.895 41.338 102.895 40.612ZM118.712 37.708V44H114.928V38.192C114.928 37.29 114.378 36.718 113.52 36.718C112.662 36.718 112.068 37.356 112.068 38.258V44H108.284V34.012L111.98 33.638V34.76C112.706 33.968 113.762 33.528 114.994 33.528C117.436 33.528 118.712 35.178 118.712 37.708ZM129.918 41.756C130.534 42.526 130.842 43.406 130.842 44.396C130.842 46.992 128.774 49.038 125.496 49.038C123.472 49.038 121.646 48.246 120.216 46.596L122.13 44.308C123.12 45.452 124.088 46.046 125.386 46.046C126.794 46.046 127.608 45.298 127.608 44.242C127.608 43.934 127.542 43.67 127.41 43.45C126.86 43.626 126.266 43.714 125.628 43.714C122.614 43.714 120.26 41.514 120.26 38.72C120.26 35.882 122.57 33.704 125.826 33.704L130.864 33.66L129.962 35.772C130.644 36.586 130.996 37.576 130.996 38.72C130.996 39.864 130.622 40.898 129.918 41.756ZM125.628 40.722C126.728 40.722 127.608 39.864 127.608 38.72C127.608 37.576 126.728 36.696 125.628 36.696C124.484 36.696 123.626 37.576 123.626 38.72C123.626 39.864 124.484 40.722 125.628 40.722Z" fill="white"/>
</g>
<rect x="17" y="13" width="162" height="46" rx="13" stroke="white" stroke-width="6"/>
</g>
<defs>
<filter id="filter0_d_163_8" x="0" y="0" width="196" height="80" filterUnits="userSpaceOnUse" color-interpolation-filters="sRGB">
<feFlood flood-opacity="0" result="BackgroundImageFix"/>
<feColorMatrix in="SourceAlpha" type="matrix" values="0 0 0 0 0 0 0 0 0 0 0 0 0 0 0 0 0 0 127 0" result="hardAlpha"/>
<feOffset dy="4"/>
<feGaussianBlur stdDeviation="7"/>
<feComposite in2="hardAlpha" operator="out"/>
<feColorMatrix type="matrix" values="0 0 0 0 0 0 0 0 0 0 0 0 0 0 0 0 0 0 0.15 0"/>
<feBlend mode="normal" in2="BackgroundImageFix" result="effect1_dropShadow_163_8"/>
<feBlend mode="normal" in="SourceGraphic" in2="effect1_dropShadow_163_8" result="shape"/>
</filter>
<clipPath id="clip0_163_8">
<rect x="20" y="16" width="156" height="40" rx="10" fill="white"/>
</clipPath>
</defs>
</svg>
