<svg width="197" height="80" viewBox="0 0 197 80" fill="none" xmlns="http://www.w3.org/2000/svg">
<g filter="url(#filter0_d_74_96)">
<g clip-path="url(#clip0_74_96)">
<rect x="20.4384" y="16" width="156" height="40" rx="10" fill="#FF2222"/>
<rect x="132.696" y="4.11731" width="28.001" height="59.8666" transform="rotate(18.7647 132.696 4.11731)" fill="white" fill-opacity="0.3"/>
<rect x="110.696" y="4" width="15.8392" height="59.8666" transform="rotate(18.7647 110.696 4)" fill="white" fill-opacity="0.3"/>
<path d="M80.6964 28.6H85.4264L81.9944 44H77.6604L75.0424 37.774L72.4244 44H68.0904L64.6584 28.6H69.3884L71.0164 36.74L75.0424 28.336L79.0684 36.74L80.6964 28.6ZM86.3966 44V33.88L90.8627 33.44V44H86.3966ZM86.0666 30.404C86.0666 29.084 87.2106 27.962 88.6407 27.962C90.0707 27.962 91.2147 29.084 91.2147 30.404C91.2147 31.746 90.0707 32.846 88.6407 32.846C87.2106 32.846 86.0666 31.746 86.0666 30.404ZM91.457 48.774V45.034C92.337 44.968 92.799 44.462 92.799 43.56V33.88L97.265 33.44V43.56C97.265 46.904 95.241 48.752 91.457 48.774ZM92.469 30.404C92.469 29.084 93.613 27.962 95.043 27.962C96.473 27.962 97.617 29.084 97.617 30.404C97.617 31.746 96.473 32.846 95.043 32.846C93.613 32.846 92.469 31.746 92.469 30.404ZM109.013 44H105.207L105.075 43.362C104.393 43.978 103.469 44.352 102.413 44.352C100.301 44.352 98.5633 42.812 98.5633 40.766C98.5633 38.786 100.235 37.246 102.611 37.246C103.381 37.246 104.129 37.378 104.855 37.664C104.833 36.718 104.195 36.3 102.611 36.3C101.775 36.3 100.961 36.432 100.147 36.674L100.565 33.77C101.555 33.528 102.611 33.418 103.689 33.418C107.099 33.418 108.925 34.716 108.925 37.532V42.284L109.013 44ZM104.943 40.568C104.943 39.974 104.459 39.534 103.843 39.534C103.227 39.534 102.743 39.974 102.743 40.568C102.743 41.162 103.227 41.602 103.843 41.602C104.459 41.602 104.943 41.162 104.943 40.568ZM116.364 33.66H120.984L115.506 48.62H110.864L112.954 44.242L109.104 33.66H113.724L115.044 38.94L116.364 33.66ZM130.884 44H127.078L126.946 43.362C126.264 43.978 125.34 44.352 124.284 44.352C122.172 44.352 120.434 42.812 120.434 40.766C120.434 38.786 122.106 37.246 124.482 37.246C125.252 37.246 126 37.378 126.726 37.664C126.704 36.718 126.066 36.3 124.482 36.3C123.646 36.3 122.832 36.432 122.018 36.674L122.436 33.77C123.426 33.528 124.482 33.418 125.56 33.418C128.97 33.418 130.796 34.716 130.796 37.532V42.284L130.884 44ZM126.814 40.568C126.814 39.974 126.33 39.534 125.714 39.534C125.098 39.534 124.614 39.974 124.614 40.568C124.614 41.162 125.098 41.602 125.714 41.602C126.33 41.602 126.814 41.162 126.814 40.568Z" fill="white"/>
</g>
<rect x="17.4384" y="13" width="162" height="46" rx="13" stroke="white" stroke-width="6"/>
</g>
<defs>
<filter id="filter0_d_74_96" x="0.438416" y="0" width="196" height="80" filterUnits="userSpaceOnUse" color-interpolation-filters="sRGB">
<feFlood flood-opacity="0" result="BackgroundImageFix"/>
<feColorMatrix in="SourceAlpha" type="matrix" values="0 0 0 0 0 0 0 0 0 0 0 0 0 0 0 0 0 0 127 0" result="hardAlpha"/>
<feOffset dy="4"/>
<feGaussianBlur stdDeviation="7"/>
<feComposite in2="hardAlpha" operator="out"/>
<feColorMatrix type="matrix" values="0 0 0 0 0 0 0 0 0 0 0 0 0 0 0 0 0 0 0.15 0"/>
<feBlend mode="normal" in2="BackgroundImageFix" result="effect1_dropShadow_74_96"/>
<feBlend mode="normal" in="SourceGraphic" in2="effect1_dropShadow_74_96" result="shape"/>
</filter>
<clipPath id="clip0_74_96">
<rect x="20.4384" y="16" width="156" height="40" rx="10" fill="white"/>
</clipPath>
</defs>
</svg>
