<svg width="196" height="80" viewBox="0 0 196 80" fill="none" xmlns="http://www.w3.org/2000/svg">
<g filter="url(#filter0_d_164_61)">
<g clip-path="url(#clip0_164_61)">
<rect x="20" y="16" width="156" height="40" rx="10" fill="#FF2727"/>
<rect x="132.258" y="4.11731" width="28.001" height="59.8666" transform="rotate(18.7647 132.258 4.11731)" fill="white" fill-opacity="0.3"/>
<rect x="110.258" y="4" width="15.8392" height="59.8666" transform="rotate(18.7647 110.258 4)" fill="white" fill-opacity="0.3"/>
<path d="M63.748 32.23H59.92V44H56.026V32.23H52.22L52.748 28.6H63.22L63.748 32.23ZM75.4948 37.708V44H71.7108V38.192C71.7108 37.29 71.1608 36.718 70.3028 36.718C69.4448 36.718 68.8508 37.356 68.8508 38.258V44H65.0668V28.534L68.8508 28.116V34.76C69.5548 33.968 70.5668 33.528 71.7768 33.528C74.2188 33.528 75.4948 35.178 75.4948 37.708ZM86.3712 40.084L87.3832 42.724C86.1292 43.692 84.3912 44.33 82.6972 44.33C79.4852 44.374 76.8892 41.932 76.9552 38.918C76.9552 35.904 79.3532 33.484 82.4992 33.484C85.2712 33.484 87.4932 35.354 87.7572 38.522L80.7392 40.766C81.2452 41.316 81.9052 41.58 82.7412 41.58C83.9072 41.58 85.1172 41.074 86.3712 40.084ZM80.1452 38.5L84.3032 37.136C83.9292 36.542 83.2692 36.212 82.5432 36.212C81.2452 36.212 80.3212 37.158 80.1452 38.5ZM88.7716 38.918C88.7056 35.926 91.3236 33.418 94.4696 33.484C97.6596 33.484 100.19 35.86 100.19 38.918C100.19 41.932 97.6596 44.33 94.4696 44.33C91.3236 44.396 88.7056 41.888 88.7716 38.918ZM96.6696 38.918C96.6696 37.642 95.7236 36.674 94.4696 36.674C93.2596 36.674 92.2696 37.642 92.2696 38.918C92.2696 40.15 93.2596 41.14 94.4696 41.14C95.7236 41.14 96.6696 40.15 96.6696 38.918ZM108.823 28.534L112.585 28.116V44H109.197V42.878C108.471 43.78 107.393 44.286 106.139 44.286C103.433 44.286 101.211 41.888 101.211 38.918C101.211 35.904 103.477 33.528 106.139 33.528C107.195 33.528 108.097 33.88 108.823 34.562V28.534ZM109.131 38.918C109.131 37.642 108.141 36.674 106.931 36.674C105.677 36.674 104.731 37.642 104.731 38.918C104.731 40.15 105.677 41.14 106.931 41.14C108.141 41.14 109.131 40.15 109.131 38.918ZM114.209 38.918C114.143 35.926 116.761 33.418 119.907 33.484C123.097 33.484 125.627 35.86 125.627 38.918C125.627 41.932 123.097 44.33 119.907 44.33C116.761 44.396 114.143 41.888 114.209 38.918ZM122.107 38.918C122.107 37.642 121.161 36.674 119.907 36.674C118.697 36.674 117.707 37.642 117.707 38.918C117.707 40.15 118.697 41.14 119.907 41.14C121.161 41.14 122.107 40.15 122.107 38.918ZM133.909 33.594V36.894C132.039 36.894 131.027 37.73 131.027 39.644V44H127.243V34.012L130.807 33.638V35.288C131.401 34.144 132.347 33.594 133.909 33.594ZM143.957 44H140.701L140.591 43.362C139.909 43.978 139.007 44.33 137.973 44.33C135.883 44.33 134.189 42.768 134.189 40.744C134.189 38.764 135.839 37.224 138.127 37.224C138.875 37.224 139.623 37.422 140.393 37.818V37.642C140.393 36.586 139.777 36.102 138.171 36.102C137.379 36.102 136.565 36.234 135.751 36.498L136.125 33.946C137.049 33.704 138.017 33.594 139.007 33.594C142.241 33.594 143.869 34.892 143.869 37.466V42.24L143.957 44ZM140.481 40.612C140.481 39.886 139.887 39.336 139.095 39.336C138.325 39.336 137.731 39.886 137.731 40.612C137.731 41.338 138.325 41.888 139.095 41.888C139.887 41.888 140.481 41.338 140.481 40.612Z" fill="white"/>
</g>
<rect x="17" y="13" width="162" height="46" rx="13" stroke="white" stroke-width="6"/>
</g>
<defs>
<filter id="filter0_d_164_61" x="0" y="0" width="196" height="80" filterUnits="userSpaceOnUse" color-interpolation-filters="sRGB">
<feFlood flood-opacity="0" result="BackgroundImageFix"/>
<feColorMatrix in="SourceAlpha" type="matrix" values="0 0 0 0 0 0 0 0 0 0 0 0 0 0 0 0 0 0 127 0" result="hardAlpha"/>
<feOffset dy="4"/>
<feGaussianBlur stdDeviation="7"/>
<feComposite in2="hardAlpha" operator="out"/>
<feColorMatrix type="matrix" values="0 0 0 0 0 0 0 0 0 0 0 0 0 0 0 0 0 0 0.15 0"/>
<feBlend mode="normal" in2="BackgroundImageFix" result="effect1_dropShadow_164_61"/>
<feBlend mode="normal" in="SourceGraphic" in2="effect1_dropShadow_164_61" result="shape"/>
</filter>
<clipPath id="clip0_164_61">
<rect x="20" y="16" width="156" height="40" rx="10" fill="white"/>
</clipPath>
</defs>
</svg>
