<svg width="196" height="80" viewBox="0 0 196 80" fill="none" xmlns="http://www.w3.org/2000/svg">
<g filter="url(#filter0_d_123_122)">
<g clip-path="url(#clip0_123_122)">
<rect x="20" y="16" width="156" height="40" rx="10" fill="#C527FF"/>
<rect x="132.258" y="4.11731" width="28.001" height="59.8666" transform="rotate(18.7647 132.258 4.11731)" fill="white" fill-opacity="0.3"/>
<rect x="110.258" y="4" width="15.8392" height="59.8666" transform="rotate(18.7647 110.258 4)" fill="white" fill-opacity="0.3"/>
<path d="M78.28 28.6V44H74.386V28.6H78.28ZM96.9527 37.554V44H93.1687V38.06C93.1687 37.246 92.6847 36.718 91.9807 36.718C91.2547 36.718 90.7267 37.29 90.7267 38.104V44H86.9647V38.06C86.9647 37.246 86.4807 36.718 85.7767 36.718C85.0067 36.718 84.5227 37.29 84.5227 38.104V44H80.7387V34.012L84.4347 33.638V34.738C85.1167 33.946 86.0847 33.528 87.2287 33.528C88.4607 33.528 89.3627 33.99 89.9567 34.87C90.7487 33.99 91.8707 33.528 93.2127 33.528C95.6767 33.528 96.9527 35.156 96.9527 37.554ZM108.152 44H104.896L104.786 43.362C104.104 43.978 103.202 44.33 102.168 44.33C100.078 44.33 98.3844 42.768 98.3844 40.744C98.3844 38.764 100.034 37.224 102.322 37.224C103.07 37.224 103.818 37.422 104.588 37.818V37.642C104.588 36.586 103.972 36.102 102.366 36.102C101.574 36.102 100.76 36.234 99.9464 36.498L100.32 33.946C101.244 33.704 102.212 33.594 103.202 33.594C106.436 33.594 108.064 34.892 108.064 37.466V42.24L108.152 44ZM104.676 40.612C104.676 39.886 104.082 39.336 103.29 39.336C102.52 39.336 101.926 39.886 101.926 40.612C101.926 41.338 102.52 41.888 103.29 41.888C104.082 41.888 104.676 41.338 104.676 40.612ZM120.493 37.708V44H116.709V38.192C116.709 37.29 116.159 36.718 115.301 36.718C114.443 36.718 113.849 37.356 113.849 38.258V44H110.065V34.012L113.761 33.638V34.76C114.487 33.968 115.543 33.528 116.775 33.528C119.217 33.528 120.493 35.178 120.493 37.708Z" fill="white"/>
</g>
<rect x="17" y="13" width="162" height="46" rx="13" stroke="white" stroke-width="6"/>
</g>
<defs>
<filter id="filter0_d_123_122" x="0" y="0" width="196" height="80" filterUnits="userSpaceOnUse" color-interpolation-filters="sRGB">
<feFlood flood-opacity="0" result="BackgroundImageFix"/>
<feColorMatrix in="SourceAlpha" type="matrix" values="0 0 0 0 0 0 0 0 0 0 0 0 0 0 0 0 0 0 127 0" result="hardAlpha"/>
<feOffset dy="4"/>
<feGaussianBlur stdDeviation="7"/>
<feComposite in2="hardAlpha" operator="out"/>
<feColorMatrix type="matrix" values="0 0 0 0 0 0 0 0 0 0 0 0 0 0 0 0 0 0 0.15 0"/>
<feBlend mode="normal" in2="BackgroundImageFix" result="effect1_dropShadow_123_122"/>
<feBlend mode="normal" in="SourceGraphic" in2="effect1_dropShadow_123_122" result="shape"/>
</filter>
<clipPath id="clip0_123_122">
<rect x="20" y="16" width="156" height="40" rx="10" fill="white"/>
</clipPath>
</defs>
</svg>
