<svg width="285" height="130" viewBox="0 0 285 130" fill="none" xmlns="http://www.w3.org/2000/svg">
<path d="M14.003 122C12.803 120 12.8363 113.5 13.003 110.5L121.503 87.5C121.836 90.6667 122.403 97.5 122.003 99.5C121.603 101.5 117.17 102 115.003 102C103.003 102 92.003 111.333 88.003 116L86.003 109.5L85.503 117.5L77.003 123.5C54.503 136.5 15.503 124.5 14.003 122Z" fill="#FAB338"/>
<path d="M11.9242 109.5C5.13027 91.0587 14.8564 79.0449 65.4242 53.5002V15.5002C65.4242 13.0002 66.0029 11.0002 68.5029 11.0002H118.003C121.424 11.0002 121.424 13 121.424 15.5002V53.5002V88.5002C121.424 95.0002 111.924 92.7954 101.924 96.5002C90.634 100.683 84.9201 104.38 75.4242 112.5C65.4242 121.052 15.6082 119.5 11.9242 109.5Z" fill="#252525"/>
<path d="M65.0029 23H121.503V30H65.0029V23Z" fill="#FAB338"/>
<rect x="61.0029" y="11" width="63" height="12" rx="3" fill="#291F1F"/>
<path d="M66.0029 52.3231C70.0029 49.3232 82.5029 48.8232 88.0029 52.3232" stroke="#ADADAD" stroke-width="3" stroke-linecap="round"/>
<path d="M66.0029 44.882C70.0029 41.882 82.5029 41.382 88.0029 44.882" stroke="#ADADAD" stroke-width="3" stroke-linecap="round"/>
<path d="M66.0029 37.4411C70.0029 34.4411 82.5029 33.9411 88.0029 37.4411" stroke="#ADADAD" stroke-width="3" stroke-linecap="round"/>
<path d="M107.003 40.6536C107.003 37.8938 109.732 35.9631 112.334 36.8816L121.334 40.0581C122.933 40.6225 124.003 42.1341 124.003 43.8301V71.59C124.003 73.3247 122.885 74.8618 121.234 75.3958L112.234 78.3075C109.651 79.1434 107.003 77.2171 107.003 74.5017V40.6536Z" fill="#ADADAD"/>
<path d="M81.503 107.5C83.903 71.5002 54.1697 66.1668 39.003 68.0002C12.828 83.2167 5.50299 94.5001 12.503 110.5C19.003 118.5 69.503 124.5 81.503 107.5Z" fill="#474747"/>
<path d="M275 117C276.2 115 276.167 108.5 276 105.5L167.5 82.5C167.167 85.6667 166.6 92.5 167 94.5C167.4 96.5 171.833 97 174 97C186 97 197 106.333 201 111L203 104.5L203.5 112.5L212 118.5C234.5 131.5 273.5 119.5 275 117Z" fill="#FAB338"/>
<path d="M277.079 104.5C283.873 86.0587 274.147 74.0449 223.579 48.5002V10.5002C223.579 8.00018 223 6.00018 220.5 6.00018H171C167.579 6.00018 167.579 8 167.579 10.5002V48.5002V83.5002C167.579 90.0002 177.079 87.7954 187.079 91.5002C198.369 95.6829 204.083 99.3797 213.579 107.5C223.579 116.052 273.395 114.5 277.079 104.5Z" fill="#252525"/>
<path d="M224 18H167.5V25H224V18Z" fill="#FAB338"/>
<rect width="63" height="12" rx="3" transform="matrix(-1 0 0 1 228 6)" fill="#291F1F"/>
<path d="M223 47.3231C219 44.3232 206.5 43.8232 201 47.3232" stroke="#ADADAD" stroke-width="3" stroke-linecap="round"/>
<path d="M223 39.882C219 36.882 206.5 36.382 201 39.882" stroke="#ADADAD" stroke-width="3" stroke-linecap="round"/>
<path d="M223 32.4411C219 29.4411 206.5 28.9411 201 32.4411" stroke="#ADADAD" stroke-width="3" stroke-linecap="round"/>
<path d="M182 35.6536C182 32.8938 179.271 30.9631 176.669 31.8816L167.669 35.0581C166.069 35.6225 165 37.1341 165 38.8301V66.59C165 68.3247 166.118 69.8618 167.769 70.3958L176.769 73.3075C179.352 74.1434 182 72.2171 182 69.5017V35.6536Z" fill="#ADADAD"/>
<path d="M207.5 102.5C205.1 66.5002 234.833 61.1668 250 63.0002C276.175 78.2167 283.5 89.5001 276.5 105.5C270 113.5 219.5 119.5 207.5 102.5Z" fill="#474747"/>
</svg>
