<svg width="250" height="520" viewBox="0 0 250 520" fill="none" xmlns="http://www.w3.org/2000/svg">
<path d="M101 108.006C102.2 104.406 102.167 91.8397 102 86.0063L126.5 84.5063C126.1 94.1063 128.5 104.006 131 108.006C116.989 116.409 111.954 114.628 101 108.006Z" fill="#E6AB98"/>
<path d="M101.5 106.506C111.1 112.906 122.167 94.5063 126.5 84.5063L102 86.5063C102.281 94.1499 102.341 98.4705 101.5 106.506Z" fill="black" fill-opacity="0.1"/>
<path d="M114.722 90.5069C102.868 88.1695 96.046 85.2335 88.2218 72.5069L81.2218 35.0069C78.9309 21.5158 94.7446 5.37339 112.222 5.00623C129.074 4.65219 147.649 19.5434 143.722 35.0069L137.222 71.0069C132.97 79.3004 123.722 90.0069 114.722 90.5069Z" fill="#E6AB98"/>
<path d="M141.5 70.422C140.3 71.222 138 70.0887 137 69.422L140 51.922C155.5 40.922 154 59.922 151 60.922C148 61.922 143 69.422 141.5 70.422Z" fill="#E6AB98"/>
<path d="M147.5 51.0062C142.3 50.6062 139.667 59.1729 139 63.5062C140.917 63.3974 141.147 64.4343 141 67.0062C143 67.0062 143.3 63.5062 146.5 61.5062C150.5 59.0062 154 51.5062 147.5 51.0062Z" fill="#D38369"/>
<path d="M141 67.0063C141 64.5063 140.5 63.5063 139 63.5063C139.5 62.8396 139.9 60.1063 141.5 60.5063C143.1 60.9063 144 66.5063 141 67.0063Z" fill="#F29D80"/>
<path d="M147.5 51.0063C143.325 53.0195 141.392 55.8409 141 61.0065L139 63.5065C139.491 60.7752 139.908 59.2394 141 56.5063C143.898 51.4904 145.22 51.0982 147.5 51.0063Z" fill="#F29D80"/>
<path d="M148.5 59.5062C148.239 56.0825 147.773 54.3938 144 53.5062C146.931 50.3055 149 51.0063 150.5 52.5063C152 54.0065 150.655 57.0309 148.5 59.5062Z" fill="black" fill-opacity="0.16"/>
<path d="M83.4346 70.422C84.6346 71.222 86.9346 70.0887 87.9346 69.422L84.9346 51.922C69.4346 40.922 70.9346 59.922 73.9346 60.922C76.9346 61.922 81.9346 69.422 83.4346 70.422Z" fill="#E6AB98"/>
<path d="M77.4346 51.0062C82.6346 50.6062 85.2679 59.1729 85.9346 63.5062C84.0178 63.3974 83.788 64.4343 83.9346 67.0062C81.9346 67.0062 81.6346 63.5062 78.4346 61.5062C74.4346 59.0062 70.9346 51.5062 77.4346 51.0062Z" fill="#D38369"/>
<path d="M83.9346 67.0063C83.9346 64.5063 84.4346 63.5063 85.9346 63.5063C85.4346 62.8396 85.0346 60.1063 83.4346 60.5063C81.8346 60.9063 80.9346 66.5063 83.9346 67.0063Z" fill="#F29D80"/>
<path d="M77.4346 51.0063C81.6091 53.0195 83.543 55.8409 83.9346 61.0065L85.9346 63.5065C85.4433 60.7752 85.0266 59.2394 83.9346 56.5063C81.0361 51.4904 79.7149 51.0982 77.4346 51.0063Z" fill="#F29D80"/>
<path d="M76.4346 59.5062C76.696 56.0825 77.1614 54.3938 80.9346 53.5062C78.0037 50.3055 75.9346 51.0063 74.4346 52.5063C72.9346 54.0065 74.2792 57.0309 76.4346 59.5062Z" fill="black" fill-opacity="0.16"/>
<path d="M125.208 104.818C117.502 111.863 110.897 111.643 102.53 104.818V128.817C111.76 129.367 116.594 128.21 124 120.89L125.208 104.818Z" fill="white"/>
<path fill-rule="evenodd" clip-rule="evenodd" d="M116.817 126.66H111.141V138.573H116.817V126.66ZM111.141 143.858V244.006H116.817V143.858H111.141Z" fill="#523501"/>
<path d="M116.817 138.573H111.141V143.858H116.817V138.573Z" fill="#FFDEA4"/>
<path d="M101.5 120.89C99.1 123.29 92.8333 122.89 90 122.39L103.5 113.39L114 128.39L101.5 122.89V120.89Z" fill="black" fill-opacity="0.2"/>
<path d="M126.5 120.89C128.9 123.29 135.667 122.39 138.5 121.89L124.5 113.39L115 128.89L126.5 122.89V120.89Z" fill="black" fill-opacity="0.2"/>
<path fill-rule="evenodd" clip-rule="evenodd" d="M94.315 98.4126C94.0124 110.622 92.7166 114.043 89.739 121.903L89.6523 122.131C90.4055 121.905 91.1338 121.695 91.8377 121.492C96.817 120.053 100.571 118.969 103.235 115.239V121.118L113.979 128.01L103.235 105.913L101.881 93.1061L100.64 91.56L94.315 98.4126Z" fill="#C71919"/>
<path fill-rule="evenodd" clip-rule="evenodd" d="M133.602 98.4126C133.905 110.622 135.2 114.043 138.178 121.903L138.265 122.131C137.511 121.905 136.783 121.695 136.079 121.492C131.1 120.053 127.346 118.969 124.682 115.239V121.118L110.897 133.484L124.682 105.913L125.981 93.5776L127.622 91.9343L133.602 98.4126Z" fill="#C71919"/>
<mask id="mask0_253_590" style="mask-type:alpha" maskUnits="userSpaceOnUse" x="66" y="243" width="120" height="202">
<path d="M67.5257 243.39C68.1476 280.548 68.7343 356.634 66.1062 363.71L71.9185 367.5C70.4864 381.652 66.6565 410.527 66.1062 413.746C65.1655 419.249 70.787 426.542 70.7171 430.133C70.5996 436.18 83.1808 444.577 94.4242 444.577C104.027 444.577 114.475 441.948 111.846 435.479C117.153 432.952 113.363 426.887 110.33 412.23C109.91 396.41 108.301 365.005 104.999 348.27L107.178 300.916C110.223 294.688 116.313 281.069 116.313 276.419C122.956 293.443 136.741 333.053 138.734 355.308C141.225 383.127 127.108 413.021 132.921 419.249C138.734 425.477 145.377 419.881 144.131 433.366C143.135 444.154 149.806 445.335 153.266 444.577H175.272C178.732 440.286 185.569 430.709 185.237 426.723C184.904 422.737 181.223 412.883 179.424 408.454C177.763 394.475 173.611 364.276 170.289 355.308L163.231 243.39H67.5257Z" fill="#201D13"/>
</mask>
<g mask="url(#mask0_253_590)">
<path d="M67.5257 243.39C68.1476 280.548 68.7343 356.634 66.1062 363.71L71.9185 367.5C70.4864 381.652 66.6565 410.527 66.1062 413.746C65.1655 419.249 70.787 426.542 70.7171 430.133C70.5996 436.18 83.1808 444.577 94.4242 444.577C104.027 444.577 114.475 441.948 111.846 435.479C117.153 432.952 113.363 426.887 110.33 412.23C109.91 396.41 108.301 365.005 104.999 348.27L107.178 300.916C110.223 294.688 116.313 281.069 116.313 276.419C122.956 293.443 136.741 333.053 138.734 355.308C141.225 383.127 127.108 413.021 132.921 419.249C138.734 425.477 145.377 419.881 144.131 433.366C143.135 444.154 149.806 445.335 153.266 444.577H175.272C178.732 440.286 185.569 430.709 185.237 426.723C184.904 422.737 181.223 412.883 179.424 408.454C177.763 394.475 173.611 364.276 170.289 355.308L163.231 243.39H67.5257Z" fill="#201D13"/>
<path d="M163.5 247.39L67.5 252.89V242.89H163.5V247.39Z" fill="black" fill-opacity="0.3"/>
<path d="M73 357.89L68 272.39C68.5147 310.611 68.9186 332.261 66 363.89L72 367.89L71 377.89C77.5 362.89 87.5 381.056 87.5 386.89C87.8333 383.39 87.5 374.89 84.5 368.39C81.7972 362.533 76.5 358.723 73 357.89Z" fill="black" fill-opacity="0.3"/>
<path d="M74 414.89C71.6 412.89 71.6667 382.723 72 367.89L66 416.39C68.8 426.39 84.1667 423.89 91.5 421.39C86.6667 420.056 76.4 416.89 74 414.89Z" fill="black" fill-opacity="0.3"/>
<path d="M116.5 275.89C109.301 276.257 104 274.89 95.5 271.39C99.5 276.39 104.499 279.236 109.5 280.39C110.972 288.498 109.5 300.89 100.5 300.89C106.162 319.89 104.377 330.04 105 348.39C105.573 330.101 105.975 319.795 107.5 300.89C112.114 291.003 114.035 285.536 116.5 275.89Z" fill="black" fill-opacity="0.3"/>
<path d="M159 397.89C159.4 368.29 140.167 332.556 130.5 318.39C139.172 349.012 141.556 365.112 135.5 389.39C144.375 358.892 149.501 358.379 159 397.89Z" fill="black" fill-opacity="0.3"/>
<path d="M150.5 412.89C141.7 408.49 137.167 394.723 136 388.39L132 408.39C130.604 417.161 132.393 419.806 138 422.39C143.311 423.939 144.264 425.349 144 428.39C143.044 439.39 144.738 444.881 154 444.39C156.5 435.723 159.3 417.29 150.5 412.89Z" fill="black" fill-opacity="0.3"/>
<path d="M154 444.39L156.5 430.39C160.587 441.616 164.947 444.114 175 444.39H154Z" fill="black" fill-opacity="0.3"/>
<path d="M169 424.89C169.4 418.09 176.167 411.056 179.5 408.39C182.829 418.94 183.83 421.762 185.5 426.39C178.306 411.011 174.803 412.835 169 424.89Z" fill="black" fill-opacity="0.3"/>
<path d="M130 296.89L116.5 275.89L131 319.89C139.457 298.601 136.452 286.506 129 264.89C132.5 277.39 135 288.89 130 296.89Z" fill="black" fill-opacity="0.3"/>
<path d="M141.394 291.388C142.891 305.872 150.524 338.206 169.079 351.671C165.5 334.89 148.5 341.39 141.394 291.388Z" fill="black" fill-opacity="0.3"/>
<path d="M104.5 336.39C105.5 351.89 106 354.39 90.9804 368.596C96.4998 353.89 105 361.89 104.5 336.39Z" fill="black" fill-opacity="0.3"/>
</g>
<path d="M41.6334 510.414C40.844 509.098 40.8659 504.822 40.9755 502.848L112.355 487.717C112.575 489.801 112.947 494.296 112.684 495.612C112.421 496.928 109.504 497.257 108.079 497.257C100.185 497.257 92.9479 503.397 90.3163 506.467L89.0006 502.191L88.6716 507.454L83.0797 511.401C68.2774 519.953 42.6202 512.059 41.6334 510.414Z" fill="#FAB338"/>
<path d="M40.2659 502.191C35.7963 490.058 42.195 482.155 75.4623 465.35V440.35C75.4623 438.706 75.8431 437.39 77.4878 437.39H110.053C112.303 437.39 112.303 438.705 112.303 440.35V465.35V488.375C112.303 492.651 106.054 491.201 99.4749 493.638C92.0473 496.39 88.2883 498.822 82.0411 504.164C75.4624 509.79 42.6895 508.769 40.2659 502.191Z" fill="#252525"/>
<path d="M75.1851 445.284H112.355V449.889H75.1851V445.284Z" fill="#FAB338"/>
<rect x="72.5537" y="437.39" width="41.4463" height="7.89453" rx="1.97363" fill="#291F1F"/>
<path d="M75.8433 464.575C78.4748 462.602 86.6982 462.273 90.3166 464.575" stroke="#ADADAD" stroke-width="1.97363" stroke-linecap="round"/>
<path d="M75.8433 459.68C78.4748 457.706 86.6982 457.377 90.3166 459.68" stroke="#ADADAD" stroke-width="1.97363" stroke-linecap="round"/>
<path d="M75.8433 454.785C78.4748 452.811 86.6982 452.482 90.3166 454.785" stroke="#ADADAD" stroke-width="1.97363" stroke-linecap="round"/>
<path d="M102.816 456.898C102.816 455.083 104.611 453.813 106.323 454.417L112.244 456.507C113.296 456.878 114 457.872 114 458.988V477.251C114 478.392 113.264 479.403 112.178 479.754L106.257 481.67C104.558 482.22 102.816 480.953 102.816 479.166V456.898Z" fill="#ADADAD"/>
<path d="M86.0402 500.875C87.6191 477.192 68.0582 473.683 58.0804 474.889C40.8605 484.9 36.0415 492.323 40.6467 502.849C44.9229 508.112 78.1457 512.059 86.0402 500.875Z" fill="#474747"/>
<path d="M214.367 510.414C215.156 509.098 215.134 504.822 215.024 502.848L143.645 487.717C143.425 489.801 143.053 494.296 143.316 495.612C143.579 496.928 146.496 497.257 147.921 497.257C155.815 497.257 163.052 503.397 165.684 506.467L166.999 502.191L167.328 507.454L172.92 511.401C187.723 519.953 213.38 512.059 214.367 510.414Z" fill="#FAB338"/>
<path d="M215.734 502.191C220.204 490.058 213.805 482.155 180.538 465.35V440.35C180.538 438.706 180.157 437.39 178.512 437.39H145.947C143.697 437.39 143.697 438.705 143.697 440.35V465.35V488.375C143.697 492.651 149.946 491.201 156.525 493.638C163.953 496.39 167.712 498.822 173.959 504.164C180.538 509.79 213.31 508.769 215.734 502.191Z" fill="#252525"/>
<path d="M180.815 445.284H143.645V449.889H180.815V445.284Z" fill="#FAB338"/>
<rect width="41.4463" height="7.89453" rx="1.97363" transform="matrix(-1 0 0 1 183.446 437.39)" fill="#291F1F"/>
<path d="M180.157 464.575C177.525 462.602 169.302 462.273 165.683 464.575" stroke="#ADADAD" stroke-width="1.97363" stroke-linecap="round"/>
<path d="M180.157 459.68C177.525 457.706 169.302 457.377 165.683 459.68" stroke="#ADADAD" stroke-width="1.97363" stroke-linecap="round"/>
<path d="M180.157 454.785C177.525 452.811 169.302 452.482 165.683 454.785" stroke="#ADADAD" stroke-width="1.97363" stroke-linecap="round"/>
<path d="M153.184 456.898C153.184 455.083 151.389 453.813 149.677 454.417L143.756 456.507C142.704 456.878 142 457.872 142 458.988V477.251C142 478.392 142.736 479.403 143.822 479.754L149.743 481.67C151.442 482.22 153.184 480.953 153.184 479.166V456.898Z" fill="#ADADAD"/>
<path d="M169.96 500.875C168.381 477.192 187.942 473.683 197.92 474.889C215.14 484.9 219.958 492.323 215.353 502.849C211.077 508.112 177.854 512.059 169.96 500.875Z" fill="#474747"/>
<path fill-rule="evenodd" clip-rule="evenodd" d="M68 177.65C67.8333 182.65 67.0048 194.305 65.4048 196.305L64.5284 202.94C63.5708 207.573 62.8172 211.579 62.1393 215.184C60.2317 225.326 58.9229 232.285 55.3507 241.042C55.4084 243.24 55.9633 244.935 57.2779 246.68C63.3568 255.659 66.6599 260.704 69.5062 270.016C69.5062 272.204 65.3704 271.766 63.0177 268.558L59.2743 263.21C57.777 261.265 55.0318 264.182 55.0318 267.342C54.5945 279.911 53.7702 283.611 51.538 285.817C49.8899 285.636 49.3317 284.358 49.292 279.01C49.3312 275.751 49.0408 274.109 48.0442 271.475C47.0539 284.637 46.0969 288.17 43.0531 289.22C40.5115 288.995 40.9648 284.394 41.6402 277.539C41.6943 276.99 41.7498 276.427 41.8053 275.85C41.6885 276.403 41.576 276.942 41.4669 277.464C40.1896 283.576 39.3775 287.462 37.5628 286.789C35.8448 286.202 35.2086 285.333 36.8142 279.253L37.8125 272.933C37.5995 273.597 37.404 274.22 37.2235 274.794C36.4631 277.215 35.9698 278.786 35.5664 279.01C33.8195 279.983 32.3222 278.524 33.3204 273.905C35.6583 266.646 36.8493 262.59 38.3116 255.431L38.8107 247.653L40.0691 235.972C40.4246 221.549 40.9024 212.615 43.5 197.39C43.5 192.223 43.9 179.59 45.5 170.39L68 177.65Z" fill="#E6AB98"/>
<path d="M70 186.89L45 172.89L71 179.89L70 186.89Z" fill="black" fill-opacity="0.2"/>
<path fill-rule="evenodd" clip-rule="evenodd" d="M166 194.39L162.817 202.234C164.1 208.438 164.917 213.602 165.646 218.207C166.994 226.717 168.039 233.318 171.155 241.037C171.098 243.238 170.543 244.934 169.228 246.68C163.149 255.659 159.846 260.704 157 270.016C157 272.204 161.135 271.766 163.488 268.558L167.232 263.21C168.729 261.265 171.474 264.182 171.474 267.342C171.911 279.911 172.736 283.611 174.968 285.817C176.616 285.636 177.174 284.358 177.214 279.01C177.175 275.751 177.465 274.109 178.462 271.475C179.452 284.637 180.409 288.17 183.453 289.22C185.994 288.995 185.541 284.394 184.866 277.539C184.812 276.99 184.756 276.427 184.701 275.85C184.817 276.403 184.93 276.942 185.039 277.464C186.316 283.576 187.128 287.462 188.943 286.789C190.661 286.202 191.297 285.333 189.692 279.253L188.693 272.933C188.906 273.597 189.102 274.22 189.282 274.794C190.043 277.215 190.536 278.786 190.939 279.01C192.686 279.983 194.184 278.524 193.185 273.905C190.848 266.646 189.657 262.59 188.194 255.431L187.695 247.653L186.481 237.832C186.118 222.293 185.713 213.258 183.006 197.39L166 194.39Z" fill="#E6AB98"/>
<path d="M158 186.89L183 172.89L157 179.89L158 186.89Z" fill="black" fill-opacity="0.2"/>
<path d="M99.3488 105.656V94.5063L68.9555 107.842V119.656L100.529 107.842L99.3488 105.656Z" fill="#FBB943"/>
<path d="M40.5859 228.734C48.1346 228.339 52.4189 228.595 60.4027 232.192L61.2788 226.907C54.0279 224.155 49.7774 223.01 40.9267 223.667L40.5859 228.734Z" fill="#FBB943"/>
<path d="M70.9375 143.987H111.715L111.715 138.557H70.9374L70.9375 143.987Z" fill="#523501"/>
<path d="M68.1507 194.219C67.9064 200.125 67.7227 204.565 66.5789 209.655C65.4199 214.812 64.4515 219.182 63.697 222.894C65.2135 222.275 69.754 223.761 71.8347 224.582C76.0393 212.02 77.5368 193.177 77.76 185.326C73.1382 185.208 69.7357 184.471 68.6122 184.117C68.43 187.17 68.3151 190.079 68.2202 192.484C68.196 193.097 68.1731 193.678 68.1507 194.219Z" fill="#FBB943"/>
<path d="M68.6122 181.446C60.2102 175.201 54.6857 174.173 44.2623 174.067L43.7661 181.446C52.9154 180.823 58.0871 182.231 67.4108 188.894L68.6122 181.446Z" fill="#523501"/>
<path fill-rule="evenodd" clip-rule="evenodd" d="M48.9051 150.279C47.5523 158.29 46.1698 166.477 44.2623 174.067C54.6857 174.173 60.2102 175.201 68.6122 181.446L68.9555 179.318C68.8187 180.922 68.7064 182.539 68.6122 184.117C69.7357 184.471 73.1382 185.208 77.76 185.326C77.5368 193.177 76.0393 212.02 71.8347 224.582C69.754 223.761 65.2135 222.275 63.697 222.894C60.6477 237.896 61.0932 242.143 66.5789 244.117H111.715L111.715 143.987H70.9375L70.9374 138.557H111.715L111.715 125.885L100.529 107.842L68.9555 119.656V107.842L59.6147 111.941C56.2379 117.074 54.001 124.265 52.2062 132.426L62.6347 134.636L61.4302 139.695L60.2257 144.754L50.2951 142.194C49.8222 144.848 49.3654 147.553 48.9051 150.279ZM67.4108 188.894C58.0871 182.231 52.9154 180.823 43.7661 181.446L40.9267 223.667C49.7774 223.01 54.0279 224.155 61.2788 226.907L67.4108 188.894Z" fill="#FFDEA5"/>
<path d="M50.2951 142.194L60.2257 144.754L61.4302 139.695L51.227 137.173C50.9064 138.82 50.5975 140.497 50.2951 142.194Z" fill="white"/>
<path d="M62.6347 134.636L52.2062 132.426C51.8655 133.976 51.5406 135.561 51.227 137.173L61.4302 139.695L62.6347 134.636Z" fill="#D81010"/>
<path d="M128.366 105.656V94.5063L158.759 107.842V119.656L127.186 107.842L128.366 105.656Z" fill="#FBB943"/>
<path d="M187.129 228.734C179.58 228.339 175.296 228.595 167.312 232.192L166.436 226.907C173.687 224.155 177.937 223.01 186.788 223.667L187.129 228.734Z" fill="#FBB943"/>
<path d="M156.777 143.906H116V138.557H156.777V143.906Z" fill="#523501"/>
<path d="M159.564 194.219C159.808 200.125 159.992 204.565 161.136 209.655C162.295 214.812 163.263 219.182 164.018 222.894C162.501 222.275 157.961 223.761 155.88 224.582C151.676 212.02 150.178 193.177 149.955 185.326C154.577 185.208 157.979 184.471 159.103 184.117C159.285 187.17 159.4 190.079 159.495 192.484C159.519 193.097 159.542 193.678 159.564 194.219Z" fill="#FBB943"/>
<path fill-rule="evenodd" clip-rule="evenodd" d="M178.81 150.279C180.162 158.29 181.545 166.477 183.452 174.067C173.029 174.173 167.505 175.201 159.103 181.446L158.759 179.318C158.896 180.922 159.008 182.539 159.103 184.117C157.979 184.471 154.577 185.208 149.955 185.326C150.178 193.177 151.676 212.02 155.88 224.582C157.961 223.761 162.501 222.275 164.018 222.894C167.067 237.896 166.622 242.143 161.136 244.117H116V143.906H156.777V138.557H116V128.564L127.186 107.842L158.759 119.656V107.842L168.1 111.941C173.798 120.603 176.251 135.126 178.81 150.279ZM160.304 188.894C169.628 182.231 174.799 180.823 183.949 181.446L186.788 223.667C177.937 223.01 173.687 224.155 166.436 226.907L160.304 188.894Z" fill="#FFDEA5"/>
<path d="M159.103 181.446C167.505 175.201 173.029 174.173 183.452 174.067L183.949 181.446C174.799 180.823 169.628 182.231 160.304 188.894L159.103 181.446Z" fill="#523501"/>
<path fill-rule="evenodd" clip-rule="evenodd" d="M94.315 98.4126C94.0124 110.622 92.7166 114.043 89.739 121.903L89.6523 122.131C90.4055 121.905 91.1338 121.695 91.8377 121.492C96.817 120.053 100.571 118.969 103.235 115.239V121.118L113.979 128.01L103.235 105.913L101.881 93.1061L100.64 91.56L94.315 98.4126Z" fill="#6E4700"/>
<path fill-rule="evenodd" clip-rule="evenodd" d="M133.602 98.4126C133.905 110.622 135.2 114.043 138.178 121.903L138.265 122.131C137.511 121.905 136.783 121.695 136.079 121.492C131.1 120.053 127.346 118.969 124.682 115.239V121.118L110.897 133.484L124.682 105.913L125.981 93.5776L127.622 91.9343L133.602 98.4126Z" fill="#6E4700"/>
<rect x="76.8101" y="146.946" width="28.7855" height="32.9435" rx="1" fill="#6E4700"/>
<rect x="76.1504" y="146.946" width="30" height="19.3005" rx="1" fill="#523501"/>
<rect x="123.872" y="146.946" width="28.7855" height="32.9435" rx="1" fill="#6E4700"/>
<rect x="123.166" y="146.946" width="30" height="19.3005" rx="1" fill="#523501"/>
<circle cx="91.1505" cy="161.759" r="2.65875" fill="#2D1D01"/>
<circle cx="138.5" cy="161.759" r="2.65875" fill="#2D1D01"/>
<path opacity="0.2" d="M68.8789 179.284L71.2278 144.052C74.3353 145.451 72.959 168.457 72.959 175.729L72.959 175.857C72.9586 181.684 72.958 191.011 80.037 196.767C71.2278 193.818 68.8797 181.603 68.8789 179.284Z" fill="black"/>
<path opacity="0.2" d="M64.2472 174.357C65.9992 169.539 69.8819 149.215 70.0644 140.272L71.4256 164.674L60.3827 232.143L55.3041 230.789C58.1049 219.364 61.1676 196.913 61.1676 193.409C61.1676 189.029 62.0572 180.38 64.2472 174.357Z" fill="black"/>
<path d="M164.25 135.14C163.25 161.14 168.256 219.724 175.308 229.605L167.808 231.605L158.712 180.582L159.75 150.64L164.25 135.14Z" fill="black" fill-opacity="0.2"/>
<path d="M137.25 196.756C162.25 178.756 157.917 162.423 159.75 150.256V178.256C153.342 187.276 147.565 190.684 137.25 196.756Z" fill="black" fill-opacity="0.2"/>
<mask id="mask1_253_590" style="mask-type:alpha" maskUnits="userSpaceOnUse" x="59" y="96" width="108" height="149">
<path d="M91.0337 97.3896L68.883 106.955L59.9999 110.89C57.1807 119.75 68.8831 149.39 70.3933 159.311L68.5 182.39C67.9966 199.003 65.5171 212.29 63 226.89C60.9863 238.569 62 244.39 66.3659 244.39H166.044C168 240.39 160.674 200.927 156.982 181.462V159.311C156.982 150.39 164.366 123.232 165.037 109.975L135.5 96.3896L115.702 147.732L91.0337 97.3896Z" fill="#FE8401"/>
</mask>
<g mask="url(#mask1_253_590)">
<rect x="59" y="91.3896" width="109" height="153" fill="#C71919"/>
<rect x="68" y="180.39" width="98" height="19" fill="url(#paint0_linear_253_590)"/>
<rect x="54" y="133.39" width="112" height="5" fill="url(#paint1_linear_253_590)"/>
<rect x="60" y="199.39" width="113" height="45" fill="#28293D"/>
<rect x="113.907" y="139.577" width="3.22055" height="107.933" fill="white" stroke="black" stroke-width="0.2"/>
<path d="M144.716 198.578L156.798 159.311L169.887 244.893H163.846L155.791 194.047C154.281 185.489 149.247 189.013 144.716 198.578Z" fill="black" fill-opacity="0.2"/>
<path d="M87.8291 198.578L70.2092 159.311L59.6373 244.893H68.699C66.0834 223.656 67.6615 212.038 72.7264 191.53C74.2366 182.972 83.2983 189.013 87.8291 198.578Z" fill="black" fill-opacity="0.2"/>
</g>
<path d="M136.135 36.532C139.207 43.3248 139.045 55.3896 139.045 55.3896L142.635 48.0695C142.635 48.0695 146.135 31.8854 141.926 23.0622C136.216 11.0924 126.144 5.69836 112.851 5.40169C99.0468 5.09363 88.2996 10.6884 82.2543 23.0622C77.9604 31.8513 81.1204 48.0695 81.1204 48.0695L84.2387 53.4383C84.2387 53.4383 83.625 42.5421 86.5065 36.532C89.2301 30.8511 97.425 24.6372 97.425 24.6372C97.425 24.6372 106.192 32.0421 112.851 31.8901C119.203 31.7451 127.403 24.6372 127.403 24.6372C127.403 24.6372 133.762 31.2846 136.135 36.532Z" fill="#462F30"/>
<defs>
<linearGradient id="paint0_linear_253_590" x1="68" y1="189.89" x2="335" y2="189.89" gradientUnits="userSpaceOnUse">
<stop stop-color="#FAFAFA"/>
<stop offset="1" stop-color="#949494"/>
</linearGradient>
<linearGradient id="paint1_linear_253_590" x1="54" y1="135.89" x2="359.143" y2="135.89" gradientUnits="userSpaceOnUse">
<stop stop-color="#FAFAFA"/>
<stop offset="1" stop-color="#949494"/>
</linearGradient>
</defs>
</svg>
