<svg width="961" height="1454" viewBox="0 0 961 1454" fill="none" xmlns="http://www.w3.org/2000/svg">
<path d="M53.6052 1359.8H907.27L954.06 1404.6H0L53.6052 1359.8Z" fill="#4F4F4F"/>
<path d="M56.9636 138.798H910.629L957.418 94.0004H3.3584L56.9636 138.798Z" fill="#4F4F4F"/>
<rect x="53.4932" y="91.8989" width="855" height="1315" fill="#6D6D6D" stroke="#E7E7E7" stroke-width="24"/>
<rect x="53.4932" y="1249.23" width="855" height="17" fill="#E7E7E7"/>
<rect y="1404.6" width="954.06" height="49" fill="#3D3D3D"/>
<rect width="954.06" height="49" transform="matrix(1 0 0 -1 3.3584 94)" fill="#3D3D3D"/>
<rect x="53.4932" y="407.899" width="855" height="17" fill="#E7E7E7"/>
<rect x="489.981" y="594.899" width="416" height="17" fill="#E7E7E7"/>
<rect x="492.493" y="781.899" width="410.977" height="17" fill="#E7E7E7"/>
<rect x="492.493" y="875.232" width="410.977" height="17" fill="#E7E7E7"/>
<rect x="492.493" y="1062.23" width="410.977" height="17" fill="#E7E7E7"/>
<rect x="497.389" y="414.994" width="991.709" height="17" transform="rotate(90.194 497.389 414.994)" fill="#E7E7E7"/>
<path fill-rule="evenodd" clip-rule="evenodd" d="M903.664 96.7437L784.919 158.539L481.101 157.202L177.239 158.536L58.4932 96.7439H477.769V96.7437H903.664Z" fill="#9B9B9B"/>
<path d="M177.296 469.624L58.4932 424.899H480.389V469.623L177.296 469.624Z" fill="#B0B0B0"/>
<path d="M784.947 469.624L903.75 424.899H497.389V469.623L784.947 469.624Z" fill="#B0B0B0"/>
<path d="M784.947 656.821L903.75 612.096H497.389V656.82L784.947 656.821Z" fill="#B0B0B0"/>
<path d="M782.359 936.957L901.162 892.232H494.802V936.956L782.359 936.957Z" fill="#B0B0B0"/>
<path d="M785.08 1123.96L903.883 1079.23H494.811V1123.96H785.08Z" fill="#B0B0B0"/>
<g filter="url(#filter0_d_268_85)">
<rect x="896.871" y="863.86" width="395.047" height="53.5891" transform="rotate(180 896.871 863.86)" fill="#D9D9D9"/>
</g>
<g filter="url(#filter1_d_268_85)">
<ellipse cx="699.347" cy="837.066" rx="16.5013" ry="15.5461" fill="#5C5C5C"/>
</g>
<path d="M58.4932 96.7441L177.242 158.537V407.899H58.4932V96.7441Z" fill="#5C5C5C"/>
<path d="M903.664 96.7441L784.915 158.537V407.899H903.664V96.7441Z" fill="#5C5C5C"/>
<path d="M58.4932 425.134L177.244 469.674V1249.23H58.4932V425.134Z" fill="#5C5C5C"/>
<path d="M903.471 424.899L784.722 469.601V594.702H903.469L903.471 424.899Z" fill="#5C5C5C"/>
<path d="M903.471 612.096L784.722 656.798V781.899H903.469L903.471 612.096Z" fill="#5C5C5C"/>
<path d="M900.883 892.232L782.134 936.934V1062.03H900.881L900.883 892.232Z" fill="#5C5C5C"/>
<path d="M903.604 1079.23L784.855 1123.93V1249.03H903.601L903.604 1079.23Z" fill="#5C5C5C"/>
<path d="M58.4953 1402.64L177.242 1367.58V1266.23H58.4951L58.4953 1402.64Z" fill="#5C5C5C"/>
<path d="M903.518 1401.92L785.134 1367.58V1266.23H903.881L903.518 1401.92Z" fill="#5C5C5C"/>
<path d="M176.796 1367.9L58.4932 1402.03H477.07V1367.9L176.796 1367.9Z" fill="#B0B0B0"/>
<path d="M177.307 1230.71L58.4531 1249.23H477.575V1230.71L177.307 1230.71Z" fill="#B0B0B0"/>
<path d="M785.546 1230.71L904.4 1249.23H494.481V1230.71H785.546Z" fill="#B0B0B0"/>
<path d="M785.43 1278.87L904.369 1266.23H494.449V1278.87L785.43 1278.87Z" fill="#B0B0B0"/>
<path d="M177.432 1278.87L58.4932 1266.23H477.506L477.459 1278.87H177.432Z" fill="#B0B0B0"/>
<path d="M785.583 1367.52L903.453 1401.89H494.05L494.109 1367.52H785.583Z" fill="#B0B0B0"/>
<g filter="url(#filter2_d_268_85)">
<ellipse cx="28.5337" cy="28.7971" rx="28.5337" ry="28.7971" transform="matrix(0.514565 0.857451 -0.414757 0.909932 124.41 493.56)" fill="white"/>
</g>
<g filter="url(#filter3_d_268_85)">
<rect x="124.41" y="538.729" width="355.979" height="11" fill="white"/>
</g>
<defs>
<filter id="filter0_d_268_85" x="497.524" y="800.971" width="405.647" height="64.1891" filterUnits="userSpaceOnUse" color-interpolation-filters="sRGB">
<feFlood flood-opacity="0" result="BackgroundImageFix"/>
<feColorMatrix in="SourceAlpha" type="matrix" values="0 0 0 0 0 0 0 0 0 0 0 0 0 0 0 0 0 0 127 0" result="hardAlpha"/>
<feOffset dx="1" dy="-4"/>
<feGaussianBlur stdDeviation="2.65"/>
<feComposite in2="hardAlpha" operator="out"/>
<feColorMatrix type="matrix" values="0 0 0 0 0 0 0 0 0 0 0 0 0 0 0 0 0 0 0.25 0"/>
<feBlend mode="normal" in2="BackgroundImageFix" result="effect1_dropShadow_268_85"/>
<feBlend mode="normal" in="SourceGraphic" in2="effect1_dropShadow_268_85" result="shape"/>
</filter>
<filter id="filter1_d_268_85" x="670.046" y="807.72" width="58.6027" height="56.6923" filterUnits="userSpaceOnUse" color-interpolation-filters="sRGB">
<feFlood flood-opacity="0" result="BackgroundImageFix"/>
<feColorMatrix in="SourceAlpha" type="matrix" values="0 0 0 0 0 0 0 0 0 0 0 0 0 0 0 0 0 0 127 0" result="hardAlpha"/>
<feOffset dy="-1"/>
<feGaussianBlur stdDeviation="6.4"/>
<feComposite in2="hardAlpha" operator="out"/>
<feColorMatrix type="matrix" values="0 0 0 0 0 0 0 0 0 0 0 0 0 0 0 0 0 0 0.43 0"/>
<feBlend mode="normal" in2="BackgroundImageFix" result="effect1_dropShadow_268_85"/>
<feBlend mode="normal" in="SourceGraphic" in2="effect1_dropShadow_268_85" result="shape"/>
</filter>
<filter id="filter2_d_268_85" x="91.8212" y="503.979" width="54.655" height="88.5002" filterUnits="userSpaceOnUse" color-interpolation-filters="sRGB">
<feFlood flood-opacity="0" result="BackgroundImageFix"/>
<feColorMatrix in="SourceAlpha" type="matrix" values="0 0 0 0 0 0 0 0 0 0 0 0 0 0 0 0 0 0 127 0" result="hardAlpha"/>
<feOffset dx="-8" dy="4"/>
<feGaussianBlur stdDeviation="4.2"/>
<feComposite in2="hardAlpha" operator="out"/>
<feColorMatrix type="matrix" values="0 0 0 0 0 0 0 0 0 0 0 0 0 0 0 0 0 0 0.25 0"/>
<feBlend mode="normal" in2="BackgroundImageFix" result="effect1_dropShadow_268_85"/>
<feBlend mode="normal" in="SourceGraphic" in2="effect1_dropShadow_268_85" result="shape"/>
</filter>
<filter id="filter3_d_268_85" x="118.61" y="538.729" width="369.579" height="25.8" filterUnits="userSpaceOnUse" color-interpolation-filters="sRGB">
<feFlood flood-opacity="0" result="BackgroundImageFix"/>
<feColorMatrix in="SourceAlpha" type="matrix" values="0 0 0 0 0 0 0 0 0 0 0 0 0 0 0 0 0 0 127 0" result="hardAlpha"/>
<feOffset dx="1" dy="8"/>
<feGaussianBlur stdDeviation="3.4"/>
<feComposite in2="hardAlpha" operator="out"/>
<feColorMatrix type="matrix" values="0 0 0 0 0 0 0 0 0 0 0 0 0 0 0 0 0 0 0.25 0"/>
<feBlend mode="normal" in2="BackgroundImageFix" result="effect1_dropShadow_268_85"/>
<feBlend mode="normal" in="SourceGraphic" in2="effect1_dropShadow_268_85" result="shape"/>
</filter>
</defs>
</svg>
